G04 EAGLE Gerber RS-274X export*
G75*
%MOMM*%
%FSLAX34Y34*%
%LPD*%
%INSoldermask Bottom*%
%IPPOS*%
%AMOC8*
5,1,8,0,0,1.08239X$1,22.5*%
G01*
%ADD10C,2.082800*%
%ADD11P,2.254402X8X112.500000*%
%ADD12C,1.727200*%
%ADD13C,1.879600*%
%ADD14C,1.524000*%
%ADD15P,1.649562X8X22.500000*%
%ADD16C,1.117600*%
%ADD17C,0.959600*%


D10*
X635000Y25400D03*
X660400Y25400D03*
X685800Y25400D03*
X711200Y25400D03*
X736600Y25400D03*
X762000Y25400D03*
X787400Y25400D03*
X609600Y25400D03*
X584200Y508000D03*
X609600Y508000D03*
X635000Y508000D03*
X660400Y508000D03*
X685800Y508000D03*
X711200Y508000D03*
X736600Y508000D03*
X558800Y508000D03*
X406400Y25400D03*
X431800Y25400D03*
X457200Y25400D03*
X482600Y25400D03*
X508000Y25400D03*
X533400Y25400D03*
X558800Y25400D03*
X381000Y25400D03*
X355600Y508000D03*
X381000Y508000D03*
X406400Y508000D03*
X431800Y508000D03*
X457200Y508000D03*
X482600Y508000D03*
X508000Y508000D03*
X330200Y508000D03*
X139700Y508000D03*
X165100Y508000D03*
X190500Y508000D03*
X215900Y508000D03*
X241300Y508000D03*
X266700Y508000D03*
X292100Y508000D03*
X114300Y508000D03*
D11*
X838200Y304800D03*
X812800Y304800D03*
X838200Y330200D03*
X812800Y330200D03*
X838200Y355600D03*
X812800Y355600D03*
X838200Y381000D03*
X812800Y381000D03*
X838200Y406400D03*
X812800Y406400D03*
X838200Y431800D03*
X812800Y431800D03*
X838200Y457200D03*
X812800Y457200D03*
X838200Y482600D03*
X812800Y482600D03*
X838200Y101600D03*
X812800Y101600D03*
X838200Y127000D03*
X812800Y127000D03*
X838200Y152400D03*
X812800Y152400D03*
X838200Y177800D03*
X812800Y177800D03*
X838200Y203200D03*
X812800Y203200D03*
X838200Y228600D03*
X812800Y228600D03*
X838200Y254000D03*
X812800Y254000D03*
X838200Y279400D03*
X812800Y279400D03*
D10*
X812800Y76200D03*
X838200Y76200D03*
X812800Y508000D03*
X838200Y508000D03*
X203200Y25400D03*
X228600Y25400D03*
X254000Y25400D03*
X279400Y25400D03*
X304800Y25400D03*
X330200Y25400D03*
X88900Y508000D03*
X63500Y508000D03*
X177800Y25400D03*
X152400Y25400D03*
D12*
X220980Y254000D02*
X236220Y254000D01*
X236220Y279400D02*
X220980Y279400D01*
X220980Y304800D02*
X236220Y304800D01*
X236220Y330200D02*
X220980Y330200D01*
X220980Y355600D02*
X236220Y355600D01*
X236220Y381000D02*
X220980Y381000D01*
X436880Y355600D02*
X452120Y355600D01*
X452120Y330200D02*
X436880Y330200D01*
X436880Y304800D02*
X452120Y304800D01*
X452120Y279400D02*
X436880Y279400D01*
X436880Y254000D02*
X452120Y254000D01*
X350520Y266700D02*
X335280Y266700D01*
X335280Y292100D02*
X350520Y292100D01*
X350520Y317500D02*
X335280Y317500D01*
X335280Y342900D02*
X350520Y342900D01*
X350520Y368300D02*
X335280Y368300D01*
D13*
X711200Y558800D03*
X812800Y558800D03*
X571500Y558800D03*
X673100Y558800D03*
X952500Y558800D03*
X850900Y558800D03*
X711200Y101600D03*
X609600Y101600D03*
X546100Y152400D03*
X546100Y50800D03*
X469900Y152400D03*
X469900Y50800D03*
X393700Y50800D03*
X393700Y152400D03*
X38100Y190500D03*
X139700Y190500D03*
X431800Y558800D03*
X533400Y558800D03*
X279400Y558800D03*
X381000Y558800D03*
D12*
X165100Y439420D02*
X165100Y424180D01*
X190500Y424180D02*
X190500Y439420D01*
X215900Y439420D02*
X215900Y424180D01*
X241300Y424180D02*
X241300Y439420D01*
X266700Y439420D02*
X266700Y424180D01*
X190500Y198120D02*
X190500Y182880D01*
X215900Y182880D02*
X215900Y198120D01*
X241300Y198120D02*
X241300Y182880D01*
X266700Y182880D02*
X266700Y198120D01*
X292100Y198120D02*
X292100Y182880D01*
X160020Y266700D02*
X144780Y266700D01*
X144780Y292100D02*
X160020Y292100D01*
X160020Y317500D02*
X144780Y317500D01*
X144780Y342900D02*
X160020Y342900D01*
X160020Y368300D02*
X144780Y368300D01*
X71120Y266700D02*
X55880Y266700D01*
X55880Y292100D02*
X71120Y292100D01*
X71120Y317500D02*
X55880Y317500D01*
X55880Y342900D02*
X71120Y342900D01*
X71120Y368300D02*
X55880Y368300D01*
D14*
X882396Y495300D02*
X895604Y495300D01*
X895604Y469900D02*
X882396Y469900D01*
X882396Y342900D02*
X895604Y342900D01*
X895604Y317500D02*
X882396Y317500D01*
X882396Y444500D02*
X895604Y444500D01*
X895604Y419100D02*
X882396Y419100D01*
X882396Y368300D02*
X895604Y368300D01*
X895604Y393700D02*
X882396Y393700D01*
X958596Y317500D02*
X971804Y317500D01*
X971804Y342900D02*
X958596Y342900D01*
X958596Y368300D02*
X971804Y368300D01*
X971804Y393700D02*
X958596Y393700D01*
X958596Y419100D02*
X971804Y419100D01*
X971804Y444500D02*
X958596Y444500D01*
X958596Y469900D02*
X971804Y469900D01*
X971804Y495300D02*
X958596Y495300D01*
X895604Y241300D02*
X882396Y241300D01*
X882396Y215900D02*
X895604Y215900D01*
X895604Y88900D02*
X882396Y88900D01*
X882396Y63500D02*
X895604Y63500D01*
X895604Y190500D02*
X882396Y190500D01*
X882396Y165100D02*
X895604Y165100D01*
X895604Y114300D02*
X882396Y114300D01*
X882396Y139700D02*
X895604Y139700D01*
X958596Y63500D02*
X971804Y63500D01*
X971804Y88900D02*
X958596Y88900D01*
X958596Y114300D02*
X971804Y114300D01*
X971804Y139700D02*
X958596Y139700D01*
X958596Y165100D02*
X971804Y165100D01*
X971804Y190500D02*
X958596Y190500D01*
X958596Y215900D02*
X971804Y215900D01*
X971804Y241300D02*
X958596Y241300D01*
D12*
X723900Y411480D02*
X723900Y426720D01*
X698500Y426720D02*
X698500Y411480D01*
X673100Y411480D02*
X673100Y426720D01*
X647700Y426720D02*
X647700Y411480D01*
X622300Y411480D02*
X622300Y426720D01*
X596900Y426720D02*
X596900Y411480D01*
X571500Y411480D02*
X571500Y426720D01*
X584200Y350520D02*
X584200Y335280D01*
X609600Y335280D02*
X609600Y350520D01*
X635000Y350520D02*
X635000Y335280D01*
X660400Y335280D02*
X660400Y350520D01*
X685800Y350520D02*
X685800Y335280D01*
X711200Y335280D02*
X711200Y350520D01*
X736600Y350520D02*
X736600Y335280D01*
X596900Y274320D02*
X596900Y259080D01*
X622300Y259080D02*
X622300Y274320D01*
X647700Y274320D02*
X647700Y259080D01*
X673100Y259080D02*
X673100Y274320D01*
X698500Y274320D02*
X698500Y259080D01*
X723900Y259080D02*
X723900Y274320D01*
X749300Y274320D02*
X749300Y259080D01*
X596900Y172720D02*
X596900Y157480D01*
X622300Y157480D02*
X622300Y172720D01*
X647700Y172720D02*
X647700Y157480D01*
X673100Y157480D02*
X673100Y172720D01*
X698500Y172720D02*
X698500Y157480D01*
X723900Y157480D02*
X723900Y172720D01*
X749300Y172720D02*
X749300Y157480D01*
X342900Y411480D02*
X342900Y426720D01*
X368300Y426720D02*
X368300Y411480D01*
X393700Y411480D02*
X393700Y426720D01*
X419100Y426720D02*
X419100Y411480D01*
X444500Y411480D02*
X444500Y426720D01*
X469900Y426720D02*
X469900Y411480D01*
X495300Y411480D02*
X495300Y426720D01*
X368300Y198120D02*
X368300Y182880D01*
X393700Y182880D02*
X393700Y198120D01*
X419100Y198120D02*
X419100Y182880D01*
X444500Y182880D02*
X444500Y198120D01*
X469900Y198120D02*
X469900Y182880D01*
X495300Y182880D02*
X495300Y198120D01*
X520700Y198120D02*
X520700Y182880D01*
D10*
X279400Y128270D03*
X279400Y100330D03*
X254000Y128270D03*
X254000Y100330D03*
X228600Y128270D03*
X228600Y100330D03*
X203200Y128270D03*
X203200Y100330D03*
X177800Y128270D03*
X177800Y100330D03*
X152400Y128270D03*
X152400Y100330D03*
X127000Y128270D03*
X127000Y100330D03*
X101600Y128270D03*
X101600Y100330D03*
D15*
X165100Y558800D03*
X241300Y558800D03*
X50800Y558800D03*
X127000Y558800D03*
D12*
X88900Y439420D02*
X88900Y424180D01*
X63500Y424180D02*
X63500Y439420D01*
D16*
X739775Y292100D03*
X787400Y536575D03*
X822325Y536575D03*
X549275Y549275D03*
X479425Y558800D03*
X336550Y552450D03*
X304800Y520700D03*
X568325Y374650D03*
X501650Y441325D03*
X473075Y469900D03*
X434975Y469900D03*
X911225Y523875D03*
X873125Y482600D03*
X384175Y358775D03*
X101600Y384175D03*
X47625Y498475D03*
X930275Y476250D03*
X930275Y330200D03*
X292100Y381000D03*
X460375Y565150D03*
X923925Y523875D03*
X908050Y454025D03*
X485775Y285750D03*
X520700Y320675D03*
X520700Y460375D03*
X317500Y409575D03*
X301625Y276225D03*
X203200Y330200D03*
X301625Y434975D03*
X231775Y222250D03*
X130175Y473075D03*
X269875Y473075D03*
X320675Y479425D03*
X552450Y279400D03*
X558800Y476250D03*
X527050Y279400D03*
X558800Y488950D03*
X920750Y57150D03*
X631825Y53975D03*
X850900Y114300D03*
X492125Y381000D03*
X527050Y292100D03*
X635000Y184150D03*
X866775Y57150D03*
X784225Y136525D03*
X311150Y469900D03*
X422275Y469900D03*
X333375Y479425D03*
X406400Y479425D03*
X317500Y422275D03*
X352425Y460375D03*
X508000Y460375D03*
X101600Y479425D03*
X431800Y441325D03*
X908050Y288925D03*
X771525Y82550D03*
X330200Y104775D03*
X307975Y127000D03*
X193675Y155575D03*
X920750Y171450D03*
X911225Y66675D03*
X444500Y69850D03*
X352425Y161925D03*
X828675Y555625D03*
X800100Y536575D03*
X508000Y333375D03*
X508000Y358775D03*
X723900Y38100D03*
X644525Y117475D03*
X835025Y527050D03*
X879475Y511175D03*
X942975Y292100D03*
X933450Y120650D03*
X933450Y317500D03*
X323850Y222250D03*
X561975Y311150D03*
X320675Y244475D03*
D17*
X304800Y393700D03*
X317500Y444500D03*
X546100Y457200D03*
X787400Y419100D03*
X787400Y317500D03*
X787400Y177800D03*
X533400Y419100D03*
X673100Y393700D03*
M02*
