G75*
%MOIN*%
%OFA0B0*%
%FSLAX25Y25*%
%IPPOS*%
%LPD*%
%AMOC8*
5,1,8,0,0,1.08239X$1,22.5*
%
%ADD10C,0.00000*%
%ADD11C,0.01600*%
%ADD12C,0.01000*%
%ADD13C,0.00600*%
%ADD14C,0.00500*%
%ADD15R,0.02000X0.10000*%
%ADD16R,0.07500X0.03000*%
%ADD17C,0.00787*%
%ADD18C,0.00400*%
%ADD19C,0.03500*%
%ADD20R,0.03000X0.04400*%
%ADD21R,0.06000X0.03400*%
D10*
X0071250Y0006800D02*
X0071250Y0510501D01*
X0701171Y0510501D01*
X0701171Y0006800D01*
X0071250Y0006800D01*
D11*
X0487189Y0479600D02*
X0487189Y0498016D01*
X0493327Y0498016D02*
X0481050Y0498016D01*
X0499466Y0498016D02*
X0508674Y0498016D01*
X0511743Y0494946D01*
X0511743Y0488808D01*
X0508674Y0485739D01*
X0499466Y0485739D01*
X0505604Y0485739D02*
X0511743Y0479600D01*
X0517881Y0479600D02*
X0517881Y0498016D01*
X0524020Y0491877D01*
X0530159Y0498016D01*
X0530159Y0479600D01*
X0554713Y0479600D02*
X0566990Y0491877D01*
X0566990Y0494946D01*
X0563921Y0498016D01*
X0557782Y0498016D01*
X0554713Y0494946D01*
X0554713Y0479600D02*
X0566990Y0479600D01*
X0573129Y0482669D02*
X0585406Y0494946D01*
X0585406Y0482669D01*
X0582337Y0479600D01*
X0576198Y0479600D01*
X0573129Y0482669D01*
X0573129Y0494946D01*
X0576198Y0498016D01*
X0582337Y0498016D01*
X0585406Y0494946D01*
X0591544Y0494946D02*
X0594614Y0498016D01*
X0600752Y0498016D01*
X0603822Y0494946D01*
X0603822Y0491877D01*
X0591544Y0479600D01*
X0603822Y0479600D01*
X0609960Y0479600D02*
X0622237Y0479600D01*
X0616099Y0479600D02*
X0616099Y0498016D01*
X0609960Y0491877D01*
X0499466Y0498016D02*
X0499466Y0479600D01*
D12*
X0621250Y0481800D02*
X0621250Y0461800D01*
X0626250Y0461800D01*
X0626250Y0460800D01*
X0626250Y0461800D02*
X0631250Y0461800D01*
X0631250Y0481800D01*
X0626250Y0481800D01*
X0626250Y0482800D01*
X0626250Y0481800D02*
X0621250Y0481800D01*
X0626250Y0442800D02*
X0626250Y0441800D01*
X0631250Y0441800D01*
X0631250Y0421800D01*
X0626250Y0421800D01*
X0626250Y0420800D01*
X0626250Y0421800D02*
X0621250Y0421800D01*
X0621250Y0441800D01*
X0626250Y0441800D01*
X0230250Y0435300D02*
X0228250Y0431800D01*
X0225250Y0431800D01*
X0225250Y0451800D01*
X0228250Y0451800D01*
X0230250Y0448300D01*
X0230250Y0435300D01*
X0225250Y0431800D02*
X0225250Y0431300D01*
X0223250Y0429300D01*
X0201750Y0429300D01*
X0201750Y0454300D01*
X0223250Y0454300D01*
X0225250Y0452300D01*
X0225250Y0451800D01*
X0223250Y0474300D02*
X0201750Y0474300D01*
X0201750Y0499300D01*
X0223250Y0499300D01*
X0225250Y0497300D01*
X0225250Y0496800D01*
X0228250Y0496800D01*
X0230250Y0493300D01*
X0230250Y0480300D01*
X0228250Y0476800D01*
X0225250Y0476800D01*
X0225250Y0496800D01*
X0225250Y0476800D02*
X0225250Y0476300D01*
X0223250Y0474300D01*
X0136250Y0476800D02*
X0131250Y0476800D01*
X0131250Y0475800D01*
X0131250Y0476800D02*
X0126250Y0476800D01*
X0126250Y0496800D01*
X0131250Y0496800D01*
X0131250Y0497800D01*
X0131250Y0496800D02*
X0136250Y0496800D01*
X0136250Y0476800D01*
X0131250Y0452800D02*
X0131250Y0451800D01*
X0136250Y0451800D01*
X0136250Y0431800D01*
X0131250Y0431800D01*
X0131250Y0430800D01*
X0131250Y0431800D02*
X0126250Y0431800D01*
X0126250Y0451800D01*
X0131250Y0451800D01*
X0131250Y0407800D02*
X0131250Y0406800D01*
X0136250Y0406800D01*
X0136250Y0386800D01*
X0131250Y0386800D01*
X0131250Y0385800D01*
X0131250Y0386800D02*
X0126250Y0386800D01*
X0126250Y0406800D01*
X0131250Y0406800D01*
X0201750Y0409300D02*
X0201750Y0384300D01*
X0223250Y0384300D01*
X0225250Y0386300D01*
X0225250Y0386800D01*
X0228250Y0386800D01*
X0230250Y0390300D01*
X0230250Y0403300D01*
X0228250Y0406800D01*
X0225250Y0406800D01*
X0225250Y0407300D01*
X0223250Y0409300D01*
X0201750Y0409300D01*
X0225250Y0406800D02*
X0225250Y0386800D01*
X0166250Y0141800D02*
X0146250Y0141800D01*
X0146250Y0136800D01*
X0145250Y0136800D01*
X0146250Y0136800D02*
X0146250Y0131800D01*
X0166250Y0131800D01*
X0166250Y0136800D01*
X0167250Y0136800D01*
X0166250Y0136800D02*
X0166250Y0141800D01*
X0291250Y0096800D02*
X0291250Y0091800D01*
X0290250Y0091800D01*
X0291250Y0091800D02*
X0291250Y0086800D01*
X0311250Y0086800D01*
X0311250Y0091800D01*
X0312250Y0091800D01*
X0311250Y0091800D02*
X0311250Y0096800D01*
X0291250Y0096800D01*
X0330250Y0106800D02*
X0331250Y0106800D01*
X0331250Y0111800D01*
X0351250Y0111800D01*
X0351250Y0106800D01*
X0352250Y0106800D01*
X0351250Y0106800D02*
X0351250Y0101800D01*
X0331250Y0101800D01*
X0331250Y0106800D01*
X0331250Y0071800D02*
X0331250Y0066800D01*
X0330250Y0066800D01*
X0331250Y0066800D02*
X0331250Y0061800D01*
X0351250Y0061800D01*
X0351250Y0066800D01*
X0352250Y0066800D01*
X0351250Y0066800D02*
X0351250Y0071800D01*
X0331250Y0071800D01*
X0311250Y0046800D02*
X0311250Y0041800D01*
X0312250Y0041800D01*
X0311250Y0041800D02*
X0311250Y0036800D01*
X0291250Y0036800D01*
X0291250Y0041800D01*
X0290250Y0041800D01*
X0291250Y0041800D02*
X0291250Y0046800D01*
X0311250Y0046800D01*
X0291090Y0032810D02*
X0283417Y0032810D01*
X0279580Y0032810D02*
X0271907Y0032810D01*
X0271907Y0021300D01*
X0279580Y0021300D01*
X0275744Y0027055D02*
X0271907Y0027055D01*
X0268071Y0030892D02*
X0266152Y0032810D01*
X0262316Y0032810D01*
X0260397Y0030892D01*
X0260397Y0023218D01*
X0262316Y0021300D01*
X0266152Y0021300D01*
X0268071Y0023218D01*
X0254643Y0023218D02*
X0254643Y0032810D01*
X0256561Y0032810D02*
X0252724Y0032810D01*
X0245051Y0032810D02*
X0245051Y0021300D01*
X0248888Y0023218D02*
X0250806Y0021300D01*
X0252724Y0021300D01*
X0254643Y0023218D01*
X0245051Y0032810D02*
X0241214Y0028973D01*
X0237378Y0032810D01*
X0237378Y0021300D01*
X0222031Y0021300D02*
X0222031Y0032810D01*
X0214358Y0032810D02*
X0222031Y0021300D01*
X0214358Y0021300D02*
X0214358Y0032810D01*
X0210522Y0030892D02*
X0208603Y0032810D01*
X0204767Y0032810D01*
X0202848Y0030892D01*
X0202848Y0023218D01*
X0204767Y0021300D01*
X0208603Y0021300D01*
X0210522Y0023218D01*
X0210522Y0030892D01*
X0199012Y0030892D02*
X0197093Y0032810D01*
X0193257Y0032810D01*
X0191338Y0030892D01*
X0191338Y0023218D01*
X0193257Y0021300D01*
X0197093Y0021300D01*
X0199012Y0023218D01*
X0187502Y0023218D02*
X0187502Y0030892D01*
X0185584Y0032810D01*
X0181747Y0032810D01*
X0179829Y0030892D01*
X0179829Y0023218D01*
X0181747Y0021300D01*
X0185584Y0021300D01*
X0187502Y0023218D01*
X0175992Y0023218D02*
X0174074Y0021300D01*
X0168319Y0021300D01*
X0168319Y0032810D01*
X0174074Y0032810D01*
X0175992Y0030892D01*
X0175992Y0028973D01*
X0174074Y0027055D01*
X0168319Y0027055D01*
X0164482Y0030892D02*
X0162564Y0032810D01*
X0158727Y0032810D01*
X0156809Y0030892D01*
X0156809Y0023218D01*
X0158727Y0021300D01*
X0162564Y0021300D01*
X0164482Y0023218D01*
X0164482Y0030892D01*
X0174074Y0027055D02*
X0175992Y0025137D01*
X0175992Y0023218D01*
X0152972Y0021300D02*
X0149136Y0025137D01*
X0151054Y0025137D02*
X0145299Y0025137D01*
X0145299Y0021300D02*
X0145299Y0032810D01*
X0151054Y0032810D01*
X0152972Y0030892D01*
X0152972Y0027055D01*
X0151054Y0025137D01*
X0129953Y0021300D02*
X0129953Y0032810D01*
X0126116Y0028973D01*
X0122279Y0032810D01*
X0122279Y0021300D01*
X0118443Y0021300D02*
X0118443Y0028973D01*
X0114606Y0032810D01*
X0110770Y0028973D01*
X0110770Y0021300D01*
X0106933Y0021300D02*
X0099260Y0021300D01*
X0099260Y0032810D01*
X0106933Y0032810D01*
X0103096Y0027055D02*
X0099260Y0027055D01*
X0095423Y0032810D02*
X0087750Y0032810D01*
X0091587Y0032810D02*
X0091587Y0021300D01*
X0110770Y0027055D02*
X0118443Y0027055D01*
X0287254Y0021300D02*
X0287254Y0032810D01*
X0330250Y0026800D02*
X0331250Y0026800D01*
X0331250Y0031800D01*
X0351250Y0031800D01*
X0351250Y0026800D01*
X0352250Y0026800D01*
X0351250Y0026800D02*
X0351250Y0021800D01*
X0331250Y0021800D01*
X0331250Y0026800D01*
X0385250Y0026800D02*
X0386250Y0026800D01*
X0386250Y0031800D01*
X0406250Y0031800D01*
X0406250Y0026800D01*
X0407250Y0026800D01*
X0406250Y0026800D02*
X0406250Y0021800D01*
X0386250Y0021800D01*
X0386250Y0026800D01*
X0386250Y0061800D02*
X0386250Y0066800D01*
X0385250Y0066800D01*
X0386250Y0066800D02*
X0386250Y0071800D01*
X0406250Y0071800D01*
X0406250Y0066800D01*
X0407250Y0066800D01*
X0406250Y0066800D02*
X0406250Y0061800D01*
X0386250Y0061800D01*
X0445250Y0066800D02*
X0446250Y0066800D01*
X0446250Y0071800D01*
X0466250Y0071800D01*
X0466250Y0066800D01*
X0467250Y0066800D01*
X0466250Y0066800D02*
X0466250Y0061800D01*
X0446250Y0061800D01*
X0446250Y0066800D01*
X0446250Y0101800D02*
X0446250Y0106800D01*
X0445250Y0106800D01*
X0446250Y0106800D02*
X0446250Y0111800D01*
X0466250Y0111800D01*
X0466250Y0106800D01*
X0467250Y0106800D01*
X0466250Y0106800D02*
X0466250Y0101800D01*
X0446250Y0101800D01*
X0407250Y0106800D02*
X0406250Y0106800D01*
X0406250Y0101800D01*
X0386250Y0101800D01*
X0386250Y0106800D01*
X0385250Y0106800D01*
X0386250Y0106800D02*
X0386250Y0111800D01*
X0406250Y0111800D01*
X0406250Y0106800D01*
D13*
X0393750Y0091800D02*
X0388750Y0091800D01*
X0386250Y0089300D01*
X0386250Y0084300D01*
X0388750Y0081800D01*
X0393750Y0081800D01*
X0396250Y0084300D01*
X0396250Y0089300D01*
X0393750Y0091800D01*
X0386250Y0089300D02*
X0383750Y0091800D01*
X0378750Y0091800D01*
X0376250Y0089300D01*
X0376250Y0084300D01*
X0378750Y0081800D01*
X0383750Y0081800D01*
X0386250Y0084300D01*
X0341250Y0084300D02*
X0338750Y0081800D01*
X0333750Y0081800D01*
X0331250Y0084300D01*
X0328750Y0081800D01*
X0323750Y0081800D01*
X0321250Y0084300D01*
X0321250Y0089300D01*
X0323750Y0091800D01*
X0328750Y0091800D01*
X0331250Y0089300D01*
X0333750Y0091800D01*
X0338750Y0091800D01*
X0341250Y0089300D01*
X0341250Y0084300D01*
X0331250Y0084300D02*
X0331250Y0089300D01*
X0301250Y0069300D02*
X0301250Y0064300D01*
X0298750Y0061800D01*
X0293750Y0061800D01*
X0291250Y0064300D01*
X0288750Y0061800D01*
X0283750Y0061800D01*
X0281250Y0064300D01*
X0281250Y0069300D01*
X0283750Y0071800D01*
X0288750Y0071800D01*
X0291250Y0069300D01*
X0293750Y0071800D01*
X0298750Y0071800D01*
X0301250Y0069300D01*
X0291250Y0069300D02*
X0291250Y0064300D01*
X0321250Y0049300D02*
X0321250Y0044300D01*
X0323750Y0041800D01*
X0328750Y0041800D01*
X0331250Y0044300D01*
X0333750Y0041800D01*
X0338750Y0041800D01*
X0341250Y0044300D01*
X0341250Y0049300D01*
X0338750Y0051800D01*
X0333750Y0051800D01*
X0331250Y0049300D01*
X0331250Y0044300D01*
X0331250Y0049300D02*
X0328750Y0051800D01*
X0323750Y0051800D01*
X0321250Y0049300D01*
X0376250Y0049300D02*
X0376250Y0044300D01*
X0378750Y0041800D01*
X0383750Y0041800D01*
X0386250Y0044300D01*
X0388750Y0041800D01*
X0393750Y0041800D01*
X0396250Y0044300D01*
X0396250Y0049300D01*
X0393750Y0051800D01*
X0388750Y0051800D01*
X0386250Y0049300D01*
X0386250Y0044300D01*
X0386250Y0049300D02*
X0383750Y0051800D01*
X0378750Y0051800D01*
X0376250Y0049300D01*
X0436250Y0049300D02*
X0436250Y0044300D01*
X0438750Y0041800D01*
X0443750Y0041800D01*
X0446250Y0044300D01*
X0448750Y0041800D01*
X0453750Y0041800D01*
X0456250Y0044300D01*
X0456250Y0049300D01*
X0453750Y0051800D01*
X0448750Y0051800D01*
X0446250Y0049300D01*
X0446250Y0044300D01*
X0446250Y0049300D02*
X0443750Y0051800D01*
X0438750Y0051800D01*
X0436250Y0049300D01*
X0456250Y0029300D02*
X0458750Y0031800D01*
X0463750Y0031800D01*
X0466250Y0029300D01*
X0468750Y0031800D01*
X0473750Y0031800D01*
X0476250Y0029300D01*
X0476250Y0024300D01*
X0473750Y0021800D01*
X0468750Y0021800D01*
X0466250Y0024300D01*
X0463750Y0021800D01*
X0458750Y0021800D01*
X0456250Y0024300D01*
X0456250Y0029300D01*
X0466250Y0029300D02*
X0466250Y0024300D01*
X0506250Y0024300D02*
X0508750Y0021800D01*
X0513750Y0021800D01*
X0516250Y0024300D01*
X0518750Y0021800D01*
X0523750Y0021800D01*
X0526250Y0024300D01*
X0526250Y0029300D01*
X0523750Y0031800D01*
X0518750Y0031800D01*
X0516250Y0029300D01*
X0516250Y0024300D01*
X0516250Y0029300D02*
X0513750Y0031800D01*
X0508750Y0031800D01*
X0506250Y0029300D01*
X0506250Y0024300D01*
X0571250Y0024300D02*
X0573750Y0021800D01*
X0578750Y0021800D01*
X0581250Y0024300D01*
X0583750Y0021800D01*
X0588750Y0021800D01*
X0591250Y0024300D01*
X0593750Y0021800D01*
X0598750Y0021800D01*
X0601250Y0024300D01*
X0601250Y0029300D01*
X0598750Y0031800D01*
X0593750Y0031800D01*
X0591250Y0029300D01*
X0591250Y0024300D01*
X0591250Y0029300D02*
X0588750Y0031800D01*
X0583750Y0031800D01*
X0581250Y0029300D01*
X0581250Y0024300D01*
X0581250Y0029300D02*
X0578750Y0031800D01*
X0573750Y0031800D01*
X0571250Y0029300D01*
X0571250Y0024300D01*
X0646250Y0024300D02*
X0648750Y0021800D01*
X0653750Y0021800D01*
X0656250Y0024300D01*
X0658750Y0021800D01*
X0663750Y0021800D01*
X0666250Y0024300D01*
X0668750Y0021800D01*
X0673750Y0021800D01*
X0676250Y0024300D01*
X0676250Y0029300D01*
X0673750Y0031800D01*
X0668750Y0031800D01*
X0666250Y0029300D01*
X0666250Y0024300D01*
X0666250Y0029300D02*
X0663750Y0031800D01*
X0658750Y0031800D01*
X0656250Y0029300D01*
X0656250Y0024300D01*
X0656250Y0029300D02*
X0653750Y0031800D01*
X0648750Y0031800D01*
X0646250Y0029300D01*
X0646250Y0024300D01*
X0643750Y0081800D02*
X0641250Y0084300D01*
X0641250Y0089300D01*
X0643750Y0091800D01*
X0641250Y0094300D01*
X0641250Y0099300D01*
X0643750Y0101800D01*
X0641250Y0104300D01*
X0641250Y0109300D01*
X0643750Y0111800D01*
X0641250Y0114300D01*
X0641250Y0119300D01*
X0643750Y0121800D01*
X0648750Y0121800D01*
X0651250Y0119300D01*
X0651250Y0114300D01*
X0648750Y0111800D01*
X0651250Y0109300D01*
X0651250Y0104300D01*
X0648750Y0101800D01*
X0651250Y0099300D01*
X0651250Y0094300D01*
X0648750Y0091800D01*
X0651250Y0089300D01*
X0651250Y0084300D01*
X0648750Y0081800D01*
X0643750Y0081800D01*
X0556250Y0084300D02*
X0556250Y0089300D01*
X0553750Y0091800D01*
X0556250Y0094300D01*
X0556250Y0099300D01*
X0553750Y0101800D01*
X0556250Y0104300D01*
X0556250Y0109300D01*
X0553750Y0111800D01*
X0556250Y0114300D01*
X0556250Y0119300D01*
X0553750Y0121800D01*
X0548750Y0121800D01*
X0546250Y0119300D01*
X0546250Y0114300D01*
X0548750Y0111800D01*
X0546250Y0109300D01*
X0546250Y0104300D01*
X0548750Y0101800D01*
X0546250Y0099300D01*
X0546250Y0094300D01*
X0548750Y0091800D01*
X0546250Y0089300D01*
X0546250Y0084300D01*
X0548750Y0081800D01*
X0553750Y0081800D01*
X0556250Y0084300D01*
X0511250Y0084300D02*
X0508750Y0081800D01*
X0503750Y0081800D01*
X0501250Y0084300D01*
X0498750Y0081800D01*
X0493750Y0081800D01*
X0491250Y0084300D01*
X0491250Y0089300D01*
X0493750Y0091800D01*
X0498750Y0091800D01*
X0501250Y0089300D01*
X0503750Y0091800D01*
X0508750Y0091800D01*
X0511250Y0089300D01*
X0511250Y0084300D01*
X0501250Y0084300D02*
X0501250Y0089300D01*
X0498750Y0121800D02*
X0493750Y0121800D01*
X0491250Y0124300D01*
X0491250Y0129300D01*
X0493750Y0131800D01*
X0498750Y0131800D01*
X0501250Y0129300D01*
X0503750Y0131800D01*
X0508750Y0131800D01*
X0511250Y0129300D01*
X0511250Y0124300D01*
X0508750Y0121800D01*
X0503750Y0121800D01*
X0501250Y0124300D01*
X0498750Y0121800D01*
X0501250Y0124300D02*
X0501250Y0129300D01*
X0456250Y0129300D02*
X0456250Y0124300D01*
X0453750Y0121800D01*
X0448750Y0121800D01*
X0446250Y0124300D01*
X0443750Y0121800D01*
X0438750Y0121800D01*
X0436250Y0124300D01*
X0436250Y0129300D01*
X0438750Y0131800D01*
X0443750Y0131800D01*
X0446250Y0129300D01*
X0448750Y0131800D01*
X0453750Y0131800D01*
X0456250Y0129300D01*
X0446250Y0129300D02*
X0446250Y0124300D01*
X0443750Y0091800D02*
X0446250Y0089300D01*
X0448750Y0091800D01*
X0453750Y0091800D01*
X0456250Y0089300D01*
X0456250Y0084300D01*
X0453750Y0081800D01*
X0448750Y0081800D01*
X0446250Y0084300D01*
X0443750Y0081800D01*
X0438750Y0081800D01*
X0436250Y0084300D01*
X0436250Y0089300D01*
X0438750Y0091800D01*
X0443750Y0091800D01*
X0446250Y0089300D02*
X0446250Y0084300D01*
X0396250Y0124300D02*
X0393750Y0121800D01*
X0388750Y0121800D01*
X0386250Y0124300D01*
X0383750Y0121800D01*
X0378750Y0121800D01*
X0376250Y0124300D01*
X0376250Y0129300D01*
X0378750Y0131800D01*
X0383750Y0131800D01*
X0386250Y0129300D01*
X0388750Y0131800D01*
X0393750Y0131800D01*
X0396250Y0129300D01*
X0396250Y0124300D01*
X0386250Y0124300D02*
X0386250Y0129300D01*
X0341250Y0129300D02*
X0341250Y0124300D01*
X0338750Y0121800D01*
X0333750Y0121800D01*
X0331250Y0124300D01*
X0328750Y0121800D01*
X0323750Y0121800D01*
X0321250Y0124300D01*
X0321250Y0129300D01*
X0323750Y0131800D01*
X0328750Y0131800D01*
X0331250Y0129300D01*
X0333750Y0131800D01*
X0338750Y0131800D01*
X0341250Y0129300D01*
X0331250Y0129300D02*
X0331250Y0124300D01*
X0301250Y0114300D02*
X0301250Y0109300D01*
X0298750Y0106800D01*
X0293750Y0106800D01*
X0291250Y0109300D01*
X0288750Y0106800D01*
X0283750Y0106800D01*
X0281250Y0109300D01*
X0281250Y0114300D01*
X0283750Y0116800D01*
X0288750Y0116800D01*
X0291250Y0114300D01*
X0293750Y0116800D01*
X0298750Y0116800D01*
X0301250Y0114300D01*
X0291250Y0114300D02*
X0291250Y0109300D01*
X0254250Y0106800D02*
X0254250Y0116800D01*
X0238250Y0116800D01*
X0238250Y0106800D01*
X0254250Y0106800D01*
X0250250Y0109300D02*
X0246250Y0111800D01*
X0246250Y0109300D01*
X0246250Y0111800D02*
X0246250Y0114300D01*
X0246250Y0111800D02*
X0250250Y0114300D01*
X0250250Y0109300D01*
X0252250Y0111800D02*
X0246250Y0111800D01*
X0243750Y0111800D01*
X0243750Y0091800D02*
X0241250Y0089300D01*
X0241250Y0084300D01*
X0243750Y0081800D01*
X0241250Y0079300D01*
X0241250Y0074300D01*
X0243750Y0071800D01*
X0241250Y0069300D01*
X0241250Y0064300D01*
X0243750Y0061800D01*
X0248750Y0061800D01*
X0251250Y0064300D01*
X0251250Y0069300D01*
X0248750Y0071800D01*
X0251250Y0074300D01*
X0251250Y0079300D01*
X0248750Y0081800D01*
X0251250Y0084300D01*
X0251250Y0089300D01*
X0248750Y0091800D01*
X0243750Y0091800D01*
X0194250Y0106800D02*
X0194250Y0116800D01*
X0178250Y0116800D01*
X0178250Y0106800D01*
X0194250Y0106800D01*
X0190250Y0109300D02*
X0186250Y0111800D01*
X0186250Y0109300D01*
X0186250Y0111800D02*
X0186250Y0114300D01*
X0186250Y0111800D02*
X0190250Y0114300D01*
X0190250Y0109300D01*
X0192250Y0111800D02*
X0186250Y0111800D01*
X0183750Y0111800D01*
X0183750Y0091800D02*
X0181250Y0089300D01*
X0181250Y0084300D01*
X0183750Y0081800D01*
X0181250Y0079300D01*
X0181250Y0074300D01*
X0183750Y0071800D01*
X0181250Y0069300D01*
X0181250Y0064300D01*
X0183750Y0061800D01*
X0188750Y0061800D01*
X0191250Y0064300D01*
X0191250Y0069300D01*
X0188750Y0071800D01*
X0191250Y0074300D01*
X0191250Y0079300D01*
X0188750Y0081800D01*
X0191250Y0084300D01*
X0191250Y0089300D01*
X0188750Y0091800D01*
X0183750Y0091800D01*
X0134250Y0106800D02*
X0134250Y0116800D01*
X0118250Y0116800D01*
X0118250Y0106800D01*
X0134250Y0106800D01*
X0130250Y0109300D02*
X0126250Y0111800D01*
X0126250Y0109300D01*
X0126250Y0111800D02*
X0126250Y0114300D01*
X0126250Y0111800D02*
X0130250Y0114300D01*
X0130250Y0109300D01*
X0132250Y0111800D02*
X0126250Y0111800D01*
X0123750Y0111800D01*
X0123750Y0091800D02*
X0121250Y0089300D01*
X0121250Y0084300D01*
X0123750Y0081800D01*
X0121250Y0079300D01*
X0121250Y0074300D01*
X0123750Y0071800D01*
X0121250Y0069300D01*
X0121250Y0064300D01*
X0123750Y0061800D01*
X0128750Y0061800D01*
X0131250Y0064300D01*
X0131250Y0069300D01*
X0128750Y0071800D01*
X0131250Y0074300D01*
X0131250Y0079300D01*
X0128750Y0081800D01*
X0131250Y0084300D01*
X0131250Y0089300D01*
X0128750Y0091800D01*
X0123750Y0091800D01*
X0133250Y0181800D02*
X0133250Y0191800D01*
X0149250Y0191800D01*
X0149250Y0181800D01*
X0133250Y0181800D01*
X0138750Y0186800D02*
X0141250Y0186800D01*
X0141250Y0184300D01*
X0141250Y0186800D02*
X0145250Y0184300D01*
X0145250Y0189300D01*
X0141250Y0186800D01*
X0141250Y0189300D01*
X0141250Y0186800D02*
X0147250Y0186800D01*
X0149250Y0196800D02*
X0133250Y0196800D01*
X0133250Y0206800D01*
X0149250Y0206800D01*
X0149250Y0196800D01*
X0145250Y0199300D02*
X0141250Y0201800D01*
X0141250Y0199300D01*
X0141250Y0201800D02*
X0141250Y0204300D01*
X0141250Y0201800D02*
X0145250Y0204300D01*
X0145250Y0199300D01*
X0147250Y0201800D02*
X0141250Y0201800D01*
X0138750Y0201800D01*
X0133250Y0221800D02*
X0133250Y0231800D01*
X0149250Y0231800D01*
X0149250Y0221800D01*
X0133250Y0221800D01*
X0138750Y0226800D02*
X0141250Y0226800D01*
X0141250Y0224300D01*
X0141250Y0226800D02*
X0141250Y0229300D01*
X0141250Y0226800D02*
X0145250Y0229300D01*
X0145250Y0224300D01*
X0141250Y0226800D01*
X0147250Y0226800D01*
X0149250Y0236800D02*
X0133250Y0236800D01*
X0133250Y0246800D01*
X0149250Y0246800D01*
X0149250Y0236800D01*
X0145250Y0239300D02*
X0141250Y0241800D01*
X0141250Y0239300D01*
X0141250Y0241800D02*
X0141250Y0244300D01*
X0141250Y0241800D02*
X0145250Y0244300D01*
X0145250Y0239300D01*
X0147250Y0241800D02*
X0141250Y0241800D01*
X0138750Y0241800D01*
X0133250Y0261800D02*
X0133250Y0271800D01*
X0149250Y0271800D01*
X0149250Y0261800D01*
X0133250Y0261800D01*
X0138750Y0266800D02*
X0141250Y0266800D01*
X0141250Y0264300D01*
X0141250Y0266800D02*
X0145250Y0264300D01*
X0145250Y0269300D01*
X0141250Y0266800D01*
X0141250Y0269300D01*
X0141250Y0266800D02*
X0147250Y0266800D01*
X0149250Y0276800D02*
X0133250Y0276800D01*
X0133250Y0286800D01*
X0149250Y0286800D01*
X0149250Y0276800D01*
X0145250Y0279300D02*
X0141250Y0281800D01*
X0141250Y0279300D01*
X0141250Y0281800D02*
X0138750Y0281800D01*
X0141250Y0281800D02*
X0141250Y0284300D01*
X0141250Y0281800D02*
X0145250Y0284300D01*
X0145250Y0279300D01*
X0147250Y0281800D02*
X0141250Y0281800D01*
X0133250Y0301800D02*
X0133250Y0311800D01*
X0149250Y0311800D01*
X0149250Y0301800D01*
X0133250Y0301800D01*
X0138750Y0306800D02*
X0141250Y0306800D01*
X0141250Y0304300D01*
X0141250Y0306800D02*
X0145250Y0304300D01*
X0145250Y0309300D01*
X0141250Y0306800D01*
X0141250Y0309300D01*
X0141250Y0306800D02*
X0147250Y0306800D01*
X0149250Y0316800D02*
X0133250Y0316800D01*
X0133250Y0326800D01*
X0149250Y0326800D01*
X0149250Y0316800D01*
X0145250Y0319300D02*
X0141250Y0321800D01*
X0141250Y0319300D01*
X0141250Y0321800D02*
X0138750Y0321800D01*
X0141250Y0321800D02*
X0141250Y0324300D01*
X0141250Y0321800D02*
X0145250Y0324300D01*
X0145250Y0319300D01*
X0147250Y0321800D02*
X0141250Y0321800D01*
X0106250Y0324300D02*
X0106250Y0319300D01*
X0103750Y0316800D01*
X0098750Y0316800D01*
X0096250Y0319300D01*
X0093750Y0316800D01*
X0088750Y0316800D01*
X0086250Y0319300D01*
X0083750Y0316800D01*
X0078750Y0316800D01*
X0076250Y0319300D01*
X0076250Y0324300D01*
X0078750Y0326800D01*
X0083750Y0326800D01*
X0086250Y0324300D01*
X0088750Y0326800D01*
X0093750Y0326800D01*
X0096250Y0324300D01*
X0098750Y0326800D01*
X0103750Y0326800D01*
X0106250Y0324300D01*
X0103750Y0286800D02*
X0098750Y0286800D01*
X0096250Y0284300D01*
X0093750Y0286800D01*
X0088750Y0286800D01*
X0086250Y0284300D01*
X0083750Y0286800D01*
X0078750Y0286800D01*
X0076250Y0284300D01*
X0076250Y0279300D01*
X0078750Y0276800D01*
X0083750Y0276800D01*
X0086250Y0279300D01*
X0088750Y0276800D01*
X0093750Y0276800D01*
X0096250Y0279300D01*
X0098750Y0276800D01*
X0103750Y0276800D01*
X0106250Y0279300D01*
X0106250Y0284300D01*
X0103750Y0286800D01*
X0103750Y0246800D02*
X0098750Y0246800D01*
X0096250Y0244300D01*
X0093750Y0246800D01*
X0088750Y0246800D01*
X0086250Y0244300D01*
X0083750Y0246800D01*
X0078750Y0246800D01*
X0076250Y0244300D01*
X0076250Y0239300D01*
X0078750Y0236800D01*
X0083750Y0236800D01*
X0086250Y0239300D01*
X0088750Y0236800D01*
X0093750Y0236800D01*
X0096250Y0239300D01*
X0098750Y0236800D01*
X0103750Y0236800D01*
X0106250Y0239300D01*
X0106250Y0244300D01*
X0103750Y0246800D01*
X0103750Y0206800D02*
X0098750Y0206800D01*
X0096250Y0204300D01*
X0093750Y0206800D01*
X0088750Y0206800D01*
X0086250Y0204300D01*
X0083750Y0206800D01*
X0078750Y0206800D01*
X0076250Y0204300D01*
X0076250Y0199300D01*
X0078750Y0196800D01*
X0083750Y0196800D01*
X0086250Y0199300D01*
X0088750Y0196800D01*
X0093750Y0196800D01*
X0096250Y0199300D01*
X0098750Y0196800D01*
X0103750Y0196800D01*
X0106250Y0199300D01*
X0106250Y0204300D01*
X0103750Y0206800D01*
X0223250Y0206800D02*
X0239250Y0206800D01*
X0239250Y0216800D01*
X0223250Y0216800D01*
X0223250Y0206800D01*
X0227250Y0209300D02*
X0231250Y0211800D01*
X0231250Y0214300D01*
X0231250Y0211800D02*
X0227250Y0214300D01*
X0227250Y0209300D01*
X0225250Y0211800D02*
X0231250Y0211800D01*
X0231250Y0209300D01*
X0231250Y0211800D02*
X0233750Y0211800D01*
X0239250Y0226800D02*
X0223250Y0226800D01*
X0223250Y0236800D01*
X0239250Y0236800D01*
X0239250Y0226800D01*
X0233750Y0231800D02*
X0231250Y0231800D01*
X0231250Y0234300D01*
X0231250Y0231800D02*
X0227250Y0234300D01*
X0227250Y0229300D01*
X0231250Y0231800D01*
X0231250Y0229300D01*
X0231250Y0231800D02*
X0225250Y0231800D01*
X0223250Y0246800D02*
X0239250Y0246800D01*
X0239250Y0256800D01*
X0223250Y0256800D01*
X0223250Y0246800D01*
X0227250Y0249300D02*
X0231250Y0251800D01*
X0231250Y0254300D01*
X0231250Y0251800D02*
X0227250Y0254300D01*
X0227250Y0249300D01*
X0225250Y0251800D02*
X0231250Y0251800D01*
X0231250Y0249300D01*
X0231250Y0251800D02*
X0233750Y0251800D01*
X0239250Y0266800D02*
X0223250Y0266800D01*
X0223250Y0276800D01*
X0239250Y0276800D01*
X0239250Y0266800D01*
X0233750Y0271800D02*
X0231250Y0271800D01*
X0231250Y0274300D01*
X0231250Y0271800D02*
X0231250Y0269300D01*
X0231250Y0271800D02*
X0227250Y0269300D01*
X0227250Y0274300D01*
X0231250Y0271800D01*
X0225250Y0271800D01*
X0223250Y0286800D02*
X0239250Y0286800D01*
X0239250Y0296800D01*
X0223250Y0296800D01*
X0223250Y0286800D01*
X0227250Y0289300D02*
X0231250Y0291800D01*
X0231250Y0294300D01*
X0231250Y0291800D02*
X0231250Y0289300D01*
X0231250Y0291800D02*
X0225250Y0291800D01*
X0227250Y0289300D02*
X0227250Y0294300D01*
X0231250Y0291800D01*
X0233750Y0291800D01*
X0239250Y0306800D02*
X0223250Y0306800D01*
X0223250Y0316800D01*
X0239250Y0316800D01*
X0239250Y0306800D01*
X0233750Y0311800D02*
X0231250Y0311800D01*
X0231250Y0314300D01*
X0231250Y0311800D02*
X0231250Y0309300D01*
X0231250Y0311800D02*
X0227250Y0309300D01*
X0227250Y0314300D01*
X0231250Y0311800D01*
X0225250Y0311800D01*
X0271250Y0304300D02*
X0271250Y0299300D01*
X0273750Y0296800D01*
X0278750Y0296800D01*
X0281250Y0299300D01*
X0283750Y0296800D01*
X0288750Y0296800D01*
X0291250Y0299300D01*
X0293750Y0296800D01*
X0298750Y0296800D01*
X0301250Y0299300D01*
X0301250Y0304300D01*
X0298750Y0306800D01*
X0293750Y0306800D01*
X0291250Y0304300D01*
X0288750Y0306800D01*
X0283750Y0306800D01*
X0281250Y0304300D01*
X0278750Y0306800D01*
X0273750Y0306800D01*
X0271250Y0304300D01*
X0273750Y0271800D02*
X0271250Y0269300D01*
X0271250Y0264300D01*
X0273750Y0261800D01*
X0278750Y0261800D01*
X0281250Y0264300D01*
X0283750Y0261800D01*
X0288750Y0261800D01*
X0291250Y0264300D01*
X0293750Y0261800D01*
X0298750Y0261800D01*
X0301250Y0264300D01*
X0301250Y0269300D01*
X0298750Y0271800D01*
X0293750Y0271800D01*
X0291250Y0269300D01*
X0288750Y0271800D01*
X0283750Y0271800D01*
X0281250Y0269300D01*
X0278750Y0271800D01*
X0273750Y0271800D01*
X0273750Y0226800D02*
X0271250Y0224300D01*
X0271250Y0219300D01*
X0273750Y0216800D01*
X0278750Y0216800D01*
X0281250Y0219300D01*
X0283750Y0216800D01*
X0288750Y0216800D01*
X0291250Y0219300D01*
X0293750Y0216800D01*
X0298750Y0216800D01*
X0301250Y0219300D01*
X0301250Y0224300D01*
X0298750Y0226800D01*
X0293750Y0226800D01*
X0291250Y0224300D01*
X0288750Y0226800D01*
X0283750Y0226800D01*
X0281250Y0224300D01*
X0278750Y0226800D01*
X0273750Y0226800D01*
X0273750Y0386800D02*
X0271250Y0389300D01*
X0271250Y0394300D01*
X0273750Y0396800D01*
X0278750Y0396800D01*
X0281250Y0394300D01*
X0283750Y0396800D01*
X0288750Y0396800D01*
X0291250Y0394300D01*
X0293750Y0396800D01*
X0298750Y0396800D01*
X0301250Y0394300D01*
X0303750Y0396800D01*
X0308750Y0396800D01*
X0311250Y0394300D01*
X0313750Y0396800D01*
X0318750Y0396800D01*
X0321250Y0394300D01*
X0321250Y0389300D01*
X0318750Y0386800D01*
X0313750Y0386800D01*
X0311250Y0389300D01*
X0308750Y0386800D01*
X0303750Y0386800D01*
X0301250Y0389300D01*
X0301250Y0394300D01*
X0301250Y0389300D02*
X0298750Y0386800D01*
X0293750Y0386800D01*
X0291250Y0389300D01*
X0288750Y0386800D01*
X0283750Y0386800D01*
X0281250Y0389300D01*
X0278750Y0386800D01*
X0273750Y0386800D01*
X0281250Y0389300D02*
X0281250Y0394300D01*
X0291250Y0394300D02*
X0291250Y0389300D01*
X0311250Y0389300D02*
X0311250Y0394300D01*
X0308750Y0436800D02*
X0303750Y0436800D01*
X0301250Y0439300D01*
X0301250Y0444300D01*
X0303750Y0446800D01*
X0308750Y0446800D01*
X0311250Y0444300D01*
X0313750Y0446800D01*
X0318750Y0446800D01*
X0321250Y0444300D01*
X0321250Y0439300D01*
X0318750Y0436800D01*
X0313750Y0436800D01*
X0311250Y0439300D01*
X0308750Y0436800D01*
X0311250Y0439300D02*
X0311250Y0444300D01*
X0301250Y0444300D02*
X0298750Y0446800D01*
X0293750Y0446800D01*
X0291250Y0444300D01*
X0288750Y0446800D01*
X0283750Y0446800D01*
X0281250Y0444300D01*
X0278750Y0446800D01*
X0273750Y0446800D01*
X0271250Y0444300D01*
X0271250Y0439300D01*
X0273750Y0436800D01*
X0278750Y0436800D01*
X0281250Y0439300D01*
X0281250Y0444300D01*
X0281250Y0439300D02*
X0283750Y0436800D01*
X0288750Y0436800D01*
X0291250Y0439300D01*
X0291250Y0444300D01*
X0291250Y0439300D02*
X0293750Y0436800D01*
X0298750Y0436800D01*
X0301250Y0439300D01*
X0298750Y0486800D02*
X0293750Y0486800D01*
X0291250Y0489300D01*
X0288750Y0486800D01*
X0283750Y0486800D01*
X0281250Y0489300D01*
X0278750Y0486800D01*
X0273750Y0486800D01*
X0271250Y0489300D01*
X0271250Y0494300D01*
X0273750Y0496800D01*
X0278750Y0496800D01*
X0281250Y0494300D01*
X0283750Y0496800D01*
X0288750Y0496800D01*
X0291250Y0494300D01*
X0293750Y0496800D01*
X0298750Y0496800D01*
X0301250Y0494300D01*
X0303750Y0496800D01*
X0308750Y0496800D01*
X0311250Y0494300D01*
X0313750Y0496800D01*
X0318750Y0496800D01*
X0321250Y0494300D01*
X0321250Y0489300D01*
X0318750Y0486800D01*
X0313750Y0486800D01*
X0311250Y0489300D01*
X0308750Y0486800D01*
X0303750Y0486800D01*
X0301250Y0489300D01*
X0301250Y0494300D01*
X0301250Y0489300D02*
X0298750Y0486800D01*
X0291250Y0489300D02*
X0291250Y0494300D01*
X0281250Y0494300D02*
X0281250Y0489300D01*
X0311250Y0489300D02*
X0311250Y0494300D01*
X0366250Y0494300D02*
X0366250Y0489300D01*
X0368750Y0486800D01*
X0373750Y0486800D01*
X0376250Y0489300D01*
X0378750Y0486800D01*
X0383750Y0486800D01*
X0386250Y0489300D01*
X0388750Y0486800D01*
X0393750Y0486800D01*
X0396250Y0489300D01*
X0398750Y0486800D01*
X0403750Y0486800D01*
X0406250Y0489300D01*
X0408750Y0486800D01*
X0413750Y0486800D01*
X0416250Y0489300D01*
X0418750Y0486800D01*
X0423750Y0486800D01*
X0426250Y0489300D01*
X0426250Y0494300D01*
X0423750Y0496800D01*
X0418750Y0496800D01*
X0416250Y0494300D01*
X0413750Y0496800D01*
X0408750Y0496800D01*
X0406250Y0494300D01*
X0403750Y0496800D01*
X0398750Y0496800D01*
X0396250Y0494300D01*
X0393750Y0496800D01*
X0388750Y0496800D01*
X0386250Y0494300D01*
X0383750Y0496800D01*
X0378750Y0496800D01*
X0376250Y0494300D01*
X0373750Y0496800D01*
X0368750Y0496800D01*
X0366250Y0494300D01*
X0383250Y0451800D02*
X0383250Y0441800D01*
X0399250Y0441800D01*
X0399250Y0451800D01*
X0383250Y0451800D01*
X0387250Y0449300D02*
X0391250Y0446800D01*
X0391250Y0449300D01*
X0391250Y0446800D02*
X0391250Y0444300D01*
X0391250Y0446800D02*
X0385250Y0446800D01*
X0387250Y0444300D02*
X0387250Y0449300D01*
X0391250Y0446800D02*
X0387250Y0444300D01*
X0391250Y0446800D02*
X0393750Y0446800D01*
X0393750Y0411800D02*
X0388750Y0411800D01*
X0386250Y0409300D01*
X0383750Y0411800D01*
X0378750Y0411800D01*
X0376250Y0409300D01*
X0376250Y0404300D01*
X0378750Y0401800D01*
X0383750Y0401800D01*
X0386250Y0404300D01*
X0388750Y0401800D01*
X0393750Y0401800D01*
X0396250Y0404300D01*
X0398750Y0401800D01*
X0403750Y0401800D01*
X0406250Y0404300D01*
X0406250Y0409300D01*
X0403750Y0411800D01*
X0398750Y0411800D01*
X0396250Y0409300D01*
X0393750Y0411800D01*
X0436250Y0409300D02*
X0436250Y0404300D01*
X0438750Y0401800D01*
X0443750Y0401800D01*
X0446250Y0404300D01*
X0448750Y0401800D01*
X0453750Y0401800D01*
X0456250Y0404300D01*
X0458750Y0401800D01*
X0463750Y0401800D01*
X0466250Y0404300D01*
X0468750Y0401800D01*
X0473750Y0401800D01*
X0476250Y0404300D01*
X0476250Y0409300D01*
X0473750Y0411800D01*
X0468750Y0411800D01*
X0466250Y0409300D01*
X0463750Y0411800D01*
X0458750Y0411800D01*
X0456250Y0409300D01*
X0453750Y0411800D01*
X0448750Y0411800D01*
X0446250Y0409300D01*
X0443750Y0411800D01*
X0438750Y0411800D01*
X0436250Y0409300D01*
X0448250Y0441800D02*
X0448250Y0451800D01*
X0464250Y0451800D01*
X0464250Y0441800D01*
X0448250Y0441800D01*
X0453750Y0446800D02*
X0456250Y0446800D01*
X0456250Y0444300D01*
X0456250Y0446800D02*
X0460250Y0444300D01*
X0460250Y0449300D01*
X0456250Y0446800D01*
X0456250Y0449300D01*
X0456250Y0446800D02*
X0462250Y0446800D01*
X0501250Y0444300D02*
X0503750Y0441800D01*
X0508750Y0441800D01*
X0511250Y0444300D01*
X0511250Y0449300D01*
X0508750Y0451800D01*
X0511250Y0454300D01*
X0511250Y0459300D01*
X0508750Y0461800D01*
X0511250Y0464300D01*
X0511250Y0469300D01*
X0508750Y0471800D01*
X0503750Y0471800D01*
X0501250Y0469300D01*
X0501250Y0464300D01*
X0503750Y0461800D01*
X0508750Y0461800D01*
X0503750Y0461800D02*
X0501250Y0459300D01*
X0501250Y0454300D01*
X0503750Y0451800D01*
X0508750Y0451800D01*
X0503750Y0451800D02*
X0501250Y0449300D01*
X0501250Y0444300D01*
X0526250Y0444300D02*
X0528750Y0441800D01*
X0533750Y0441800D01*
X0536250Y0444300D01*
X0536250Y0449300D01*
X0533750Y0451800D01*
X0536250Y0454300D01*
X0536250Y0459300D01*
X0533750Y0461800D01*
X0536250Y0464300D01*
X0536250Y0469300D01*
X0533750Y0471800D01*
X0528750Y0471800D01*
X0526250Y0469300D01*
X0526250Y0464300D01*
X0528750Y0461800D01*
X0533750Y0461800D01*
X0528750Y0461800D02*
X0526250Y0459300D01*
X0526250Y0454300D01*
X0528750Y0451800D01*
X0533750Y0451800D01*
X0528750Y0451800D02*
X0526250Y0449300D01*
X0526250Y0444300D01*
X0551250Y0444300D02*
X0553750Y0441800D01*
X0558750Y0441800D01*
X0561250Y0444300D01*
X0561250Y0449300D01*
X0558750Y0451800D01*
X0561250Y0454300D01*
X0561250Y0459300D01*
X0558750Y0461800D01*
X0561250Y0464300D01*
X0561250Y0469300D01*
X0558750Y0471800D01*
X0553750Y0471800D01*
X0551250Y0469300D01*
X0551250Y0464300D01*
X0553750Y0461800D01*
X0558750Y0461800D01*
X0553750Y0461800D02*
X0551250Y0459300D01*
X0551250Y0454300D01*
X0553750Y0451800D01*
X0558750Y0451800D01*
X0553750Y0451800D02*
X0551250Y0449300D01*
X0551250Y0444300D01*
X0576250Y0444300D02*
X0578750Y0441800D01*
X0583750Y0441800D01*
X0586250Y0444300D01*
X0586250Y0449300D01*
X0583750Y0451800D01*
X0586250Y0454300D01*
X0586250Y0459300D01*
X0583750Y0461800D01*
X0586250Y0464300D01*
X0586250Y0469300D01*
X0583750Y0471800D01*
X0578750Y0471800D01*
X0576250Y0469300D01*
X0576250Y0464300D01*
X0578750Y0461800D01*
X0583750Y0461800D01*
X0578750Y0461800D02*
X0576250Y0459300D01*
X0576250Y0454300D01*
X0578750Y0451800D01*
X0583750Y0451800D01*
X0578750Y0451800D02*
X0576250Y0449300D01*
X0576250Y0444300D01*
X0656250Y0444300D02*
X0656250Y0449300D01*
X0658750Y0451800D01*
X0673750Y0451800D01*
X0676250Y0454300D01*
X0676250Y0459300D01*
X0673750Y0461800D01*
X0658750Y0461800D01*
X0656250Y0464300D01*
X0656250Y0469300D01*
X0658750Y0471800D01*
X0673750Y0471800D01*
X0676250Y0474300D01*
X0676250Y0479300D01*
X0673750Y0481800D01*
X0676250Y0484300D01*
X0676250Y0489300D01*
X0673750Y0491800D01*
X0658750Y0491800D01*
X0656250Y0489300D01*
X0656250Y0484300D01*
X0658750Y0481800D01*
X0673750Y0481800D01*
X0673750Y0471800D02*
X0676250Y0469300D01*
X0676250Y0464300D01*
X0673750Y0461800D01*
X0673750Y0451800D02*
X0676250Y0449300D01*
X0676250Y0444300D01*
X0673750Y0441800D01*
X0658750Y0441800D01*
X0656250Y0444300D01*
X0658750Y0441800D02*
X0656250Y0439300D01*
X0656250Y0434300D01*
X0658750Y0431800D01*
X0673750Y0431800D01*
X0676250Y0434300D01*
X0676250Y0439300D01*
X0673750Y0441800D01*
X0673750Y0431800D02*
X0676250Y0429300D01*
X0676250Y0424300D01*
X0673750Y0421800D01*
X0658750Y0421800D01*
X0656250Y0424300D01*
X0656250Y0429300D01*
X0658750Y0431800D01*
X0658750Y0421800D02*
X0656250Y0419300D01*
X0656250Y0414300D01*
X0658750Y0411800D01*
X0673750Y0411800D01*
X0676250Y0414300D01*
X0676250Y0419300D01*
X0673750Y0421800D01*
X0658750Y0451800D02*
X0656250Y0454300D01*
X0656250Y0459300D01*
X0658750Y0461800D01*
X0658750Y0471800D02*
X0656250Y0474300D01*
X0656250Y0479300D01*
X0658750Y0481800D01*
X0648750Y0366800D02*
X0643750Y0366800D01*
X0641250Y0364300D01*
X0641250Y0359300D01*
X0643750Y0356800D01*
X0641250Y0354300D01*
X0641250Y0349300D01*
X0643750Y0346800D01*
X0641250Y0344300D01*
X0641250Y0339300D01*
X0643750Y0336800D01*
X0641250Y0334300D01*
X0641250Y0329300D01*
X0643750Y0326800D01*
X0648750Y0326800D01*
X0651250Y0329300D01*
X0651250Y0334300D01*
X0648750Y0336800D01*
X0651250Y0339300D01*
X0651250Y0344300D01*
X0648750Y0346800D01*
X0651250Y0349300D01*
X0651250Y0354300D01*
X0648750Y0356800D01*
X0651250Y0359300D01*
X0651250Y0364300D01*
X0648750Y0366800D01*
X0556250Y0364300D02*
X0556250Y0359300D01*
X0553750Y0356800D01*
X0556250Y0354300D01*
X0556250Y0349300D01*
X0553750Y0346800D01*
X0556250Y0344300D01*
X0556250Y0339300D01*
X0553750Y0336800D01*
X0556250Y0334300D01*
X0556250Y0329300D01*
X0553750Y0326800D01*
X0548750Y0326800D01*
X0546250Y0329300D01*
X0546250Y0334300D01*
X0548750Y0336800D01*
X0546250Y0339300D01*
X0546250Y0344300D01*
X0548750Y0346800D01*
X0546250Y0349300D01*
X0546250Y0354300D01*
X0548750Y0356800D01*
X0546250Y0359300D01*
X0546250Y0364300D01*
X0548750Y0366800D01*
X0553750Y0366800D01*
X0556250Y0364300D01*
X0553750Y0246800D02*
X0556250Y0244300D01*
X0556250Y0239300D01*
X0553750Y0236800D01*
X0556250Y0234300D01*
X0556250Y0229300D01*
X0553750Y0226800D01*
X0556250Y0224300D01*
X0556250Y0219300D01*
X0553750Y0216800D01*
X0556250Y0214300D01*
X0556250Y0209300D01*
X0553750Y0206800D01*
X0548750Y0206800D01*
X0546250Y0209300D01*
X0546250Y0214300D01*
X0548750Y0216800D01*
X0546250Y0219300D01*
X0546250Y0224300D01*
X0548750Y0226800D01*
X0546250Y0229300D01*
X0546250Y0234300D01*
X0548750Y0236800D01*
X0546250Y0239300D01*
X0546250Y0244300D01*
X0548750Y0246800D01*
X0553750Y0246800D01*
X0641250Y0244300D02*
X0641250Y0239300D01*
X0643750Y0236800D01*
X0641250Y0234300D01*
X0641250Y0229300D01*
X0643750Y0226800D01*
X0641250Y0224300D01*
X0641250Y0219300D01*
X0643750Y0216800D01*
X0641250Y0214300D01*
X0641250Y0209300D01*
X0643750Y0206800D01*
X0648750Y0206800D01*
X0651250Y0209300D01*
X0651250Y0214300D01*
X0648750Y0216800D01*
X0651250Y0219300D01*
X0651250Y0224300D01*
X0648750Y0226800D01*
X0651250Y0229300D01*
X0651250Y0234300D01*
X0648750Y0236800D01*
X0651250Y0239300D01*
X0651250Y0244300D01*
X0648750Y0246800D01*
X0643750Y0246800D01*
X0641250Y0244300D01*
X0096250Y0394300D02*
X0096250Y0399300D01*
X0093750Y0401800D01*
X0096250Y0404300D01*
X0096250Y0409300D01*
X0093750Y0411800D01*
X0096250Y0414300D01*
X0096250Y0419300D01*
X0093750Y0421800D01*
X0096250Y0424300D01*
X0096250Y0429300D01*
X0093750Y0431800D01*
X0088750Y0431800D01*
X0086250Y0429300D01*
X0086250Y0424300D01*
X0088750Y0421800D01*
X0086250Y0419300D01*
X0086250Y0414300D01*
X0088750Y0411800D01*
X0086250Y0409300D01*
X0086250Y0404300D01*
X0088750Y0401800D01*
X0086250Y0399300D01*
X0086250Y0394300D01*
X0088750Y0391800D01*
X0093750Y0391800D01*
X0096250Y0394300D01*
X0093750Y0451800D02*
X0096250Y0454300D01*
X0096250Y0459300D01*
X0093750Y0461800D01*
X0096250Y0464300D01*
X0096250Y0469300D01*
X0093750Y0471800D01*
X0096250Y0474300D01*
X0096250Y0479300D01*
X0093750Y0481800D01*
X0096250Y0484300D01*
X0096250Y0489300D01*
X0093750Y0491800D01*
X0088750Y0491800D01*
X0086250Y0489300D01*
X0086250Y0484300D01*
X0088750Y0481800D01*
X0086250Y0479300D01*
X0086250Y0474300D01*
X0088750Y0471800D01*
X0086250Y0469300D01*
X0086250Y0464300D01*
X0088750Y0461800D01*
X0086250Y0459300D01*
X0086250Y0454300D01*
X0088750Y0451800D01*
X0093750Y0451800D01*
D14*
X0093500Y0450553D02*
X0093500Y0447550D01*
X0093500Y0449051D02*
X0088996Y0449051D01*
X0090497Y0447550D01*
X0084500Y0452050D02*
X0084500Y0455053D01*
X0084500Y0456654D02*
X0084500Y0459656D01*
X0084500Y0461258D02*
X0084500Y0463510D01*
X0083749Y0464260D01*
X0080747Y0464260D01*
X0079996Y0463510D01*
X0079996Y0461258D01*
X0084500Y0461258D01*
X0082248Y0458155D02*
X0082248Y0456654D01*
X0079996Y0456654D02*
X0084500Y0456654D01*
X0079996Y0456654D02*
X0079996Y0459656D01*
X0080747Y0465862D02*
X0081497Y0465862D01*
X0082248Y0466612D01*
X0082248Y0468114D01*
X0082999Y0468864D01*
X0083749Y0468864D01*
X0084500Y0468114D01*
X0084500Y0466612D01*
X0083749Y0465862D01*
X0080747Y0465862D02*
X0079996Y0466612D01*
X0079996Y0468114D01*
X0080747Y0468864D01*
X0079996Y0452050D02*
X0084500Y0452050D01*
X0091248Y0436053D02*
X0091248Y0433050D01*
X0088996Y0435302D01*
X0093500Y0435302D01*
X0123098Y0439840D02*
X0123098Y0440791D01*
X0123415Y0441108D01*
X0124049Y0441108D01*
X0124366Y0440791D01*
X0124366Y0439840D01*
X0124366Y0440474D02*
X0125000Y0441108D01*
X0124683Y0442050D02*
X0125000Y0442367D01*
X0125000Y0443001D01*
X0124683Y0443318D01*
X0124049Y0443318D01*
X0123732Y0443001D01*
X0123732Y0442684D01*
X0124049Y0442050D01*
X0123098Y0442050D01*
X0123098Y0443318D01*
X0123098Y0439840D02*
X0125000Y0439840D01*
X0084500Y0401975D02*
X0083749Y0402726D01*
X0084500Y0401975D02*
X0084500Y0400474D01*
X0083749Y0399723D01*
X0080747Y0399723D01*
X0079996Y0400474D01*
X0079996Y0401975D01*
X0080747Y0402726D01*
X0080747Y0398122D02*
X0079996Y0397371D01*
X0079996Y0395870D01*
X0080747Y0395119D01*
X0079996Y0393551D02*
X0079996Y0392050D01*
X0079996Y0392801D02*
X0084500Y0392801D01*
X0084500Y0393551D02*
X0084500Y0392050D01*
X0084500Y0395119D02*
X0081497Y0398122D01*
X0080747Y0398122D01*
X0084500Y0398122D02*
X0084500Y0395119D01*
X0088996Y0389051D02*
X0093500Y0389051D01*
X0093500Y0387550D02*
X0093500Y0390553D01*
X0090497Y0387550D02*
X0088996Y0389051D01*
X0123098Y0394840D02*
X0123098Y0395791D01*
X0123415Y0396108D01*
X0124049Y0396108D01*
X0124366Y0395791D01*
X0124366Y0394840D01*
X0124366Y0395474D02*
X0125000Y0396108D01*
X0124683Y0397050D02*
X0125000Y0397367D01*
X0125000Y0398001D01*
X0124683Y0398318D01*
X0124366Y0398318D01*
X0124049Y0398001D01*
X0124049Y0397050D01*
X0124683Y0397050D01*
X0124049Y0397050D02*
X0123415Y0397684D01*
X0123098Y0398318D01*
X0123098Y0394840D02*
X0125000Y0394840D01*
X0210294Y0373952D02*
X0210928Y0373318D01*
X0211562Y0373952D01*
X0211562Y0372050D01*
X0212504Y0372050D02*
X0213138Y0372050D01*
X0212821Y0372050D02*
X0212821Y0373952D01*
X0212504Y0373952D02*
X0213138Y0373952D01*
X0213977Y0373635D02*
X0213977Y0372367D01*
X0214294Y0372050D01*
X0214928Y0372050D01*
X0215245Y0372367D01*
X0216187Y0372684D02*
X0217138Y0372684D01*
X0217455Y0373001D01*
X0217455Y0373635D01*
X0217138Y0373952D01*
X0216187Y0373952D01*
X0216187Y0372050D01*
X0216821Y0372684D02*
X0217455Y0372050D01*
X0218397Y0372367D02*
X0218714Y0372050D01*
X0219348Y0372050D01*
X0219665Y0372367D01*
X0219665Y0373635D01*
X0219348Y0373952D01*
X0218714Y0373952D01*
X0218397Y0373635D01*
X0218397Y0372367D01*
X0220607Y0372367D02*
X0220607Y0373635D01*
X0220924Y0373952D01*
X0221558Y0373952D01*
X0221875Y0373635D01*
X0222817Y0373635D02*
X0222817Y0372367D01*
X0223134Y0372050D01*
X0223768Y0372050D01*
X0224085Y0372367D01*
X0224085Y0373635D01*
X0223768Y0373952D01*
X0223134Y0373952D01*
X0222817Y0373635D01*
X0221875Y0372367D02*
X0221558Y0372050D01*
X0220924Y0372050D01*
X0220607Y0372367D01*
X0225027Y0372050D02*
X0225027Y0373952D01*
X0226294Y0372050D01*
X0226294Y0373952D01*
X0227237Y0373952D02*
X0228504Y0373952D01*
X0227870Y0373952D02*
X0227870Y0372050D01*
X0229446Y0372050D02*
X0229446Y0373952D01*
X0230397Y0373952D01*
X0230714Y0373635D01*
X0230714Y0373001D01*
X0230397Y0372684D01*
X0229446Y0372684D01*
X0230080Y0372684D02*
X0230714Y0372050D01*
X0231656Y0372367D02*
X0231973Y0372050D01*
X0232607Y0372050D01*
X0232924Y0372367D01*
X0232924Y0373635D01*
X0232607Y0373952D01*
X0231973Y0373952D01*
X0231656Y0373635D01*
X0231656Y0372367D01*
X0233866Y0372050D02*
X0235134Y0372050D01*
X0236076Y0372050D02*
X0237344Y0372050D01*
X0238286Y0372050D02*
X0239554Y0372050D01*
X0240496Y0372050D02*
X0240496Y0373952D01*
X0241447Y0373952D01*
X0241764Y0373635D01*
X0241764Y0373001D01*
X0241447Y0372684D01*
X0240496Y0372684D01*
X0241130Y0372684D02*
X0241764Y0372050D01*
X0239554Y0373952D02*
X0238286Y0373952D01*
X0238286Y0372050D01*
X0238286Y0373001D02*
X0238920Y0373001D01*
X0236076Y0373952D02*
X0236076Y0372050D01*
X0233866Y0372050D02*
X0233866Y0373952D01*
X0238929Y0379850D02*
X0241932Y0379850D01*
X0243533Y0379850D02*
X0243533Y0382853D01*
X0245034Y0384354D01*
X0246536Y0382853D01*
X0246536Y0379850D01*
X0248137Y0380601D02*
X0248888Y0379850D01*
X0250389Y0379850D01*
X0251140Y0380601D01*
X0251140Y0384354D01*
X0252741Y0384354D02*
X0255744Y0379850D01*
X0255744Y0384354D01*
X0257345Y0383603D02*
X0257345Y0380601D01*
X0258096Y0379850D01*
X0259597Y0379850D01*
X0260347Y0380601D01*
X0261949Y0379850D02*
X0261949Y0384354D01*
X0260347Y0383603D02*
X0259597Y0384354D01*
X0258096Y0384354D01*
X0257345Y0383603D01*
X0252741Y0384354D02*
X0252741Y0379850D01*
X0248137Y0380601D02*
X0248137Y0384354D01*
X0246536Y0382102D02*
X0243533Y0382102D01*
X0238929Y0384354D02*
X0238929Y0379850D01*
X0261949Y0382102D02*
X0264951Y0382102D01*
X0266553Y0382102D02*
X0268054Y0382102D01*
X0266553Y0384354D02*
X0266553Y0379850D01*
X0269555Y0379850D01*
X0271157Y0379850D02*
X0271157Y0384354D01*
X0273409Y0384354D01*
X0274159Y0383603D01*
X0274159Y0382102D01*
X0273409Y0381351D01*
X0271157Y0381351D01*
X0272658Y0381351D02*
X0274159Y0379850D01*
X0275761Y0379099D02*
X0278763Y0379099D01*
X0280364Y0379850D02*
X0283367Y0379850D01*
X0284968Y0379850D02*
X0284968Y0384354D01*
X0287971Y0379850D01*
X0287971Y0384354D01*
X0289572Y0383603D02*
X0289572Y0380601D01*
X0290323Y0379850D01*
X0291824Y0379850D01*
X0292575Y0380601D01*
X0294176Y0380601D02*
X0294927Y0379850D01*
X0296428Y0379850D01*
X0297179Y0380601D01*
X0297179Y0383603D01*
X0296428Y0384354D01*
X0294927Y0384354D01*
X0294176Y0383603D01*
X0294176Y0380601D01*
X0292575Y0383603D02*
X0291824Y0384354D01*
X0290323Y0384354D01*
X0289572Y0383603D01*
X0283367Y0384354D02*
X0280364Y0384354D01*
X0280364Y0379850D01*
X0280364Y0382102D02*
X0281866Y0382102D01*
X0269555Y0384354D02*
X0266553Y0384354D01*
X0264951Y0384354D02*
X0264951Y0379850D01*
X0298780Y0379850D02*
X0301032Y0379850D01*
X0301783Y0380601D01*
X0301783Y0383603D01*
X0301032Y0384354D01*
X0298780Y0384354D01*
X0298780Y0379850D01*
X0303384Y0379850D02*
X0306387Y0379850D01*
X0307988Y0379850D02*
X0307988Y0384354D01*
X0310240Y0384354D01*
X0310991Y0383603D01*
X0310991Y0382102D01*
X0310240Y0381351D01*
X0307988Y0381351D01*
X0309489Y0381351D02*
X0310991Y0379850D01*
X0312592Y0382102D02*
X0315595Y0382102D01*
X0317196Y0382853D02*
X0318697Y0384354D01*
X0318697Y0379850D01*
X0317196Y0379850D02*
X0320198Y0379850D01*
X0306387Y0384354D02*
X0303384Y0384354D01*
X0303384Y0379850D01*
X0303384Y0382102D02*
X0304885Y0382102D01*
X0371500Y0404550D02*
X0374503Y0404550D01*
X0373001Y0404550D02*
X0373001Y0409054D01*
X0371500Y0407553D01*
X0376500Y0413550D02*
X0376500Y0416553D01*
X0378001Y0418054D01*
X0379503Y0416553D01*
X0379503Y0413550D01*
X0381104Y0413550D02*
X0381104Y0418054D01*
X0383356Y0418054D01*
X0384106Y0417303D01*
X0384106Y0415802D01*
X0383356Y0415051D01*
X0381104Y0415051D01*
X0379503Y0415802D02*
X0376500Y0415802D01*
X0385708Y0415802D02*
X0388710Y0415802D01*
X0390312Y0418054D02*
X0390312Y0413550D01*
X0391813Y0415051D01*
X0393314Y0413550D01*
X0393314Y0418054D01*
X0394916Y0417303D02*
X0394916Y0414301D01*
X0395666Y0413550D01*
X0397168Y0413550D01*
X0397918Y0414301D01*
X0397918Y0415802D01*
X0396417Y0415802D01*
X0397918Y0417303D02*
X0397168Y0418054D01*
X0395666Y0418054D01*
X0394916Y0417303D01*
X0399520Y0412799D02*
X0402522Y0412799D01*
X0404124Y0413550D02*
X0407126Y0413550D01*
X0405625Y0413550D02*
X0405625Y0418054D01*
X0404124Y0416553D01*
X0397148Y0435550D02*
X0395647Y0435550D01*
X0394896Y0436301D01*
X0394896Y0437051D01*
X0395647Y0437802D01*
X0397148Y0437802D01*
X0397899Y0437051D01*
X0397899Y0436301D01*
X0397148Y0435550D01*
X0397148Y0437802D02*
X0397899Y0438553D01*
X0397899Y0439303D01*
X0397148Y0440054D01*
X0395647Y0440054D01*
X0394896Y0439303D01*
X0394896Y0438553D01*
X0395647Y0437802D01*
X0393295Y0435550D02*
X0390292Y0435550D01*
X0391793Y0435550D02*
X0391793Y0440054D01*
X0390292Y0438553D01*
X0388691Y0439303D02*
X0387940Y0440054D01*
X0385688Y0440054D01*
X0385688Y0435550D01*
X0387940Y0435550D01*
X0388691Y0436301D01*
X0388691Y0439303D01*
X0430896Y0406802D02*
X0433899Y0406802D01*
X0433148Y0409054D02*
X0430896Y0406802D01*
X0433148Y0404550D02*
X0433148Y0409054D01*
X0467292Y0400054D02*
X0470295Y0400054D01*
X0468793Y0400054D02*
X0468793Y0395550D01*
X0471896Y0395550D02*
X0471896Y0400054D01*
X0474148Y0400054D01*
X0474899Y0399303D01*
X0474899Y0398553D01*
X0474148Y0397802D01*
X0471896Y0397802D01*
X0474148Y0397802D02*
X0474899Y0397051D01*
X0474899Y0396301D01*
X0474148Y0395550D01*
X0471896Y0395550D01*
X0476396Y0404550D02*
X0479399Y0404550D01*
X0477897Y0404550D02*
X0477897Y0409054D01*
X0476396Y0407553D01*
X0521250Y0386800D02*
X0521250Y0306800D01*
X0581250Y0306800D01*
X0581250Y0386800D01*
X0521250Y0386800D01*
X0539996Y0368452D02*
X0544500Y0368452D01*
X0544500Y0366951D02*
X0544500Y0369953D01*
X0541497Y0366951D02*
X0539996Y0368452D01*
X0542248Y0365349D02*
X0542248Y0362347D01*
X0544500Y0360745D02*
X0539996Y0360745D01*
X0539996Y0357743D02*
X0544500Y0357743D01*
X0542999Y0359244D01*
X0544500Y0360745D01*
X0544500Y0356141D02*
X0541497Y0356141D01*
X0539996Y0354640D01*
X0541497Y0353139D01*
X0544500Y0353139D01*
X0542248Y0353139D02*
X0542248Y0356141D01*
X0540747Y0351538D02*
X0539996Y0351538D01*
X0540747Y0351538D02*
X0542248Y0350036D01*
X0544500Y0350036D01*
X0542248Y0350036D02*
X0540747Y0348535D01*
X0539996Y0348535D01*
X0545251Y0346934D02*
X0545251Y0343931D01*
X0544500Y0342330D02*
X0544500Y0339327D01*
X0539996Y0339327D01*
X0539996Y0337759D02*
X0539996Y0336258D01*
X0539996Y0337008D02*
X0544500Y0337008D01*
X0544500Y0336258D02*
X0544500Y0337759D01*
X0543749Y0334656D02*
X0540747Y0334656D01*
X0539996Y0333906D01*
X0539996Y0332405D01*
X0540747Y0331654D01*
X0543749Y0331654D01*
X0544500Y0332405D01*
X0544500Y0333906D01*
X0543749Y0334656D01*
X0543749Y0330053D02*
X0544500Y0329302D01*
X0544500Y0327801D01*
X0543749Y0327050D01*
X0540747Y0327050D01*
X0539996Y0327801D01*
X0539996Y0329302D01*
X0540747Y0330053D01*
X0548996Y0324051D02*
X0553500Y0324051D01*
X0553500Y0322550D02*
X0553500Y0325553D01*
X0550497Y0322550D02*
X0548996Y0324051D01*
X0551248Y0368050D02*
X0551248Y0371053D01*
X0548996Y0370302D02*
X0551248Y0368050D01*
X0553500Y0370302D02*
X0548996Y0370302D01*
X0616250Y0386800D02*
X0616250Y0306800D01*
X0676250Y0306800D01*
X0676250Y0386800D01*
X0616250Y0386800D01*
X0634996Y0376125D02*
X0639500Y0376125D01*
X0639500Y0374624D02*
X0639500Y0377626D01*
X0636497Y0374624D02*
X0634996Y0376125D01*
X0637248Y0373023D02*
X0637248Y0370020D01*
X0637248Y0368419D02*
X0637248Y0365416D01*
X0635747Y0363815D02*
X0634996Y0363064D01*
X0634996Y0361563D01*
X0635747Y0360812D01*
X0638749Y0360812D01*
X0639500Y0361563D01*
X0639500Y0363064D01*
X0638749Y0363815D01*
X0639500Y0365416D02*
X0634996Y0365416D01*
X0634996Y0368419D02*
X0639500Y0368419D01*
X0643996Y0370302D02*
X0646248Y0368050D01*
X0646248Y0371053D01*
X0648500Y0370302D02*
X0643996Y0370302D01*
X0634996Y0359211D02*
X0634996Y0356208D01*
X0634996Y0357709D02*
X0639500Y0357709D01*
X0639500Y0354640D02*
X0639500Y0353139D01*
X0639500Y0353890D02*
X0634996Y0353890D01*
X0634996Y0354640D02*
X0634996Y0353139D01*
X0635747Y0351538D02*
X0637248Y0351538D01*
X0637999Y0350787D01*
X0637999Y0348535D01*
X0639500Y0348535D02*
X0634996Y0348535D01*
X0634996Y0350787D01*
X0635747Y0351538D01*
X0640251Y0346934D02*
X0640251Y0343931D01*
X0639500Y0342330D02*
X0639500Y0339327D01*
X0634996Y0339327D01*
X0634996Y0337759D02*
X0634996Y0336258D01*
X0634996Y0337008D02*
X0639500Y0337008D01*
X0639500Y0336258D02*
X0639500Y0337759D01*
X0638749Y0334656D02*
X0635747Y0334656D01*
X0634996Y0333906D01*
X0634996Y0332405D01*
X0635747Y0331654D01*
X0638749Y0331654D01*
X0639500Y0332405D01*
X0639500Y0333906D01*
X0638749Y0334656D01*
X0638749Y0330053D02*
X0639500Y0329302D01*
X0639500Y0327801D01*
X0638749Y0327050D01*
X0635747Y0327050D01*
X0634996Y0327801D01*
X0634996Y0329302D01*
X0635747Y0330053D01*
X0643996Y0324051D02*
X0648500Y0324051D01*
X0648500Y0322550D02*
X0648500Y0325553D01*
X0645497Y0322550D02*
X0643996Y0324051D01*
X0616250Y0266800D02*
X0616250Y0186800D01*
X0676250Y0186800D01*
X0676250Y0266800D01*
X0616250Y0266800D01*
X0634996Y0256876D02*
X0634996Y0255375D01*
X0635747Y0254624D01*
X0637248Y0253023D02*
X0637248Y0250020D01*
X0637248Y0248419D02*
X0637248Y0245416D01*
X0635747Y0243815D02*
X0634996Y0243064D01*
X0634996Y0241563D01*
X0635747Y0240812D01*
X0638749Y0240812D01*
X0639500Y0241563D01*
X0639500Y0243064D01*
X0638749Y0243815D01*
X0639500Y0245416D02*
X0634996Y0245416D01*
X0634996Y0248419D02*
X0639500Y0248419D01*
X0643996Y0250302D02*
X0646248Y0248050D01*
X0646248Y0251053D01*
X0648500Y0250302D02*
X0643996Y0250302D01*
X0639500Y0254624D02*
X0636497Y0257626D01*
X0635747Y0257626D01*
X0634996Y0256876D01*
X0639500Y0257626D02*
X0639500Y0254624D01*
X0634996Y0239211D02*
X0634996Y0236208D01*
X0634996Y0237709D02*
X0639500Y0237709D01*
X0639500Y0234640D02*
X0639500Y0233139D01*
X0639500Y0233890D02*
X0634996Y0233890D01*
X0634996Y0234640D02*
X0634996Y0233139D01*
X0635747Y0231538D02*
X0637248Y0231538D01*
X0637999Y0230787D01*
X0637999Y0228535D01*
X0639500Y0228535D02*
X0634996Y0228535D01*
X0634996Y0230787D01*
X0635747Y0231538D01*
X0640251Y0226934D02*
X0640251Y0223931D01*
X0639500Y0222330D02*
X0639500Y0219327D01*
X0634996Y0219327D01*
X0634996Y0217759D02*
X0634996Y0216258D01*
X0634996Y0217008D02*
X0639500Y0217008D01*
X0639500Y0216258D02*
X0639500Y0217759D01*
X0638749Y0214656D02*
X0635747Y0214656D01*
X0634996Y0213906D01*
X0634996Y0212405D01*
X0635747Y0211654D01*
X0638749Y0211654D01*
X0639500Y0212405D01*
X0639500Y0213906D01*
X0638749Y0214656D01*
X0638749Y0210053D02*
X0639500Y0209302D01*
X0639500Y0207801D01*
X0638749Y0207050D01*
X0635747Y0207050D01*
X0634996Y0207801D01*
X0634996Y0209302D01*
X0635747Y0210053D01*
X0643996Y0204051D02*
X0648500Y0204051D01*
X0648500Y0202550D02*
X0648500Y0205553D01*
X0645497Y0202550D02*
X0643996Y0204051D01*
X0581250Y0186800D02*
X0521250Y0186800D01*
X0521250Y0266800D01*
X0581250Y0266800D01*
X0581250Y0186800D01*
X0553500Y0202550D02*
X0553500Y0205553D01*
X0553500Y0204051D02*
X0548996Y0204051D01*
X0550497Y0202550D01*
X0544500Y0207801D02*
X0544500Y0209302D01*
X0543749Y0210053D01*
X0543749Y0211654D02*
X0544500Y0212405D01*
X0544500Y0213906D01*
X0543749Y0214656D01*
X0540747Y0214656D01*
X0539996Y0213906D01*
X0539996Y0212405D01*
X0540747Y0211654D01*
X0543749Y0211654D01*
X0540747Y0210053D02*
X0539996Y0209302D01*
X0539996Y0207801D01*
X0540747Y0207050D01*
X0543749Y0207050D01*
X0544500Y0207801D01*
X0544500Y0216258D02*
X0544500Y0217759D01*
X0544500Y0217008D02*
X0539996Y0217008D01*
X0539996Y0216258D02*
X0539996Y0217759D01*
X0539996Y0219327D02*
X0544500Y0219327D01*
X0544500Y0222330D01*
X0545251Y0223931D02*
X0545251Y0226934D01*
X0544500Y0230036D02*
X0542248Y0230036D01*
X0540747Y0231538D01*
X0539996Y0231538D01*
X0541497Y0233139D02*
X0539996Y0234640D01*
X0541497Y0236141D01*
X0544500Y0236141D01*
X0544500Y0237743D02*
X0542999Y0239244D01*
X0544500Y0240745D01*
X0539996Y0240745D01*
X0542248Y0242347D02*
X0542248Y0245349D01*
X0540747Y0246951D02*
X0539996Y0247701D01*
X0539996Y0249203D01*
X0540747Y0249953D01*
X0541497Y0249953D01*
X0544500Y0246951D01*
X0544500Y0249953D01*
X0548996Y0250302D02*
X0551248Y0248050D01*
X0551248Y0251053D01*
X0553500Y0250302D02*
X0548996Y0250302D01*
X0544500Y0237743D02*
X0539996Y0237743D01*
X0542248Y0236141D02*
X0542248Y0233139D01*
X0541497Y0233139D02*
X0544500Y0233139D01*
X0542248Y0230036D02*
X0540747Y0228535D01*
X0539996Y0228535D01*
X0521250Y0141800D02*
X0521250Y0061800D01*
X0581250Y0061800D01*
X0581250Y0141800D01*
X0521250Y0141800D01*
X0498806Y0138003D02*
X0498806Y0136502D01*
X0498056Y0135751D01*
X0495804Y0135751D01*
X0495804Y0134250D02*
X0495804Y0138754D01*
X0498056Y0138754D01*
X0498806Y0138003D01*
X0497305Y0135751D02*
X0498806Y0134250D01*
X0494203Y0136502D02*
X0493452Y0135751D01*
X0491200Y0135751D01*
X0491200Y0134250D02*
X0491200Y0138754D01*
X0493452Y0138754D01*
X0494203Y0138003D01*
X0494203Y0136502D01*
X0458873Y0114635D02*
X0458556Y0114952D01*
X0457922Y0114952D01*
X0457605Y0114635D01*
X0456663Y0114635D02*
X0456663Y0114318D01*
X0456346Y0114001D01*
X0456663Y0113684D01*
X0456663Y0113367D01*
X0456346Y0113050D01*
X0455712Y0113050D01*
X0455395Y0113367D01*
X0456029Y0114001D02*
X0456346Y0114001D01*
X0456663Y0114635D02*
X0456346Y0114952D01*
X0455712Y0114952D01*
X0455395Y0114635D01*
X0454453Y0114635D02*
X0454453Y0114001D01*
X0454136Y0113684D01*
X0453185Y0113684D01*
X0453185Y0113050D02*
X0453185Y0114952D01*
X0454136Y0114952D01*
X0454453Y0114635D01*
X0453819Y0113684D02*
X0454453Y0113050D01*
X0457605Y0113050D02*
X0458873Y0114318D01*
X0458873Y0114635D01*
X0458873Y0113050D02*
X0457605Y0113050D01*
X0447660Y0098754D02*
X0446158Y0098754D01*
X0445408Y0098003D01*
X0443806Y0098003D02*
X0443806Y0096502D01*
X0443056Y0095751D01*
X0440804Y0095751D01*
X0440804Y0094250D02*
X0440804Y0098754D01*
X0443056Y0098754D01*
X0443806Y0098003D01*
X0442123Y0098003D02*
X0441372Y0098754D01*
X0439871Y0098754D01*
X0439120Y0098003D01*
X0439203Y0097253D02*
X0439203Y0094250D01*
X0439120Y0094250D02*
X0442123Y0097253D01*
X0442123Y0098003D01*
X0439203Y0097253D02*
X0437701Y0098754D01*
X0436200Y0097253D01*
X0436200Y0094250D01*
X0437519Y0094250D02*
X0437519Y0098754D01*
X0437519Y0096502D02*
X0434516Y0096502D01*
X0436200Y0096502D02*
X0439203Y0096502D01*
X0439120Y0094250D02*
X0442123Y0094250D01*
X0445408Y0094250D02*
X0448410Y0097253D01*
X0448410Y0098003D01*
X0447660Y0098754D01*
X0448410Y0094250D02*
X0445408Y0094250D01*
X0434516Y0094250D02*
X0434516Y0098754D01*
X0432915Y0098003D02*
X0432164Y0098754D01*
X0430663Y0098754D01*
X0429912Y0098003D01*
X0429912Y0095001D01*
X0430663Y0094250D01*
X0432164Y0094250D01*
X0432915Y0095001D01*
X0428311Y0098754D02*
X0425309Y0098754D01*
X0426810Y0098754D02*
X0426810Y0094250D01*
X0423741Y0094250D02*
X0422239Y0094250D01*
X0422990Y0094250D02*
X0422990Y0098754D01*
X0422239Y0098754D02*
X0423741Y0098754D01*
X0420638Y0098003D02*
X0420638Y0096502D01*
X0419887Y0095751D01*
X0417635Y0095751D01*
X0417635Y0094250D02*
X0417635Y0098754D01*
X0419887Y0098754D01*
X0420638Y0098003D01*
X0416034Y0096502D02*
X0413031Y0096502D01*
X0411430Y0096502D02*
X0410679Y0095751D01*
X0408427Y0095751D01*
X0408427Y0094250D02*
X0408427Y0098754D01*
X0410679Y0098754D01*
X0411430Y0098003D01*
X0411430Y0096502D01*
X0409929Y0095751D02*
X0411430Y0094250D01*
X0406826Y0094250D02*
X0403824Y0094250D01*
X0403824Y0098754D01*
X0406826Y0098754D01*
X0405325Y0096502D02*
X0403824Y0096502D01*
X0402222Y0096502D02*
X0399220Y0096502D01*
X0397618Y0098003D02*
X0396868Y0098754D01*
X0395366Y0098754D01*
X0394616Y0098003D01*
X0394616Y0095001D01*
X0395366Y0094250D01*
X0396868Y0094250D01*
X0397618Y0095001D01*
X0399220Y0094250D02*
X0399220Y0098754D01*
X0402222Y0098754D02*
X0402222Y0094250D01*
X0393014Y0094250D02*
X0393014Y0098754D01*
X0390012Y0098754D02*
X0390012Y0094250D01*
X0388410Y0095001D02*
X0388410Y0098754D01*
X0390012Y0098754D02*
X0393014Y0094250D01*
X0388410Y0095001D02*
X0387660Y0094250D01*
X0386158Y0094250D01*
X0385408Y0095001D01*
X0385408Y0098754D01*
X0383806Y0097253D02*
X0383806Y0094250D01*
X0383806Y0096502D02*
X0380804Y0096502D01*
X0380804Y0097253D02*
X0382305Y0098754D01*
X0383806Y0097253D01*
X0380804Y0097253D02*
X0380804Y0094250D01*
X0379450Y0094250D02*
X0376447Y0094250D01*
X0379450Y0097253D01*
X0379450Y0098003D01*
X0378699Y0098754D01*
X0377198Y0098754D01*
X0376447Y0098003D01*
X0376200Y0098754D02*
X0376200Y0094250D01*
X0379203Y0094250D01*
X0374846Y0094250D02*
X0374846Y0098754D01*
X0371843Y0098754D02*
X0371843Y0094250D01*
X0373344Y0095751D01*
X0374846Y0094250D01*
X0370242Y0094250D02*
X0370242Y0097253D01*
X0368741Y0098754D01*
X0367239Y0097253D01*
X0367239Y0094250D01*
X0367239Y0096502D02*
X0370242Y0096502D01*
X0365638Y0098003D02*
X0365638Y0098754D01*
X0365638Y0098003D02*
X0364137Y0096502D01*
X0364137Y0094250D01*
X0364137Y0096502D02*
X0362635Y0098003D01*
X0362635Y0098754D01*
X0361034Y0096502D02*
X0358031Y0096502D01*
X0356430Y0096502D02*
X0355679Y0095751D01*
X0353427Y0095751D01*
X0353427Y0094250D02*
X0353427Y0098754D01*
X0355679Y0098754D01*
X0356430Y0098003D01*
X0356430Y0096502D01*
X0354929Y0095751D02*
X0356430Y0094250D01*
X0351826Y0094250D02*
X0348824Y0094250D01*
X0348824Y0098754D01*
X0351826Y0098754D01*
X0350325Y0096502D02*
X0348824Y0096502D01*
X0347222Y0096502D02*
X0344220Y0096502D01*
X0342618Y0098003D02*
X0341868Y0098754D01*
X0340366Y0098754D01*
X0339616Y0098003D01*
X0339616Y0095001D01*
X0340366Y0094250D01*
X0341868Y0094250D01*
X0342618Y0095001D01*
X0344220Y0094250D02*
X0344220Y0098754D01*
X0342768Y0098967D02*
X0342451Y0098650D01*
X0341817Y0098650D01*
X0341500Y0098967D01*
X0341500Y0099284D01*
X0341817Y0099601D01*
X0342451Y0099601D01*
X0342768Y0099284D01*
X0342768Y0098967D01*
X0342451Y0099601D02*
X0342768Y0099918D01*
X0342768Y0100235D01*
X0342451Y0100552D01*
X0341817Y0100552D01*
X0341500Y0100235D01*
X0341500Y0099918D01*
X0341817Y0099601D01*
X0340558Y0099601D02*
X0340241Y0099284D01*
X0339290Y0099284D01*
X0339924Y0099284D02*
X0340558Y0098650D01*
X0340558Y0099601D02*
X0340558Y0100235D01*
X0340241Y0100552D01*
X0339290Y0100552D01*
X0339290Y0098650D01*
X0338014Y0098754D02*
X0338014Y0094250D01*
X0335012Y0098754D01*
X0335012Y0094250D01*
X0333410Y0095001D02*
X0333410Y0098754D01*
X0330408Y0098754D02*
X0330408Y0095001D01*
X0331158Y0094250D01*
X0332660Y0094250D01*
X0333410Y0095001D01*
X0328806Y0094250D02*
X0328806Y0097253D01*
X0327305Y0098754D01*
X0325804Y0097253D01*
X0325804Y0094250D01*
X0324203Y0094250D02*
X0321200Y0094250D01*
X0321200Y0098754D01*
X0325804Y0096502D02*
X0328806Y0096502D01*
X0347222Y0098754D02*
X0347222Y0094250D01*
X0343556Y0074952D02*
X0343873Y0074635D01*
X0343873Y0074318D01*
X0343556Y0074001D01*
X0342922Y0074001D01*
X0342605Y0074318D01*
X0342605Y0074635D01*
X0342922Y0074952D01*
X0343556Y0074952D01*
X0343556Y0074001D02*
X0343873Y0073684D01*
X0343873Y0073367D01*
X0343556Y0073050D01*
X0342922Y0073050D01*
X0342605Y0073367D01*
X0342605Y0073684D01*
X0342922Y0074001D01*
X0341663Y0073050D02*
X0340395Y0073050D01*
X0341029Y0073050D02*
X0341029Y0074952D01*
X0340395Y0074318D01*
X0339453Y0074635D02*
X0339453Y0074001D01*
X0339136Y0073684D01*
X0338185Y0073684D01*
X0338185Y0073050D02*
X0338185Y0074952D01*
X0339136Y0074952D01*
X0339453Y0074635D01*
X0338819Y0073684D02*
X0339453Y0073050D01*
X0340366Y0058754D02*
X0339616Y0058003D01*
X0339616Y0055001D01*
X0340366Y0054250D01*
X0341868Y0054250D01*
X0342618Y0055001D01*
X0344220Y0054250D02*
X0344220Y0058754D01*
X0342618Y0058003D02*
X0341868Y0058754D01*
X0340366Y0058754D01*
X0338014Y0058754D02*
X0338014Y0054250D01*
X0335012Y0058754D01*
X0335012Y0054250D01*
X0333410Y0055001D02*
X0333410Y0058754D01*
X0330408Y0058754D02*
X0330408Y0055001D01*
X0331158Y0054250D01*
X0332660Y0054250D01*
X0333410Y0055001D01*
X0328806Y0054250D02*
X0328806Y0057253D01*
X0327305Y0058754D01*
X0325804Y0057253D01*
X0325804Y0054250D01*
X0324203Y0054250D02*
X0321200Y0054250D01*
X0321200Y0058754D01*
X0325804Y0056502D02*
X0328806Y0056502D01*
X0344220Y0056502D02*
X0347222Y0056502D01*
X0348824Y0056502D02*
X0350325Y0056502D01*
X0351826Y0058754D02*
X0348824Y0058754D01*
X0348824Y0054250D01*
X0351826Y0054250D01*
X0353427Y0054250D02*
X0353427Y0058754D01*
X0355679Y0058754D01*
X0356430Y0058003D01*
X0356430Y0056502D01*
X0355679Y0055751D01*
X0353427Y0055751D01*
X0354929Y0055751D02*
X0356430Y0054250D01*
X0358031Y0056502D02*
X0361034Y0056502D01*
X0362635Y0058003D02*
X0364137Y0056502D01*
X0364137Y0054250D01*
X0364137Y0056502D02*
X0365638Y0058003D01*
X0365638Y0058754D01*
X0367239Y0057253D02*
X0368741Y0058754D01*
X0370242Y0057253D01*
X0370242Y0054250D01*
X0371843Y0054250D02*
X0373344Y0055751D01*
X0374846Y0054250D01*
X0374846Y0058754D01*
X0376200Y0058754D02*
X0376200Y0054250D01*
X0379203Y0054250D01*
X0378699Y0054250D02*
X0377198Y0054250D01*
X0376447Y0055001D01*
X0377948Y0056502D02*
X0378699Y0056502D01*
X0379450Y0055751D01*
X0379450Y0055001D01*
X0378699Y0054250D01*
X0380804Y0054250D02*
X0380804Y0057253D01*
X0382305Y0058754D01*
X0383806Y0057253D01*
X0383806Y0054250D01*
X0385408Y0055001D02*
X0386158Y0054250D01*
X0387660Y0054250D01*
X0388410Y0055001D01*
X0388410Y0058754D01*
X0390012Y0058754D02*
X0393014Y0054250D01*
X0393014Y0058754D01*
X0394616Y0058003D02*
X0394616Y0055001D01*
X0395366Y0054250D01*
X0396868Y0054250D01*
X0397618Y0055001D01*
X0399220Y0054250D02*
X0399220Y0058754D01*
X0397618Y0058003D02*
X0396868Y0058754D01*
X0395366Y0058754D01*
X0394616Y0058003D01*
X0390012Y0058754D02*
X0390012Y0054250D01*
X0385408Y0055001D02*
X0385408Y0058754D01*
X0383806Y0056502D02*
X0380804Y0056502D01*
X0379450Y0057253D02*
X0378699Y0056502D01*
X0379450Y0057253D02*
X0379450Y0058003D01*
X0378699Y0058754D01*
X0377198Y0058754D01*
X0376447Y0058003D01*
X0371843Y0058754D02*
X0371843Y0054250D01*
X0370242Y0056502D02*
X0367239Y0056502D01*
X0367239Y0057253D02*
X0367239Y0054250D01*
X0362635Y0058003D02*
X0362635Y0058754D01*
X0347222Y0058754D02*
X0347222Y0054250D01*
X0343556Y0034952D02*
X0343873Y0034635D01*
X0342605Y0033367D01*
X0342922Y0033050D01*
X0343556Y0033050D01*
X0343873Y0033367D01*
X0343873Y0034635D01*
X0343556Y0034952D02*
X0342922Y0034952D01*
X0342605Y0034635D01*
X0342605Y0033367D01*
X0341663Y0033367D02*
X0341346Y0033050D01*
X0340712Y0033050D01*
X0340395Y0033367D01*
X0341029Y0034001D02*
X0341346Y0034001D01*
X0341663Y0033684D01*
X0341663Y0033367D01*
X0341346Y0034001D02*
X0341663Y0034318D01*
X0341663Y0034635D01*
X0341346Y0034952D01*
X0340712Y0034952D01*
X0340395Y0034635D01*
X0339453Y0034635D02*
X0339453Y0034001D01*
X0339136Y0033684D01*
X0338185Y0033684D01*
X0338185Y0033050D02*
X0338185Y0034952D01*
X0339136Y0034952D01*
X0339453Y0034635D01*
X0338819Y0033684D02*
X0339453Y0033050D01*
X0303873Y0048367D02*
X0303556Y0048050D01*
X0302922Y0048050D01*
X0302605Y0048367D01*
X0303873Y0049635D01*
X0303873Y0048367D01*
X0303873Y0049635D02*
X0303556Y0049952D01*
X0302922Y0049952D01*
X0302605Y0049635D01*
X0302605Y0048367D01*
X0301663Y0048050D02*
X0300395Y0048050D01*
X0301663Y0049318D01*
X0301663Y0049635D01*
X0301346Y0049952D01*
X0300712Y0049952D01*
X0300395Y0049635D01*
X0299453Y0049635D02*
X0299453Y0049001D01*
X0299136Y0048684D01*
X0298185Y0048684D01*
X0298185Y0048050D02*
X0298185Y0049952D01*
X0299136Y0049952D01*
X0299453Y0049635D01*
X0298819Y0048684D02*
X0299453Y0048050D01*
X0293410Y0074250D02*
X0290408Y0074250D01*
X0291909Y0074250D02*
X0291909Y0078754D01*
X0290408Y0077253D01*
X0288806Y0078754D02*
X0285804Y0078754D01*
X0287305Y0078754D02*
X0287305Y0074250D01*
X0282701Y0074250D02*
X0282701Y0078754D01*
X0281200Y0078754D02*
X0284203Y0078754D01*
X0299290Y0083650D02*
X0299290Y0085552D01*
X0300241Y0085552D01*
X0300558Y0085235D01*
X0300558Y0084601D01*
X0300241Y0084284D01*
X0299290Y0084284D01*
X0299924Y0084284D02*
X0300558Y0083650D01*
X0301500Y0083650D02*
X0301500Y0083967D01*
X0302768Y0085235D01*
X0302768Y0085552D01*
X0301500Y0085552D01*
X0258251Y0085845D02*
X0258251Y0082842D01*
X0256749Y0081241D02*
X0257500Y0080490D01*
X0257500Y0078989D01*
X0256749Y0078238D01*
X0253747Y0081241D01*
X0256749Y0081241D01*
X0253747Y0081241D02*
X0252996Y0080490D01*
X0252996Y0078989D01*
X0253747Y0078238D01*
X0256749Y0078238D01*
X0253747Y0076637D02*
X0256749Y0073634D01*
X0257500Y0073634D01*
X0257500Y0072033D02*
X0257500Y0069030D01*
X0254497Y0072033D01*
X0253747Y0072033D01*
X0252996Y0071282D01*
X0252996Y0069781D01*
X0253747Y0069030D01*
X0252996Y0073634D02*
X0252996Y0076637D01*
X0253747Y0076637D01*
X0258251Y0067429D02*
X0258251Y0064426D01*
X0256749Y0062825D02*
X0257500Y0062074D01*
X0257500Y0060573D01*
X0256749Y0059822D01*
X0253747Y0059822D01*
X0252996Y0060573D01*
X0252996Y0062074D01*
X0253747Y0062825D01*
X0256749Y0062825D01*
X0255999Y0058221D02*
X0252996Y0058221D01*
X0252996Y0055218D02*
X0255999Y0055218D01*
X0257500Y0056720D01*
X0255999Y0058221D01*
X0255248Y0053617D02*
X0255999Y0052866D01*
X0255999Y0050615D01*
X0255999Y0052116D02*
X0257500Y0053617D01*
X0255248Y0053617D02*
X0253747Y0053617D01*
X0252996Y0052866D01*
X0252996Y0050615D01*
X0257500Y0050615D01*
X0257500Y0049013D02*
X0257500Y0046011D01*
X0252996Y0046011D01*
X0252996Y0049013D01*
X0255248Y0047512D02*
X0255248Y0046011D01*
X0255999Y0044409D02*
X0256749Y0044409D01*
X0257500Y0043659D01*
X0257500Y0042157D01*
X0256749Y0041407D01*
X0255248Y0042157D02*
X0254497Y0041407D01*
X0253747Y0041407D01*
X0252996Y0042157D01*
X0252996Y0043659D01*
X0253747Y0044409D01*
X0255248Y0043659D02*
X0255999Y0044409D01*
X0255248Y0043659D02*
X0255248Y0042157D01*
X0255248Y0039805D02*
X0255248Y0036803D01*
X0255248Y0035201D02*
X0255999Y0034451D01*
X0255999Y0032199D01*
X0257500Y0032199D02*
X0252996Y0032199D01*
X0252996Y0034451D01*
X0253747Y0035201D01*
X0255248Y0035201D01*
X0255999Y0033700D02*
X0257500Y0035201D01*
X0255248Y0030597D02*
X0255999Y0029847D01*
X0255999Y0027595D01*
X0257500Y0027595D02*
X0252996Y0027595D01*
X0252996Y0029847D01*
X0253747Y0030597D01*
X0255248Y0030597D01*
X0252996Y0025994D02*
X0257500Y0022991D01*
X0255248Y0021390D02*
X0255999Y0020639D01*
X0255999Y0018387D01*
X0257500Y0018387D02*
X0252996Y0018387D01*
X0252996Y0020639D01*
X0253747Y0021390D01*
X0255248Y0021390D01*
X0255248Y0016786D02*
X0255248Y0013783D01*
X0254497Y0013783D02*
X0252996Y0015284D01*
X0254497Y0016786D01*
X0257500Y0016786D01*
X0257500Y0013783D02*
X0254497Y0013783D01*
X0197500Y0013783D02*
X0194497Y0013783D01*
X0192996Y0015284D01*
X0194497Y0016786D01*
X0197500Y0016786D01*
X0197500Y0018387D02*
X0192996Y0018387D01*
X0192996Y0020639D01*
X0193747Y0021390D01*
X0195248Y0021390D01*
X0195999Y0020639D01*
X0195999Y0018387D01*
X0195248Y0016786D02*
X0195248Y0013783D01*
X0197500Y0022991D02*
X0192996Y0025994D01*
X0192996Y0027595D02*
X0192996Y0029847D01*
X0193747Y0030597D01*
X0195248Y0030597D01*
X0195999Y0029847D01*
X0195999Y0027595D01*
X0197500Y0027595D02*
X0192996Y0027595D01*
X0192996Y0032199D02*
X0192996Y0034451D01*
X0193747Y0035201D01*
X0195248Y0035201D01*
X0195999Y0034451D01*
X0195999Y0032199D01*
X0197500Y0032199D02*
X0192996Y0032199D01*
X0195999Y0033700D02*
X0197500Y0035201D01*
X0195248Y0036803D02*
X0195248Y0039805D01*
X0194497Y0041407D02*
X0195248Y0042157D01*
X0195248Y0043659D01*
X0195999Y0044409D01*
X0196749Y0044409D01*
X0197500Y0043659D01*
X0197500Y0042157D01*
X0196749Y0041407D01*
X0194497Y0041407D02*
X0193747Y0041407D01*
X0192996Y0042157D01*
X0192996Y0043659D01*
X0193747Y0044409D01*
X0192996Y0046011D02*
X0197500Y0046011D01*
X0197500Y0049013D01*
X0197500Y0050615D02*
X0192996Y0050615D01*
X0192996Y0052866D01*
X0193747Y0053617D01*
X0195248Y0053617D01*
X0195999Y0052866D01*
X0195999Y0050615D01*
X0195999Y0052116D02*
X0197500Y0053617D01*
X0195999Y0055218D02*
X0197500Y0056720D01*
X0195999Y0058221D01*
X0192996Y0058221D01*
X0193747Y0059822D02*
X0196749Y0059822D01*
X0197500Y0060573D01*
X0197500Y0062074D01*
X0196749Y0062825D01*
X0193747Y0062825D01*
X0192996Y0062074D01*
X0192996Y0060573D01*
X0193747Y0059822D01*
X0192996Y0055218D02*
X0195999Y0055218D01*
X0192996Y0049013D02*
X0192996Y0046011D01*
X0195248Y0046011D02*
X0195248Y0047512D01*
X0198251Y0064426D02*
X0198251Y0067429D01*
X0197500Y0069030D02*
X0194497Y0072033D01*
X0193747Y0072033D01*
X0192996Y0071282D01*
X0192996Y0069781D01*
X0193747Y0069030D01*
X0197500Y0069030D02*
X0197500Y0072033D01*
X0197500Y0073634D02*
X0196749Y0073634D01*
X0193747Y0076637D01*
X0192996Y0076637D01*
X0192996Y0073634D01*
X0193747Y0078238D02*
X0192996Y0078989D01*
X0192996Y0080490D01*
X0193747Y0081241D01*
X0196749Y0078238D01*
X0197500Y0078989D01*
X0197500Y0080490D01*
X0196749Y0081241D01*
X0193747Y0081241D01*
X0193747Y0078238D02*
X0196749Y0078238D01*
X0198251Y0082842D02*
X0198251Y0085845D01*
X0197500Y0087446D02*
X0194497Y0090448D01*
X0193747Y0090448D01*
X0192996Y0089698D01*
X0192996Y0088197D01*
X0193747Y0087446D01*
X0197500Y0087446D02*
X0197500Y0090448D01*
X0188500Y0092446D02*
X0188500Y0095449D01*
X0188500Y0093947D02*
X0183996Y0093947D01*
X0185497Y0092446D01*
X0186106Y0118550D02*
X0183104Y0118550D01*
X0184605Y0118550D02*
X0184605Y0123054D01*
X0183104Y0121553D01*
X0181503Y0122303D02*
X0180752Y0123054D01*
X0178500Y0123054D01*
X0178500Y0118550D01*
X0180752Y0118550D01*
X0181503Y0119301D01*
X0181503Y0122303D01*
X0187708Y0120802D02*
X0189960Y0120802D01*
X0190710Y0120051D01*
X0190710Y0119301D01*
X0189960Y0118550D01*
X0188458Y0118550D01*
X0187708Y0119301D01*
X0187708Y0120802D01*
X0189209Y0122303D01*
X0190710Y0123054D01*
X0158873Y0143367D02*
X0158873Y0144635D01*
X0158556Y0144952D01*
X0157922Y0144952D01*
X0157605Y0144635D01*
X0157605Y0144318D01*
X0157922Y0144001D01*
X0158873Y0144001D01*
X0158873Y0143367D02*
X0158556Y0143050D01*
X0157922Y0143050D01*
X0157605Y0143367D01*
X0156663Y0143050D02*
X0155395Y0143050D01*
X0156029Y0143050D02*
X0156029Y0144952D01*
X0155395Y0144318D01*
X0154453Y0144635D02*
X0154453Y0144001D01*
X0154136Y0143684D01*
X0153185Y0143684D01*
X0153185Y0143050D02*
X0153185Y0144952D01*
X0154136Y0144952D01*
X0154453Y0144635D01*
X0153819Y0143684D02*
X0154453Y0143050D01*
X0130710Y0123054D02*
X0130710Y0122303D01*
X0127708Y0119301D01*
X0127708Y0118550D01*
X0126106Y0118550D02*
X0123104Y0118550D01*
X0124605Y0118550D02*
X0124605Y0123054D01*
X0123104Y0121553D01*
X0121503Y0122303D02*
X0120752Y0123054D01*
X0118500Y0123054D01*
X0118500Y0118550D01*
X0120752Y0118550D01*
X0121503Y0119301D01*
X0121503Y0122303D01*
X0127708Y0123054D02*
X0130710Y0123054D01*
X0128500Y0095449D02*
X0128500Y0092446D01*
X0128500Y0093947D02*
X0123996Y0093947D01*
X0125497Y0092446D01*
X0132996Y0089698D02*
X0133747Y0090449D01*
X0136749Y0087446D01*
X0137500Y0088197D01*
X0137500Y0089698D01*
X0136749Y0090449D01*
X0133747Y0090449D01*
X0132996Y0089698D02*
X0132996Y0088197D01*
X0133747Y0087446D01*
X0136749Y0087446D01*
X0136749Y0085845D02*
X0135999Y0085845D01*
X0135248Y0085094D01*
X0135248Y0082842D01*
X0136749Y0082842D01*
X0137500Y0083593D01*
X0137500Y0085094D01*
X0136749Y0085845D01*
X0133747Y0084343D02*
X0135248Y0082842D01*
X0134497Y0081241D02*
X0135248Y0080490D01*
X0135999Y0081241D01*
X0136749Y0081241D01*
X0137500Y0080490D01*
X0137500Y0078989D01*
X0136749Y0078238D01*
X0135248Y0079739D02*
X0135248Y0080490D01*
X0134497Y0081241D02*
X0133747Y0081241D01*
X0132996Y0080490D01*
X0132996Y0078989D01*
X0133747Y0078238D01*
X0138251Y0076637D02*
X0138251Y0073634D01*
X0136749Y0072033D02*
X0133747Y0072033D01*
X0132996Y0071282D01*
X0132996Y0069781D01*
X0133747Y0069030D01*
X0136749Y0069030D01*
X0137500Y0069781D01*
X0137500Y0071282D01*
X0136749Y0072033D01*
X0135999Y0067429D02*
X0132996Y0067429D01*
X0132996Y0064426D02*
X0135999Y0064426D01*
X0137500Y0065928D01*
X0135999Y0067429D01*
X0135248Y0062825D02*
X0135999Y0062074D01*
X0135999Y0059822D01*
X0137500Y0059822D02*
X0132996Y0059822D01*
X0132996Y0062074D01*
X0133747Y0062825D01*
X0135248Y0062825D01*
X0135999Y0061324D02*
X0137500Y0062825D01*
X0137500Y0058221D02*
X0137500Y0055218D01*
X0132996Y0055218D01*
X0132996Y0058221D01*
X0135248Y0056720D02*
X0135248Y0055218D01*
X0135999Y0053617D02*
X0136749Y0053617D01*
X0137500Y0052866D01*
X0137500Y0051365D01*
X0136749Y0050615D01*
X0135248Y0051365D02*
X0135248Y0052866D01*
X0135999Y0053617D01*
X0133747Y0053617D02*
X0132996Y0052866D01*
X0132996Y0051365D01*
X0133747Y0050615D01*
X0134497Y0050615D01*
X0135248Y0051365D01*
X0135248Y0049013D02*
X0135248Y0046011D01*
X0135248Y0044409D02*
X0135999Y0043659D01*
X0135999Y0041407D01*
X0137500Y0041407D02*
X0132996Y0041407D01*
X0132996Y0043659D01*
X0133747Y0044409D01*
X0135248Y0044409D01*
X0135248Y0039805D02*
X0135248Y0036803D01*
X0134497Y0036803D02*
X0132996Y0038304D01*
X0134497Y0039805D01*
X0137500Y0039805D01*
X0137500Y0036803D02*
X0134497Y0036803D01*
X0133747Y0084343D02*
X0132996Y0085845D01*
X0238500Y0118550D02*
X0240752Y0118550D01*
X0241503Y0119301D01*
X0241503Y0122303D01*
X0240752Y0123054D01*
X0238500Y0123054D01*
X0238500Y0118550D01*
X0243104Y0118550D02*
X0246106Y0118550D01*
X0244605Y0118550D02*
X0244605Y0123054D01*
X0243104Y0121553D01*
X0247708Y0120802D02*
X0249209Y0121553D01*
X0249960Y0121553D01*
X0250710Y0120802D01*
X0250710Y0119301D01*
X0249960Y0118550D01*
X0248458Y0118550D01*
X0247708Y0119301D01*
X0247708Y0120802D02*
X0247708Y0123054D01*
X0250710Y0123054D01*
X0281200Y0123754D02*
X0284203Y0123754D01*
X0282701Y0123754D02*
X0282701Y0119250D01*
X0287305Y0119250D02*
X0287305Y0123754D01*
X0285804Y0123754D02*
X0288806Y0123754D01*
X0290408Y0123003D02*
X0291158Y0123754D01*
X0292660Y0123754D01*
X0293410Y0123003D01*
X0293410Y0122253D01*
X0290408Y0119250D01*
X0293410Y0119250D01*
X0321200Y0134250D02*
X0321200Y0138754D01*
X0321200Y0134250D02*
X0324203Y0134250D01*
X0325804Y0134250D02*
X0325804Y0137253D01*
X0327305Y0138754D01*
X0328806Y0137253D01*
X0328806Y0134250D01*
X0330408Y0135001D02*
X0331158Y0134250D01*
X0332660Y0134250D01*
X0333410Y0135001D01*
X0333410Y0138754D01*
X0335012Y0138754D02*
X0338014Y0134250D01*
X0338014Y0138754D01*
X0339616Y0138003D02*
X0339616Y0135001D01*
X0340366Y0134250D01*
X0341868Y0134250D01*
X0342618Y0135001D01*
X0344220Y0134250D02*
X0344220Y0138754D01*
X0342618Y0138003D02*
X0341868Y0138754D01*
X0340366Y0138754D01*
X0339616Y0138003D01*
X0335012Y0138754D02*
X0335012Y0134250D01*
X0330408Y0135001D02*
X0330408Y0138754D01*
X0328806Y0136502D02*
X0325804Y0136502D01*
X0344220Y0136502D02*
X0347222Y0136502D01*
X0348824Y0136502D02*
X0350325Y0136502D01*
X0351826Y0138754D02*
X0348824Y0138754D01*
X0348824Y0134250D01*
X0351826Y0134250D01*
X0353427Y0134250D02*
X0353427Y0138754D01*
X0355679Y0138754D01*
X0356430Y0138003D01*
X0356430Y0136502D01*
X0355679Y0135751D01*
X0353427Y0135751D01*
X0354929Y0135751D02*
X0356430Y0134250D01*
X0358031Y0136502D02*
X0361034Y0136502D01*
X0362635Y0138003D02*
X0364137Y0136502D01*
X0364137Y0134250D01*
X0364137Y0136502D02*
X0365638Y0138003D01*
X0365638Y0138754D01*
X0367239Y0137253D02*
X0368741Y0138754D01*
X0370242Y0137253D01*
X0370242Y0134250D01*
X0371843Y0134250D02*
X0373344Y0135751D01*
X0374846Y0134250D01*
X0374846Y0138754D01*
X0376200Y0138754D02*
X0376200Y0134250D01*
X0379203Y0134250D01*
X0379450Y0134250D02*
X0376447Y0134250D01*
X0377948Y0134250D02*
X0377948Y0138754D01*
X0376447Y0137253D01*
X0380804Y0137253D02*
X0382305Y0138754D01*
X0383806Y0137253D01*
X0383806Y0134250D01*
X0385408Y0135001D02*
X0386158Y0134250D01*
X0387660Y0134250D01*
X0388410Y0135001D01*
X0388410Y0138754D01*
X0390012Y0138754D02*
X0393014Y0134250D01*
X0393014Y0138754D01*
X0394616Y0138003D02*
X0394616Y0135001D01*
X0395366Y0134250D01*
X0396868Y0134250D01*
X0397618Y0135001D01*
X0399220Y0134250D02*
X0399220Y0138754D01*
X0397618Y0138003D02*
X0396868Y0138754D01*
X0395366Y0138754D01*
X0394616Y0138003D01*
X0390012Y0138754D02*
X0390012Y0134250D01*
X0385408Y0135001D02*
X0385408Y0138754D01*
X0383806Y0136502D02*
X0380804Y0136502D01*
X0380804Y0137253D02*
X0380804Y0134250D01*
X0371843Y0134250D02*
X0371843Y0138754D01*
X0370242Y0136502D02*
X0367239Y0136502D01*
X0367239Y0137253D02*
X0367239Y0134250D01*
X0362635Y0138003D02*
X0362635Y0138754D01*
X0347222Y0138754D02*
X0347222Y0134250D01*
X0393185Y0114952D02*
X0393185Y0113050D01*
X0393185Y0113684D02*
X0394136Y0113684D01*
X0394453Y0114001D01*
X0394453Y0114635D01*
X0394136Y0114952D01*
X0393185Y0114952D01*
X0393819Y0113684D02*
X0394453Y0113050D01*
X0395395Y0113050D02*
X0396663Y0113050D01*
X0396029Y0113050D02*
X0396029Y0114952D01*
X0395395Y0114318D01*
X0397605Y0114952D02*
X0398873Y0114952D01*
X0398873Y0114635D01*
X0397605Y0113367D01*
X0397605Y0113050D01*
X0402222Y0134250D02*
X0402222Y0138754D01*
X0403824Y0138754D02*
X0403824Y0134250D01*
X0406826Y0134250D01*
X0408427Y0134250D02*
X0408427Y0138754D01*
X0410679Y0138754D01*
X0411430Y0138003D01*
X0411430Y0136502D01*
X0410679Y0135751D01*
X0408427Y0135751D01*
X0409929Y0135751D02*
X0411430Y0134250D01*
X0413031Y0136502D02*
X0416034Y0136502D01*
X0417635Y0135751D02*
X0419887Y0135751D01*
X0420638Y0136502D01*
X0420638Y0138003D01*
X0419887Y0138754D01*
X0417635Y0138754D01*
X0417635Y0134250D01*
X0422239Y0134250D02*
X0423741Y0134250D01*
X0422990Y0134250D02*
X0422990Y0138754D01*
X0422239Y0138754D02*
X0423741Y0138754D01*
X0425309Y0138754D02*
X0428311Y0138754D01*
X0426810Y0138754D02*
X0426810Y0134250D01*
X0429912Y0135001D02*
X0430663Y0134250D01*
X0432164Y0134250D01*
X0432915Y0135001D01*
X0434516Y0134250D02*
X0434516Y0138754D01*
X0432915Y0138003D02*
X0432164Y0138754D01*
X0430663Y0138754D01*
X0429912Y0138003D01*
X0429912Y0135001D01*
X0434516Y0136502D02*
X0437519Y0136502D01*
X0436200Y0136502D02*
X0439203Y0136502D01*
X0439203Y0137253D02*
X0439203Y0134250D01*
X0439120Y0134250D02*
X0442123Y0134250D01*
X0440804Y0134250D02*
X0440804Y0138754D01*
X0443056Y0138754D01*
X0443806Y0138003D01*
X0443806Y0136502D01*
X0443056Y0135751D01*
X0440804Y0135751D01*
X0440622Y0134250D02*
X0440622Y0138754D01*
X0439120Y0137253D01*
X0439203Y0137253D02*
X0437701Y0138754D01*
X0436200Y0137253D01*
X0436200Y0134250D01*
X0437519Y0134250D02*
X0437519Y0138754D01*
X0445408Y0137253D02*
X0446909Y0138754D01*
X0446909Y0134250D01*
X0445408Y0134250D02*
X0448410Y0134250D01*
X0406826Y0138754D02*
X0403824Y0138754D01*
X0403824Y0136502D02*
X0405325Y0136502D01*
X0402222Y0136502D02*
X0399220Y0136502D01*
X0491200Y0097253D02*
X0492701Y0098754D01*
X0494203Y0097253D01*
X0494203Y0094250D01*
X0495804Y0094250D02*
X0495804Y0098754D01*
X0498056Y0098754D01*
X0498806Y0098003D01*
X0498806Y0096502D01*
X0498056Y0095751D01*
X0495804Y0095751D01*
X0497305Y0095751D02*
X0498806Y0094250D01*
X0500408Y0094250D02*
X0500408Y0098754D01*
X0502660Y0098754D01*
X0503410Y0098003D01*
X0503410Y0096502D01*
X0502660Y0095751D01*
X0500408Y0095751D01*
X0501909Y0095751D02*
X0503410Y0094250D01*
X0505012Y0095001D02*
X0505762Y0094250D01*
X0507264Y0094250D01*
X0508014Y0095001D01*
X0508014Y0098003D01*
X0507264Y0098754D01*
X0505762Y0098754D01*
X0505012Y0098003D01*
X0505012Y0095001D01*
X0509616Y0094250D02*
X0509616Y0098754D01*
X0512618Y0098754D02*
X0512618Y0094250D01*
X0511117Y0095751D01*
X0509616Y0094250D01*
X0514220Y0093499D02*
X0517222Y0093499D01*
X0518824Y0095001D02*
X0519574Y0094250D01*
X0521075Y0094250D01*
X0521826Y0095001D01*
X0521826Y0096502D01*
X0520325Y0096502D01*
X0521826Y0098003D02*
X0521075Y0098754D01*
X0519574Y0098754D01*
X0518824Y0098003D01*
X0518824Y0095001D01*
X0523427Y0095751D02*
X0525679Y0095751D01*
X0526430Y0096502D01*
X0526430Y0098003D01*
X0525679Y0098754D01*
X0523427Y0098754D01*
X0523427Y0094250D01*
X0524929Y0095751D02*
X0526430Y0094250D01*
X0528031Y0094250D02*
X0528031Y0097253D01*
X0529533Y0098754D01*
X0531034Y0097253D01*
X0531034Y0094250D01*
X0532635Y0094250D02*
X0532635Y0098754D01*
X0534887Y0098754D01*
X0535638Y0098003D01*
X0535638Y0097253D01*
X0534887Y0096502D01*
X0532635Y0096502D01*
X0531034Y0096502D02*
X0528031Y0096502D01*
X0532635Y0094250D02*
X0534887Y0094250D01*
X0535638Y0095001D01*
X0535638Y0095751D01*
X0534887Y0096502D01*
X0537239Y0096502D02*
X0539491Y0096502D01*
X0540242Y0095751D01*
X0540242Y0095001D01*
X0539491Y0094250D01*
X0537239Y0094250D01*
X0537239Y0098754D01*
X0539491Y0098754D01*
X0540242Y0098003D01*
X0540242Y0097253D01*
X0539491Y0096502D01*
X0539996Y0094327D02*
X0544500Y0094327D01*
X0544500Y0097330D01*
X0544912Y0098754D02*
X0544912Y0094250D01*
X0544500Y0092759D02*
X0544500Y0091258D01*
X0544500Y0092008D02*
X0539996Y0092008D01*
X0539996Y0091258D02*
X0539996Y0092759D01*
X0541843Y0094250D02*
X0543344Y0094250D01*
X0542594Y0094250D02*
X0542594Y0098754D01*
X0543344Y0098754D02*
X0541843Y0098754D01*
X0544912Y0098754D02*
X0547915Y0094250D01*
X0547915Y0098754D01*
X0549516Y0098003D02*
X0550267Y0098754D01*
X0551768Y0098754D01*
X0552519Y0098003D01*
X0552519Y0096502D02*
X0551018Y0096502D01*
X0552519Y0096502D02*
X0552519Y0095001D01*
X0551768Y0094250D01*
X0550267Y0094250D01*
X0549516Y0095001D01*
X0549516Y0098003D01*
X0545251Y0098931D02*
X0545251Y0101934D01*
X0544500Y0105036D02*
X0542248Y0105036D01*
X0540747Y0106538D01*
X0539996Y0106538D01*
X0541497Y0108139D02*
X0539996Y0109640D01*
X0541497Y0111141D01*
X0544500Y0111141D01*
X0544500Y0112743D02*
X0542999Y0114244D01*
X0544500Y0115745D01*
X0539996Y0115745D01*
X0542248Y0117347D02*
X0542248Y0120349D01*
X0540747Y0121951D02*
X0539996Y0122701D01*
X0539996Y0124203D01*
X0540747Y0124953D01*
X0541497Y0124953D01*
X0542248Y0124203D01*
X0542999Y0124953D01*
X0543749Y0124953D01*
X0544500Y0124203D01*
X0544500Y0122701D01*
X0543749Y0121951D01*
X0542248Y0123452D02*
X0542248Y0124203D01*
X0548996Y0125302D02*
X0551248Y0123050D01*
X0551248Y0126053D01*
X0553500Y0125302D02*
X0548996Y0125302D01*
X0544500Y0112743D02*
X0539996Y0112743D01*
X0542248Y0111141D02*
X0542248Y0108139D01*
X0541497Y0108139D02*
X0544500Y0108139D01*
X0542248Y0105036D02*
X0540747Y0103535D01*
X0539996Y0103535D01*
X0540747Y0089656D02*
X0539996Y0088906D01*
X0539996Y0087405D01*
X0540747Y0086654D01*
X0543749Y0086654D01*
X0544500Y0087405D01*
X0544500Y0088906D01*
X0543749Y0089656D01*
X0540747Y0089656D01*
X0540747Y0085053D02*
X0539996Y0084302D01*
X0539996Y0082801D01*
X0540747Y0082050D01*
X0543749Y0082050D01*
X0544500Y0082801D01*
X0544500Y0084302D01*
X0543749Y0085053D01*
X0548996Y0079051D02*
X0553500Y0079051D01*
X0553500Y0077550D02*
X0553500Y0080553D01*
X0550497Y0077550D02*
X0548996Y0079051D01*
X0494203Y0096502D02*
X0491200Y0096502D01*
X0491200Y0097253D02*
X0491200Y0094250D01*
X0458873Y0074635D02*
X0458873Y0074318D01*
X0458556Y0074001D01*
X0458873Y0073684D01*
X0458873Y0073367D01*
X0458556Y0073050D01*
X0457922Y0073050D01*
X0457605Y0073367D01*
X0458239Y0074001D02*
X0458556Y0074001D01*
X0458873Y0074635D02*
X0458556Y0074952D01*
X0457922Y0074952D01*
X0457605Y0074635D01*
X0456663Y0074635D02*
X0456663Y0074318D01*
X0456346Y0074001D01*
X0456663Y0073684D01*
X0456663Y0073367D01*
X0456346Y0073050D01*
X0455712Y0073050D01*
X0455395Y0073367D01*
X0456029Y0074001D02*
X0456346Y0074001D01*
X0456663Y0074635D02*
X0456346Y0074952D01*
X0455712Y0074952D01*
X0455395Y0074635D01*
X0454453Y0074635D02*
X0454453Y0074001D01*
X0454136Y0073684D01*
X0453185Y0073684D01*
X0453185Y0073050D02*
X0453185Y0074952D01*
X0454136Y0074952D01*
X0454453Y0074635D01*
X0453819Y0073684D02*
X0454453Y0073050D01*
X0454616Y0058754D02*
X0454616Y0054250D01*
X0456117Y0055751D01*
X0457618Y0054250D01*
X0457618Y0058754D01*
X0453014Y0058003D02*
X0453014Y0055001D01*
X0452264Y0054250D01*
X0450762Y0054250D01*
X0450012Y0055001D01*
X0450012Y0058003D01*
X0450762Y0058754D01*
X0452264Y0058754D01*
X0453014Y0058003D01*
X0448410Y0058003D02*
X0448410Y0056502D01*
X0447660Y0055751D01*
X0445408Y0055751D01*
X0445408Y0054250D02*
X0445408Y0058754D01*
X0447660Y0058754D01*
X0448410Y0058003D01*
X0446909Y0055751D02*
X0448410Y0054250D01*
X0443806Y0054250D02*
X0442305Y0055751D01*
X0442123Y0055751D02*
X0442123Y0055001D01*
X0441372Y0054250D01*
X0439871Y0054250D01*
X0439120Y0055001D01*
X0439203Y0054250D02*
X0439203Y0057253D01*
X0437701Y0058754D01*
X0436200Y0057253D01*
X0436200Y0054250D01*
X0437519Y0054250D02*
X0437519Y0058754D01*
X0439120Y0058003D02*
X0439871Y0058754D01*
X0441372Y0058754D01*
X0442123Y0058003D01*
X0442123Y0057253D01*
X0441372Y0056502D01*
X0442123Y0055751D01*
X0443056Y0055751D02*
X0440804Y0055751D01*
X0440622Y0056502D02*
X0441372Y0056502D01*
X0443056Y0055751D02*
X0443806Y0056502D01*
X0443806Y0058003D01*
X0443056Y0058754D01*
X0440804Y0058754D01*
X0440804Y0054250D01*
X0439203Y0056502D02*
X0436200Y0056502D01*
X0437519Y0056502D02*
X0434516Y0056502D01*
X0432915Y0058003D02*
X0432164Y0058754D01*
X0430663Y0058754D01*
X0429912Y0058003D01*
X0429912Y0055001D01*
X0430663Y0054250D01*
X0432164Y0054250D01*
X0432915Y0055001D01*
X0434516Y0054250D02*
X0434516Y0058754D01*
X0428311Y0058754D02*
X0425309Y0058754D01*
X0426810Y0058754D02*
X0426810Y0054250D01*
X0423741Y0054250D02*
X0422239Y0054250D01*
X0422990Y0054250D02*
X0422990Y0058754D01*
X0422239Y0058754D02*
X0423741Y0058754D01*
X0420638Y0058003D02*
X0420638Y0056502D01*
X0419887Y0055751D01*
X0417635Y0055751D01*
X0417635Y0054250D02*
X0417635Y0058754D01*
X0419887Y0058754D01*
X0420638Y0058003D01*
X0416034Y0056502D02*
X0413031Y0056502D01*
X0411430Y0056502D02*
X0410679Y0055751D01*
X0408427Y0055751D01*
X0408427Y0054250D02*
X0408427Y0058754D01*
X0410679Y0058754D01*
X0411430Y0058003D01*
X0411430Y0056502D01*
X0409929Y0055751D02*
X0411430Y0054250D01*
X0406826Y0054250D02*
X0403824Y0054250D01*
X0403824Y0058754D01*
X0406826Y0058754D01*
X0405325Y0056502D02*
X0403824Y0056502D01*
X0402222Y0056502D02*
X0399220Y0056502D01*
X0402222Y0058754D02*
X0402222Y0054250D01*
X0398556Y0073050D02*
X0398873Y0073367D01*
X0398873Y0074635D01*
X0398556Y0074952D01*
X0397922Y0074952D01*
X0397605Y0074635D01*
X0397605Y0074318D01*
X0397922Y0074001D01*
X0398873Y0074001D01*
X0398556Y0073050D02*
X0397922Y0073050D01*
X0397605Y0073367D01*
X0396663Y0073050D02*
X0395395Y0073050D01*
X0396663Y0074318D01*
X0396663Y0074635D01*
X0396346Y0074952D01*
X0395712Y0074952D01*
X0395395Y0074635D01*
X0394453Y0074635D02*
X0394453Y0074001D01*
X0394136Y0073684D01*
X0393185Y0073684D01*
X0393185Y0073050D02*
X0393185Y0074952D01*
X0394136Y0074952D01*
X0394453Y0074635D01*
X0393819Y0073684D02*
X0394453Y0073050D01*
X0394136Y0034952D02*
X0394453Y0034635D01*
X0394453Y0034001D01*
X0394136Y0033684D01*
X0393185Y0033684D01*
X0393185Y0033050D02*
X0393185Y0034952D01*
X0394136Y0034952D01*
X0395395Y0034635D02*
X0395712Y0034952D01*
X0396346Y0034952D01*
X0396663Y0034635D01*
X0396663Y0034318D01*
X0396346Y0034001D01*
X0396663Y0033684D01*
X0396663Y0033367D01*
X0396346Y0033050D01*
X0395712Y0033050D01*
X0395395Y0033367D01*
X0396029Y0034001D02*
X0396346Y0034001D01*
X0397605Y0034318D02*
X0398239Y0034952D01*
X0398239Y0033050D01*
X0397605Y0033050D02*
X0398873Y0033050D01*
X0394453Y0033050D02*
X0393819Y0033684D01*
X0456200Y0034250D02*
X0458452Y0034250D01*
X0459203Y0035001D01*
X0459203Y0038003D01*
X0458452Y0038754D01*
X0456200Y0038754D01*
X0456200Y0034250D01*
X0460804Y0035001D02*
X0461555Y0034250D01*
X0463056Y0034250D01*
X0463806Y0035001D01*
X0465408Y0036502D02*
X0468410Y0036502D01*
X0470012Y0038754D02*
X0470012Y0034250D01*
X0472264Y0034250D01*
X0473014Y0035001D01*
X0473014Y0038003D01*
X0472264Y0038754D01*
X0470012Y0038754D01*
X0474616Y0038003D02*
X0474616Y0035001D01*
X0475366Y0034250D01*
X0476868Y0034250D01*
X0477618Y0035001D01*
X0479220Y0036502D02*
X0482222Y0036502D01*
X0483824Y0038003D02*
X0484574Y0038754D01*
X0486075Y0038754D01*
X0486826Y0038003D01*
X0486826Y0037253D01*
X0483824Y0034250D01*
X0486826Y0034250D01*
X0477618Y0038003D02*
X0476868Y0038754D01*
X0475366Y0038754D01*
X0474616Y0038003D01*
X0463806Y0038003D02*
X0463056Y0038754D01*
X0461555Y0038754D01*
X0460804Y0038003D01*
X0460804Y0035001D01*
X0462222Y0053499D02*
X0459220Y0053499D01*
X0463824Y0055001D02*
X0464574Y0054250D01*
X0466075Y0054250D01*
X0466826Y0055001D01*
X0466826Y0055751D01*
X0466075Y0056502D01*
X0464574Y0056502D01*
X0463824Y0057253D01*
X0463824Y0058003D01*
X0464574Y0058754D01*
X0466075Y0058754D01*
X0466826Y0058003D01*
X0468427Y0058754D02*
X0468427Y0054250D01*
X0471430Y0054250D01*
X0473031Y0054250D02*
X0474533Y0054250D01*
X0473782Y0054250D02*
X0473782Y0058754D01*
X0473031Y0058754D02*
X0474533Y0058754D01*
X0476101Y0058754D02*
X0478353Y0058754D01*
X0479103Y0058003D01*
X0479103Y0055001D01*
X0478353Y0054250D01*
X0476101Y0054250D01*
X0476101Y0058754D01*
X0480705Y0058754D02*
X0482206Y0058754D01*
X0481455Y0058754D02*
X0481455Y0054250D01*
X0480705Y0054250D02*
X0482206Y0054250D01*
X0483774Y0054250D02*
X0485275Y0054250D01*
X0484525Y0054250D02*
X0484525Y0058754D01*
X0485275Y0058754D02*
X0483774Y0058754D01*
X0486843Y0058754D02*
X0489846Y0054250D01*
X0489846Y0058754D01*
X0491447Y0058003D02*
X0491447Y0055001D01*
X0492198Y0054250D01*
X0493699Y0054250D01*
X0494450Y0055001D01*
X0494450Y0056502D01*
X0492948Y0056502D01*
X0491447Y0058003D02*
X0492198Y0058754D01*
X0493699Y0058754D01*
X0494450Y0058003D01*
X0486843Y0058754D02*
X0486843Y0054250D01*
X0506200Y0038754D02*
X0508452Y0038754D01*
X0509203Y0038003D01*
X0509203Y0035001D01*
X0508452Y0034250D01*
X0506200Y0034250D01*
X0506200Y0038754D01*
X0510804Y0038003D02*
X0510804Y0035001D01*
X0511555Y0034250D01*
X0513056Y0034250D01*
X0513806Y0035001D01*
X0515408Y0036502D02*
X0518410Y0036502D01*
X0520012Y0038754D02*
X0522264Y0038754D01*
X0523014Y0038003D01*
X0523014Y0035001D01*
X0522264Y0034250D01*
X0520012Y0034250D01*
X0520012Y0038754D01*
X0524616Y0038003D02*
X0524616Y0035001D01*
X0525366Y0034250D01*
X0526868Y0034250D01*
X0527618Y0035001D01*
X0529220Y0036502D02*
X0532222Y0036502D01*
X0533824Y0037253D02*
X0535325Y0038754D01*
X0535325Y0034250D01*
X0533824Y0034250D02*
X0536826Y0034250D01*
X0527618Y0038003D02*
X0526868Y0038754D01*
X0525366Y0038754D01*
X0524616Y0038003D01*
X0513806Y0038003D02*
X0513056Y0038754D01*
X0511555Y0038754D01*
X0510804Y0038003D01*
X0571200Y0037253D02*
X0572701Y0038754D01*
X0572701Y0034250D01*
X0571200Y0034250D02*
X0574203Y0034250D01*
X0575804Y0034250D02*
X0578806Y0037253D01*
X0578806Y0038003D01*
X0578056Y0038754D01*
X0576555Y0038754D01*
X0575804Y0038003D01*
X0575804Y0034250D02*
X0578806Y0034250D01*
X0580408Y0035751D02*
X0581909Y0034250D01*
X0583410Y0035751D01*
X0583410Y0038754D01*
X0580408Y0038754D02*
X0580408Y0035751D01*
X0616250Y0061800D02*
X0676250Y0061800D01*
X0676250Y0141800D01*
X0616250Y0141800D01*
X0616250Y0061800D01*
X0635747Y0082050D02*
X0638749Y0082050D01*
X0639500Y0082801D01*
X0639500Y0084302D01*
X0638749Y0085053D01*
X0638749Y0086654D02*
X0639500Y0087405D01*
X0639500Y0088906D01*
X0638749Y0089656D01*
X0635747Y0089656D01*
X0634996Y0088906D01*
X0634996Y0087405D01*
X0635747Y0086654D01*
X0638749Y0086654D01*
X0635747Y0085053D02*
X0634996Y0084302D01*
X0634996Y0082801D01*
X0635747Y0082050D01*
X0643996Y0079051D02*
X0645497Y0077550D01*
X0643996Y0079051D02*
X0648500Y0079051D01*
X0648500Y0077550D02*
X0648500Y0080553D01*
X0639500Y0091258D02*
X0639500Y0092759D01*
X0639500Y0092008D02*
X0634996Y0092008D01*
X0634996Y0091258D02*
X0634996Y0092759D01*
X0634996Y0094327D02*
X0639500Y0094327D01*
X0639500Y0097330D01*
X0640251Y0098931D02*
X0640251Y0101934D01*
X0639500Y0103535D02*
X0634996Y0103535D01*
X0634996Y0105787D01*
X0635747Y0106538D01*
X0637248Y0106538D01*
X0637999Y0105787D01*
X0637999Y0103535D01*
X0639500Y0108139D02*
X0639500Y0109640D01*
X0639500Y0108890D02*
X0634996Y0108890D01*
X0634996Y0109640D02*
X0634996Y0108139D01*
X0634996Y0111208D02*
X0634996Y0114211D01*
X0634996Y0112709D02*
X0639500Y0112709D01*
X0638749Y0115812D02*
X0639500Y0116563D01*
X0639500Y0118064D01*
X0638749Y0118815D01*
X0639500Y0120416D02*
X0634996Y0120416D01*
X0635747Y0118815D02*
X0634996Y0118064D01*
X0634996Y0116563D01*
X0635747Y0115812D01*
X0638749Y0115812D01*
X0637248Y0120416D02*
X0637248Y0123419D01*
X0637248Y0125020D02*
X0637248Y0128023D01*
X0635747Y0129624D02*
X0634996Y0130375D01*
X0634996Y0131876D01*
X0635747Y0132626D01*
X0636497Y0132626D01*
X0637248Y0131876D01*
X0637999Y0132626D01*
X0638749Y0132626D01*
X0639500Y0131876D01*
X0639500Y0130375D01*
X0638749Y0129624D01*
X0637248Y0131125D02*
X0637248Y0131876D01*
X0643996Y0125302D02*
X0646248Y0123050D01*
X0646248Y0126053D01*
X0648500Y0125302D02*
X0643996Y0125302D01*
X0639500Y0123419D02*
X0634996Y0123419D01*
X0646951Y0038754D02*
X0646200Y0038003D01*
X0646951Y0038754D02*
X0648452Y0038754D01*
X0649203Y0038003D01*
X0649203Y0037253D01*
X0646200Y0034250D01*
X0649203Y0034250D01*
X0650804Y0036502D02*
X0653806Y0036502D01*
X0655408Y0035751D02*
X0655408Y0038754D01*
X0653056Y0038754D02*
X0650804Y0036502D01*
X0653056Y0034250D02*
X0653056Y0038754D01*
X0655408Y0035751D02*
X0656909Y0034250D01*
X0658410Y0035751D01*
X0658410Y0038754D01*
X0346631Y0229301D02*
X0345880Y0228550D01*
X0344379Y0228550D01*
X0343628Y0229301D01*
X0345129Y0230802D02*
X0345880Y0230802D01*
X0346631Y0230051D01*
X0346631Y0229301D01*
X0345880Y0230802D02*
X0346631Y0231553D01*
X0346631Y0232303D01*
X0345880Y0233054D01*
X0344379Y0233054D01*
X0343628Y0232303D01*
X0342027Y0227799D02*
X0339024Y0227799D01*
X0337423Y0229301D02*
X0337423Y0230802D01*
X0335922Y0230802D01*
X0337423Y0232303D02*
X0336672Y0233054D01*
X0335171Y0233054D01*
X0334420Y0232303D01*
X0334420Y0229301D01*
X0335171Y0228550D01*
X0336672Y0228550D01*
X0337423Y0229301D01*
X0332819Y0228550D02*
X0332819Y0233054D01*
X0329816Y0233054D02*
X0329816Y0228550D01*
X0331318Y0230051D01*
X0332819Y0228550D01*
X0328215Y0230802D02*
X0325212Y0230802D01*
X0323611Y0233054D02*
X0320609Y0233054D01*
X0322110Y0233054D02*
X0322110Y0228550D01*
X0317506Y0228550D02*
X0317506Y0233054D01*
X0316005Y0233054D02*
X0319007Y0233054D01*
X0314403Y0233054D02*
X0311401Y0228550D01*
X0309799Y0229301D02*
X0309799Y0230802D01*
X0308298Y0230802D01*
X0306797Y0232303D02*
X0306797Y0229301D01*
X0307547Y0228550D01*
X0309049Y0228550D01*
X0309799Y0229301D01*
X0309799Y0232303D02*
X0309049Y0233054D01*
X0307547Y0233054D01*
X0306797Y0232303D01*
X0305195Y0233054D02*
X0305195Y0228550D01*
X0302193Y0233054D01*
X0302193Y0228550D01*
X0300625Y0228550D02*
X0299124Y0228550D01*
X0299874Y0228550D02*
X0299874Y0233054D01*
X0299124Y0233054D02*
X0300625Y0233054D01*
X0297522Y0233054D02*
X0297522Y0228550D01*
X0297522Y0230802D02*
X0294520Y0230802D01*
X0292918Y0232303D02*
X0292168Y0233054D01*
X0290666Y0233054D01*
X0289916Y0232303D01*
X0289916Y0229301D01*
X0290666Y0228550D01*
X0292168Y0228550D01*
X0292918Y0229301D01*
X0294520Y0228550D02*
X0294520Y0233054D01*
X0288314Y0233054D02*
X0288314Y0228550D01*
X0285312Y0233054D01*
X0285312Y0228550D01*
X0283710Y0229301D02*
X0283710Y0233054D01*
X0280708Y0233054D02*
X0280708Y0229301D01*
X0281458Y0228550D01*
X0282960Y0228550D01*
X0283710Y0229301D01*
X0279106Y0228550D02*
X0279106Y0231553D01*
X0277605Y0233054D01*
X0276104Y0231553D01*
X0276104Y0228550D01*
X0274503Y0228550D02*
X0271500Y0228550D01*
X0271500Y0233054D01*
X0276104Y0230802D02*
X0279106Y0230802D01*
X0268001Y0224054D02*
X0268001Y0219550D01*
X0266500Y0219550D02*
X0269503Y0219550D01*
X0266500Y0222553D02*
X0268001Y0224054D01*
X0237899Y0224303D02*
X0237899Y0223553D01*
X0237148Y0222802D01*
X0237899Y0222051D01*
X0237899Y0221301D01*
X0237148Y0220550D01*
X0235647Y0220550D01*
X0234896Y0221301D01*
X0233295Y0220550D02*
X0230292Y0220550D01*
X0231793Y0220550D02*
X0231793Y0225054D01*
X0230292Y0223553D01*
X0228691Y0224303D02*
X0227940Y0225054D01*
X0225688Y0225054D01*
X0225688Y0220550D01*
X0227940Y0220550D01*
X0228691Y0221301D01*
X0228691Y0224303D01*
X0234896Y0224303D02*
X0235647Y0225054D01*
X0237148Y0225054D01*
X0237899Y0224303D01*
X0237148Y0222802D02*
X0236397Y0222802D01*
X0237148Y0205054D02*
X0234896Y0202802D01*
X0237899Y0202802D01*
X0237148Y0200550D02*
X0237148Y0205054D01*
X0231793Y0205054D02*
X0231793Y0200550D01*
X0230292Y0200550D02*
X0233295Y0200550D01*
X0230292Y0203553D02*
X0231793Y0205054D01*
X0228691Y0204303D02*
X0227940Y0205054D01*
X0225688Y0205054D01*
X0225688Y0200550D01*
X0227940Y0200550D01*
X0228691Y0201301D01*
X0228691Y0204303D01*
X0227940Y0240550D02*
X0225688Y0240550D01*
X0225688Y0245054D01*
X0227940Y0245054D01*
X0228691Y0244303D01*
X0228691Y0241301D01*
X0227940Y0240550D01*
X0230292Y0240550D02*
X0233295Y0240550D01*
X0231793Y0240550D02*
X0231793Y0245054D01*
X0230292Y0243553D01*
X0234896Y0243553D02*
X0236397Y0245054D01*
X0236397Y0240550D01*
X0234896Y0240550D02*
X0237899Y0240550D01*
X0237899Y0260550D02*
X0234896Y0260550D01*
X0237899Y0263553D01*
X0237899Y0264303D01*
X0237148Y0265054D01*
X0235647Y0265054D01*
X0234896Y0264303D01*
X0231793Y0265054D02*
X0231793Y0260550D01*
X0230292Y0260550D02*
X0233295Y0260550D01*
X0230292Y0263553D02*
X0231793Y0265054D01*
X0228691Y0264303D02*
X0227940Y0265054D01*
X0225688Y0265054D01*
X0225688Y0260550D01*
X0227940Y0260550D01*
X0228691Y0261301D01*
X0228691Y0264303D01*
X0230292Y0280550D02*
X0232544Y0280550D01*
X0233295Y0281301D01*
X0233295Y0284303D01*
X0232544Y0285054D01*
X0230292Y0285054D01*
X0230292Y0280550D01*
X0234896Y0281301D02*
X0235647Y0280550D01*
X0237148Y0280550D01*
X0237899Y0281301D01*
X0237899Y0284303D01*
X0237148Y0285054D01*
X0235647Y0285054D01*
X0234896Y0284303D01*
X0234896Y0283553D01*
X0235647Y0282802D01*
X0237899Y0282802D01*
X0237148Y0300550D02*
X0235647Y0300550D01*
X0234896Y0301301D01*
X0237899Y0304303D01*
X0237899Y0301301D01*
X0237148Y0300550D01*
X0234896Y0301301D02*
X0234896Y0304303D01*
X0235647Y0305054D01*
X0237148Y0305054D01*
X0237899Y0304303D01*
X0233295Y0300550D02*
X0230292Y0300550D01*
X0231793Y0300550D02*
X0231793Y0305054D01*
X0230292Y0303553D01*
X0228691Y0304303D02*
X0227940Y0305054D01*
X0225688Y0305054D01*
X0225688Y0300550D01*
X0227940Y0300550D01*
X0228691Y0301301D01*
X0228691Y0304303D01*
X0266500Y0302553D02*
X0268001Y0304054D01*
X0268001Y0299550D01*
X0266500Y0299550D02*
X0269503Y0299550D01*
X0271500Y0308550D02*
X0274503Y0308550D01*
X0276104Y0308550D02*
X0276104Y0311553D01*
X0277605Y0313054D01*
X0279106Y0311553D01*
X0279106Y0308550D01*
X0280708Y0309301D02*
X0281458Y0308550D01*
X0282960Y0308550D01*
X0283710Y0309301D01*
X0283710Y0313054D01*
X0285312Y0313054D02*
X0288314Y0308550D01*
X0288314Y0313054D01*
X0289916Y0312303D02*
X0289916Y0309301D01*
X0290666Y0308550D01*
X0292168Y0308550D01*
X0292918Y0309301D01*
X0294520Y0308550D02*
X0294520Y0313054D01*
X0292918Y0312303D02*
X0292168Y0313054D01*
X0290666Y0313054D01*
X0289916Y0312303D01*
X0285312Y0313054D02*
X0285312Y0308550D01*
X0280708Y0309301D02*
X0280708Y0313054D01*
X0279106Y0310802D02*
X0276104Y0310802D01*
X0271500Y0313054D02*
X0271500Y0308550D01*
X0294520Y0310802D02*
X0297522Y0310802D01*
X0297522Y0313054D02*
X0297522Y0308550D01*
X0299124Y0308550D02*
X0300625Y0308550D01*
X0299874Y0308550D02*
X0299874Y0313054D01*
X0299124Y0313054D02*
X0300625Y0313054D01*
X0302193Y0313054D02*
X0305195Y0308550D01*
X0305195Y0313054D01*
X0306797Y0312303D02*
X0306797Y0309301D01*
X0307547Y0308550D01*
X0309049Y0308550D01*
X0309799Y0309301D01*
X0309799Y0310802D01*
X0308298Y0310802D01*
X0306797Y0312303D02*
X0307547Y0313054D01*
X0309049Y0313054D01*
X0309799Y0312303D01*
X0311401Y0310802D02*
X0314403Y0310802D01*
X0316005Y0313054D02*
X0316005Y0308550D01*
X0317506Y0310051D01*
X0319007Y0308550D01*
X0319007Y0313054D01*
X0320609Y0312303D02*
X0320609Y0309301D01*
X0321359Y0308550D01*
X0322860Y0308550D01*
X0323611Y0309301D01*
X0323611Y0310802D01*
X0322110Y0310802D01*
X0323611Y0312303D02*
X0322860Y0313054D01*
X0321359Y0313054D01*
X0320609Y0312303D01*
X0325212Y0307799D02*
X0328215Y0307799D01*
X0329816Y0308550D02*
X0332819Y0308550D01*
X0331318Y0308550D02*
X0331318Y0313054D01*
X0329816Y0311553D01*
X0302193Y0313054D02*
X0302193Y0308550D01*
X0302193Y0278054D02*
X0305195Y0273550D01*
X0305195Y0278054D01*
X0306797Y0277303D02*
X0306797Y0274301D01*
X0307547Y0273550D01*
X0309049Y0273550D01*
X0309799Y0274301D01*
X0309799Y0275802D01*
X0308298Y0275802D01*
X0306797Y0277303D02*
X0307547Y0278054D01*
X0309049Y0278054D01*
X0309799Y0277303D01*
X0311401Y0275802D02*
X0314403Y0275802D01*
X0316005Y0278054D02*
X0316005Y0273550D01*
X0317506Y0275051D01*
X0319007Y0273550D01*
X0319007Y0278054D01*
X0320609Y0277303D02*
X0320609Y0274301D01*
X0321359Y0273550D01*
X0322860Y0273550D01*
X0323611Y0274301D01*
X0323611Y0275802D01*
X0322110Y0275802D01*
X0323611Y0277303D02*
X0322860Y0278054D01*
X0321359Y0278054D01*
X0320609Y0277303D01*
X0325212Y0272799D02*
X0328215Y0272799D01*
X0329816Y0273550D02*
X0332819Y0276553D01*
X0332819Y0277303D01*
X0332068Y0278054D01*
X0330567Y0278054D01*
X0329816Y0277303D01*
X0329816Y0273550D02*
X0332819Y0273550D01*
X0302193Y0273550D02*
X0302193Y0278054D01*
X0300625Y0278054D02*
X0299124Y0278054D01*
X0299874Y0278054D02*
X0299874Y0273550D01*
X0299124Y0273550D02*
X0300625Y0273550D01*
X0297522Y0273550D02*
X0297522Y0278054D01*
X0297522Y0275802D02*
X0294520Y0275802D01*
X0292918Y0277303D02*
X0292168Y0278054D01*
X0290666Y0278054D01*
X0289916Y0277303D01*
X0289916Y0274301D01*
X0290666Y0273550D01*
X0292168Y0273550D01*
X0292918Y0274301D01*
X0294520Y0273550D02*
X0294520Y0278054D01*
X0288314Y0278054D02*
X0288314Y0273550D01*
X0285312Y0278054D01*
X0285312Y0273550D01*
X0283710Y0274301D02*
X0283710Y0278054D01*
X0280708Y0278054D02*
X0280708Y0274301D01*
X0281458Y0273550D01*
X0282960Y0273550D01*
X0283710Y0274301D01*
X0279106Y0273550D02*
X0279106Y0276553D01*
X0277605Y0278054D01*
X0276104Y0276553D01*
X0276104Y0273550D01*
X0274503Y0273550D02*
X0271500Y0273550D01*
X0271500Y0278054D01*
X0276104Y0275802D02*
X0279106Y0275802D01*
X0268001Y0269054D02*
X0268001Y0264550D01*
X0266500Y0264550D02*
X0269503Y0264550D01*
X0266500Y0267553D02*
X0268001Y0269054D01*
X0156235Y0252303D02*
X0156235Y0251553D01*
X0155484Y0250802D01*
X0156235Y0250051D01*
X0156235Y0249301D01*
X0155484Y0248550D01*
X0153983Y0248550D01*
X0153232Y0249301D01*
X0154733Y0250802D02*
X0155484Y0250802D01*
X0156235Y0252303D02*
X0155484Y0253054D01*
X0153983Y0253054D01*
X0153232Y0252303D01*
X0151631Y0247799D02*
X0148628Y0247799D01*
X0147027Y0248550D02*
X0144024Y0248550D01*
X0144024Y0253054D01*
X0142423Y0253054D02*
X0139420Y0253054D01*
X0139420Y0248550D01*
X0142423Y0248550D01*
X0141106Y0249301D02*
X0140356Y0248550D01*
X0138855Y0248550D01*
X0138104Y0249301D01*
X0137819Y0248550D02*
X0134816Y0248550D01*
X0134816Y0253054D01*
X0137819Y0253054D01*
X0138104Y0252303D02*
X0138855Y0253054D01*
X0140356Y0253054D01*
X0141106Y0252303D01*
X0141106Y0251553D01*
X0140356Y0250802D01*
X0141106Y0250051D01*
X0141106Y0249301D01*
X0140922Y0250802D02*
X0139420Y0250802D01*
X0139605Y0250802D02*
X0140356Y0250802D01*
X0136318Y0250802D02*
X0134816Y0250802D01*
X0133215Y0250802D02*
X0130212Y0250802D01*
X0130212Y0248550D02*
X0130212Y0253054D01*
X0128611Y0253054D02*
X0128611Y0248550D01*
X0127110Y0250051D01*
X0125609Y0248550D01*
X0125609Y0253054D01*
X0124007Y0250802D02*
X0121005Y0250802D01*
X0119403Y0248550D02*
X0119403Y0253054D01*
X0116401Y0253054D02*
X0116401Y0248550D01*
X0114799Y0249301D02*
X0114049Y0248550D01*
X0112547Y0248550D01*
X0111797Y0249301D01*
X0111797Y0252303D01*
X0112547Y0253054D01*
X0114049Y0253054D01*
X0114799Y0252303D01*
X0114799Y0249301D01*
X0116401Y0253054D02*
X0119403Y0248550D01*
X0110229Y0248550D02*
X0108727Y0248550D01*
X0109478Y0248550D02*
X0109478Y0253054D01*
X0108727Y0253054D02*
X0110229Y0253054D01*
X0107126Y0253054D02*
X0104124Y0253054D01*
X0105625Y0253054D02*
X0105625Y0248550D01*
X0102522Y0249301D02*
X0101772Y0248550D01*
X0100270Y0248550D01*
X0099520Y0249301D01*
X0099520Y0252303D01*
X0100270Y0253054D01*
X0101772Y0253054D01*
X0102522Y0252303D01*
X0102522Y0249301D01*
X0097918Y0248550D02*
X0097918Y0253054D01*
X0096417Y0251553D01*
X0094916Y0253054D01*
X0094916Y0248550D01*
X0093314Y0249301D02*
X0093314Y0252303D01*
X0092564Y0253054D01*
X0091062Y0253054D01*
X0090312Y0252303D01*
X0090312Y0249301D01*
X0091062Y0248550D01*
X0092564Y0248550D01*
X0093314Y0249301D01*
X0088710Y0249301D02*
X0087960Y0248550D01*
X0086458Y0248550D01*
X0085708Y0249301D01*
X0085708Y0252303D01*
X0086458Y0253054D01*
X0087960Y0253054D01*
X0088710Y0252303D01*
X0084106Y0252303D02*
X0083356Y0253054D01*
X0081855Y0253054D01*
X0081104Y0252303D01*
X0081104Y0249301D01*
X0081855Y0248550D01*
X0083356Y0248550D01*
X0084106Y0249301D01*
X0084106Y0252303D01*
X0079503Y0248550D02*
X0076500Y0248550D01*
X0076500Y0253054D01*
X0073001Y0244054D02*
X0073001Y0239550D01*
X0071500Y0239550D02*
X0074503Y0239550D01*
X0071500Y0242553D02*
X0073001Y0244054D01*
X0076500Y0213054D02*
X0076500Y0208550D01*
X0079503Y0208550D01*
X0081104Y0209301D02*
X0081855Y0208550D01*
X0083356Y0208550D01*
X0084106Y0209301D01*
X0084106Y0212303D01*
X0083356Y0213054D01*
X0081855Y0213054D01*
X0081104Y0212303D01*
X0081104Y0209301D01*
X0085708Y0209301D02*
X0086458Y0208550D01*
X0087960Y0208550D01*
X0088710Y0209301D01*
X0090312Y0209301D02*
X0091062Y0208550D01*
X0092564Y0208550D01*
X0093314Y0209301D01*
X0093314Y0212303D01*
X0092564Y0213054D01*
X0091062Y0213054D01*
X0090312Y0212303D01*
X0090312Y0209301D01*
X0088710Y0212303D02*
X0087960Y0213054D01*
X0086458Y0213054D01*
X0085708Y0212303D01*
X0085708Y0209301D01*
X0073001Y0204054D02*
X0073001Y0199550D01*
X0071500Y0199550D02*
X0074503Y0199550D01*
X0071500Y0202553D02*
X0073001Y0204054D01*
X0094916Y0208550D02*
X0094916Y0213054D01*
X0096417Y0211553D01*
X0097918Y0213054D01*
X0097918Y0208550D01*
X0099520Y0209301D02*
X0100270Y0208550D01*
X0101772Y0208550D01*
X0102522Y0209301D01*
X0102522Y0212303D01*
X0101772Y0213054D01*
X0100270Y0213054D01*
X0099520Y0212303D01*
X0099520Y0209301D01*
X0104124Y0213054D02*
X0107126Y0213054D01*
X0105625Y0213054D02*
X0105625Y0208550D01*
X0108727Y0208550D02*
X0110229Y0208550D01*
X0109478Y0208550D02*
X0109478Y0213054D01*
X0108727Y0213054D02*
X0110229Y0213054D01*
X0111797Y0212303D02*
X0112547Y0213054D01*
X0114049Y0213054D01*
X0114799Y0212303D01*
X0114799Y0209301D01*
X0114049Y0208550D01*
X0112547Y0208550D01*
X0111797Y0209301D01*
X0111797Y0212303D01*
X0116401Y0213054D02*
X0116401Y0208550D01*
X0119403Y0208550D02*
X0116401Y0213054D01*
X0119403Y0213054D02*
X0119403Y0208550D01*
X0121005Y0210802D02*
X0124007Y0210802D01*
X0125609Y0213054D02*
X0125609Y0208550D01*
X0127110Y0210051D01*
X0128611Y0208550D01*
X0128611Y0213054D01*
X0130212Y0213054D02*
X0130212Y0208550D01*
X0130212Y0210802D02*
X0133215Y0210802D01*
X0134816Y0210802D02*
X0136318Y0210802D01*
X0136503Y0212303D02*
X0135752Y0213054D01*
X0133500Y0213054D01*
X0133500Y0208550D01*
X0135752Y0208550D01*
X0136503Y0209301D01*
X0136503Y0212303D01*
X0137819Y0213054D02*
X0134816Y0213054D01*
X0134816Y0208550D01*
X0137819Y0208550D01*
X0138104Y0208550D02*
X0141106Y0208550D01*
X0142423Y0208550D02*
X0139420Y0208550D01*
X0139420Y0213054D01*
X0142423Y0213054D01*
X0144024Y0213054D02*
X0144024Y0208550D01*
X0147027Y0208550D01*
X0148628Y0207799D02*
X0151631Y0207799D01*
X0153232Y0210802D02*
X0156235Y0210802D01*
X0155484Y0213054D02*
X0153232Y0210802D01*
X0155484Y0208550D02*
X0155484Y0213054D01*
X0140922Y0210802D02*
X0139420Y0210802D01*
X0138104Y0211553D02*
X0139605Y0213054D01*
X0139605Y0208550D01*
X0133215Y0208550D02*
X0133215Y0213054D01*
X0133500Y0198054D02*
X0135752Y0198054D01*
X0136503Y0197303D01*
X0136503Y0194301D01*
X0135752Y0193550D01*
X0133500Y0193550D01*
X0133500Y0198054D01*
X0138104Y0197303D02*
X0138855Y0198054D01*
X0140356Y0198054D01*
X0141106Y0197303D01*
X0141106Y0196553D01*
X0138104Y0193550D01*
X0141106Y0193550D01*
X0140356Y0233550D02*
X0140356Y0238054D01*
X0138104Y0235802D01*
X0141106Y0235802D01*
X0136503Y0237303D02*
X0135752Y0238054D01*
X0133500Y0238054D01*
X0133500Y0233550D01*
X0135752Y0233550D01*
X0136503Y0234301D01*
X0136503Y0237303D01*
X0135752Y0248550D02*
X0136503Y0249301D01*
X0136503Y0252303D01*
X0135752Y0253054D01*
X0133500Y0253054D01*
X0133500Y0248550D01*
X0135752Y0248550D01*
X0133215Y0248550D02*
X0133215Y0253054D01*
X0133500Y0273550D02*
X0135752Y0273550D01*
X0136503Y0274301D01*
X0136503Y0277303D01*
X0135752Y0278054D01*
X0133500Y0278054D01*
X0133500Y0273550D01*
X0138104Y0274301D02*
X0138855Y0273550D01*
X0140356Y0273550D01*
X0141106Y0274301D01*
X0141106Y0275051D01*
X0140356Y0275802D01*
X0138104Y0275802D01*
X0138104Y0274301D01*
X0138104Y0275802D02*
X0139605Y0277303D01*
X0141106Y0278054D01*
X0140356Y0288550D02*
X0138855Y0288550D01*
X0138104Y0289301D01*
X0137819Y0288550D02*
X0134816Y0288550D01*
X0134816Y0293054D01*
X0137819Y0293054D01*
X0138104Y0293054D02*
X0138104Y0290802D01*
X0139605Y0291553D01*
X0140356Y0291553D01*
X0141106Y0290802D01*
X0141106Y0289301D01*
X0140356Y0288550D01*
X0139420Y0288550D02*
X0142423Y0288550D01*
X0144024Y0288550D02*
X0147027Y0288550D01*
X0148628Y0287799D02*
X0151631Y0287799D01*
X0153232Y0288550D02*
X0156235Y0291553D01*
X0156235Y0292303D01*
X0155484Y0293054D01*
X0153983Y0293054D01*
X0153232Y0292303D01*
X0153232Y0288550D02*
X0156235Y0288550D01*
X0144024Y0288550D02*
X0144024Y0293054D01*
X0142423Y0293054D02*
X0139420Y0293054D01*
X0139420Y0288550D01*
X0139420Y0290802D02*
X0140922Y0290802D01*
X0141106Y0293054D02*
X0138104Y0293054D01*
X0136503Y0292303D02*
X0135752Y0293054D01*
X0133500Y0293054D01*
X0133500Y0288550D01*
X0135752Y0288550D01*
X0136503Y0289301D01*
X0136503Y0292303D01*
X0136318Y0290802D02*
X0134816Y0290802D01*
X0133215Y0290802D02*
X0130212Y0290802D01*
X0130212Y0288550D02*
X0130212Y0293054D01*
X0128611Y0293054D02*
X0128611Y0288550D01*
X0127110Y0290051D01*
X0125609Y0288550D01*
X0125609Y0293054D01*
X0124007Y0290802D02*
X0121005Y0290802D01*
X0119403Y0288550D02*
X0119403Y0293054D01*
X0116401Y0293054D02*
X0116401Y0288550D01*
X0114799Y0289301D02*
X0114799Y0292303D01*
X0114049Y0293054D01*
X0112547Y0293054D01*
X0111797Y0292303D01*
X0111797Y0289301D01*
X0112547Y0288550D01*
X0114049Y0288550D01*
X0114799Y0289301D01*
X0116401Y0293054D02*
X0119403Y0288550D01*
X0110229Y0288550D02*
X0108727Y0288550D01*
X0109478Y0288550D02*
X0109478Y0293054D01*
X0108727Y0293054D02*
X0110229Y0293054D01*
X0107126Y0293054D02*
X0104124Y0293054D01*
X0105625Y0293054D02*
X0105625Y0288550D01*
X0102522Y0289301D02*
X0102522Y0292303D01*
X0101772Y0293054D01*
X0100270Y0293054D01*
X0099520Y0292303D01*
X0099520Y0289301D01*
X0100270Y0288550D01*
X0101772Y0288550D01*
X0102522Y0289301D01*
X0097918Y0288550D02*
X0097918Y0293054D01*
X0096417Y0291553D01*
X0094916Y0293054D01*
X0094916Y0288550D01*
X0093314Y0289301D02*
X0093314Y0292303D01*
X0092564Y0293054D01*
X0091062Y0293054D01*
X0090312Y0292303D01*
X0090312Y0289301D01*
X0091062Y0288550D01*
X0092564Y0288550D01*
X0093314Y0289301D01*
X0088710Y0289301D02*
X0087960Y0288550D01*
X0086458Y0288550D01*
X0085708Y0289301D01*
X0085708Y0292303D01*
X0086458Y0293054D01*
X0087960Y0293054D01*
X0088710Y0292303D01*
X0084106Y0292303D02*
X0084106Y0289301D01*
X0083356Y0288550D01*
X0081855Y0288550D01*
X0081104Y0289301D01*
X0081104Y0292303D01*
X0081855Y0293054D01*
X0083356Y0293054D01*
X0084106Y0292303D01*
X0079503Y0288550D02*
X0076500Y0288550D01*
X0076500Y0293054D01*
X0073001Y0284054D02*
X0073001Y0279550D01*
X0071500Y0279550D02*
X0074503Y0279550D01*
X0071500Y0282553D02*
X0073001Y0284054D01*
X0073001Y0319550D02*
X0073001Y0324054D01*
X0071500Y0322553D01*
X0071500Y0319550D02*
X0074503Y0319550D01*
X0076500Y0328550D02*
X0079503Y0328550D01*
X0081104Y0329301D02*
X0081855Y0328550D01*
X0083356Y0328550D01*
X0084106Y0329301D01*
X0084106Y0332303D01*
X0083356Y0333054D01*
X0081855Y0333054D01*
X0081104Y0332303D01*
X0081104Y0329301D01*
X0085708Y0329301D02*
X0086458Y0328550D01*
X0087960Y0328550D01*
X0088710Y0329301D01*
X0090312Y0329301D02*
X0091062Y0328550D01*
X0092564Y0328550D01*
X0093314Y0329301D01*
X0093314Y0332303D01*
X0092564Y0333054D01*
X0091062Y0333054D01*
X0090312Y0332303D01*
X0090312Y0329301D01*
X0088710Y0332303D02*
X0087960Y0333054D01*
X0086458Y0333054D01*
X0085708Y0332303D01*
X0085708Y0329301D01*
X0076500Y0328550D02*
X0076500Y0333054D01*
X0094916Y0333054D02*
X0096417Y0331553D01*
X0097918Y0333054D01*
X0097918Y0328550D01*
X0099520Y0329301D02*
X0100270Y0328550D01*
X0101772Y0328550D01*
X0102522Y0329301D01*
X0102522Y0332303D01*
X0101772Y0333054D01*
X0100270Y0333054D01*
X0099520Y0332303D01*
X0099520Y0329301D01*
X0094916Y0328550D02*
X0094916Y0333054D01*
X0104124Y0333054D02*
X0107126Y0333054D01*
X0105625Y0333054D02*
X0105625Y0328550D01*
X0108727Y0328550D02*
X0110229Y0328550D01*
X0109478Y0328550D02*
X0109478Y0333054D01*
X0108727Y0333054D02*
X0110229Y0333054D01*
X0111797Y0332303D02*
X0111797Y0329301D01*
X0112547Y0328550D01*
X0114049Y0328550D01*
X0114799Y0329301D01*
X0114799Y0332303D01*
X0114049Y0333054D01*
X0112547Y0333054D01*
X0111797Y0332303D01*
X0116401Y0333054D02*
X0119403Y0328550D01*
X0119403Y0333054D01*
X0121005Y0330802D02*
X0124007Y0330802D01*
X0125609Y0333054D02*
X0125609Y0328550D01*
X0127110Y0330051D01*
X0128611Y0328550D01*
X0128611Y0333054D01*
X0130212Y0333054D02*
X0130212Y0328550D01*
X0130212Y0330802D02*
X0133215Y0330802D01*
X0134816Y0330802D02*
X0136318Y0330802D01*
X0136503Y0329301D02*
X0136503Y0332303D01*
X0135752Y0333054D01*
X0133500Y0333054D01*
X0133500Y0328550D01*
X0135752Y0328550D01*
X0136503Y0329301D01*
X0137819Y0328550D02*
X0134816Y0328550D01*
X0134816Y0333054D01*
X0137819Y0333054D01*
X0138104Y0333054D02*
X0141106Y0333054D01*
X0141106Y0332303D01*
X0138104Y0329301D01*
X0138104Y0328550D01*
X0139420Y0328550D02*
X0142423Y0328550D01*
X0144024Y0328550D02*
X0147027Y0328550D01*
X0148628Y0327799D02*
X0151631Y0327799D01*
X0153232Y0328550D02*
X0156235Y0328550D01*
X0154733Y0328550D02*
X0154733Y0333054D01*
X0153232Y0331553D01*
X0144024Y0333054D02*
X0144024Y0328550D01*
X0140922Y0330802D02*
X0139420Y0330802D01*
X0139420Y0333054D02*
X0139420Y0328550D01*
X0139420Y0333054D02*
X0142423Y0333054D01*
X0133215Y0333054D02*
X0133215Y0328550D01*
X0133500Y0318054D02*
X0135752Y0318054D01*
X0136503Y0317303D01*
X0136503Y0314301D01*
X0135752Y0313550D01*
X0133500Y0313550D01*
X0133500Y0318054D01*
X0138104Y0317303D02*
X0138104Y0316553D01*
X0138855Y0315802D01*
X0140356Y0315802D01*
X0141106Y0315051D01*
X0141106Y0314301D01*
X0140356Y0313550D01*
X0138855Y0313550D01*
X0138104Y0314301D01*
X0138104Y0315051D01*
X0138855Y0315802D01*
X0140356Y0315802D02*
X0141106Y0316553D01*
X0141106Y0317303D01*
X0140356Y0318054D01*
X0138855Y0318054D01*
X0138104Y0317303D01*
X0116401Y0328550D02*
X0116401Y0333054D01*
X0133215Y0293054D02*
X0133215Y0288550D01*
X0210294Y0372050D02*
X0210294Y0373952D01*
X0213977Y0373635D02*
X0214294Y0373952D01*
X0214928Y0373952D01*
X0215245Y0373635D01*
X0238929Y0429850D02*
X0241932Y0429850D01*
X0243533Y0429850D02*
X0243533Y0432853D01*
X0245034Y0434354D01*
X0246536Y0432853D01*
X0246536Y0429850D01*
X0248137Y0430601D02*
X0248888Y0429850D01*
X0250389Y0429850D01*
X0251140Y0430601D01*
X0251140Y0434354D01*
X0252741Y0434354D02*
X0255744Y0429850D01*
X0255744Y0434354D01*
X0257345Y0433603D02*
X0257345Y0430601D01*
X0258096Y0429850D01*
X0259597Y0429850D01*
X0260347Y0430601D01*
X0261949Y0429850D02*
X0261949Y0434354D01*
X0260347Y0433603D02*
X0259597Y0434354D01*
X0258096Y0434354D01*
X0257345Y0433603D01*
X0252741Y0434354D02*
X0252741Y0429850D01*
X0248137Y0430601D02*
X0248137Y0434354D01*
X0246536Y0432102D02*
X0243533Y0432102D01*
X0238929Y0434354D02*
X0238929Y0429850D01*
X0261949Y0432102D02*
X0264951Y0432102D01*
X0266553Y0432102D02*
X0268054Y0432102D01*
X0266553Y0434354D02*
X0266553Y0429850D01*
X0269555Y0429850D01*
X0271157Y0429850D02*
X0271157Y0434354D01*
X0273409Y0434354D01*
X0274159Y0433603D01*
X0274159Y0432102D01*
X0273409Y0431351D01*
X0271157Y0431351D01*
X0272658Y0431351D02*
X0274159Y0429850D01*
X0275761Y0429099D02*
X0278763Y0429099D01*
X0280364Y0429850D02*
X0283367Y0429850D01*
X0284968Y0429850D02*
X0284968Y0434354D01*
X0287971Y0429850D01*
X0287971Y0434354D01*
X0289572Y0433603D02*
X0289572Y0430601D01*
X0290323Y0429850D01*
X0291824Y0429850D01*
X0292575Y0430601D01*
X0294176Y0430601D02*
X0294927Y0429850D01*
X0296428Y0429850D01*
X0297179Y0430601D01*
X0297179Y0433603D01*
X0296428Y0434354D01*
X0294927Y0434354D01*
X0294176Y0433603D01*
X0294176Y0430601D01*
X0292575Y0433603D02*
X0291824Y0434354D01*
X0290323Y0434354D01*
X0289572Y0433603D01*
X0283367Y0434354D02*
X0280364Y0434354D01*
X0280364Y0429850D01*
X0280364Y0432102D02*
X0281866Y0432102D01*
X0269555Y0434354D02*
X0266553Y0434354D01*
X0264951Y0434354D02*
X0264951Y0429850D01*
X0298780Y0429850D02*
X0301032Y0429850D01*
X0301783Y0430601D01*
X0301783Y0433603D01*
X0301032Y0434354D01*
X0298780Y0434354D01*
X0298780Y0429850D01*
X0303384Y0429850D02*
X0306387Y0429850D01*
X0307988Y0429850D02*
X0307988Y0434354D01*
X0310240Y0434354D01*
X0310991Y0433603D01*
X0310991Y0432102D01*
X0310240Y0431351D01*
X0307988Y0431351D01*
X0309489Y0431351D02*
X0310991Y0429850D01*
X0312592Y0432102D02*
X0315595Y0432102D01*
X0317196Y0433603D02*
X0317947Y0434354D01*
X0319448Y0434354D01*
X0320198Y0433603D01*
X0320198Y0432853D01*
X0317196Y0429850D01*
X0320198Y0429850D01*
X0306387Y0434354D02*
X0303384Y0434354D01*
X0303384Y0429850D01*
X0303384Y0432102D02*
X0304885Y0432102D01*
X0303384Y0479850D02*
X0306387Y0479850D01*
X0307988Y0479850D02*
X0307988Y0484354D01*
X0310240Y0484354D01*
X0310991Y0483603D01*
X0310991Y0482102D01*
X0310240Y0481351D01*
X0307988Y0481351D01*
X0309489Y0481351D02*
X0310991Y0479850D01*
X0312592Y0482102D02*
X0315595Y0482102D01*
X0317196Y0483603D02*
X0317947Y0484354D01*
X0319448Y0484354D01*
X0320198Y0483603D01*
X0320198Y0482853D01*
X0319448Y0482102D01*
X0320198Y0481351D01*
X0320198Y0480601D01*
X0319448Y0479850D01*
X0317947Y0479850D01*
X0317196Y0480601D01*
X0318697Y0482102D02*
X0319448Y0482102D01*
X0306387Y0484354D02*
X0303384Y0484354D01*
X0303384Y0479850D01*
X0301783Y0480601D02*
X0301783Y0483603D01*
X0301032Y0484354D01*
X0298780Y0484354D01*
X0298780Y0479850D01*
X0301032Y0479850D01*
X0301783Y0480601D01*
X0303384Y0482102D02*
X0304885Y0482102D01*
X0297179Y0483603D02*
X0296428Y0484354D01*
X0294927Y0484354D01*
X0294176Y0483603D01*
X0294176Y0480601D01*
X0294927Y0479850D01*
X0296428Y0479850D01*
X0297179Y0480601D01*
X0297179Y0483603D01*
X0292575Y0483603D02*
X0291824Y0484354D01*
X0290323Y0484354D01*
X0289572Y0483603D01*
X0289572Y0480601D01*
X0290323Y0479850D01*
X0291824Y0479850D01*
X0292575Y0480601D01*
X0287971Y0479850D02*
X0287971Y0484354D01*
X0284968Y0484354D02*
X0287971Y0479850D01*
X0284968Y0479850D02*
X0284968Y0484354D01*
X0283367Y0484354D02*
X0280364Y0484354D01*
X0280364Y0479850D01*
X0283367Y0479850D01*
X0281866Y0482102D02*
X0280364Y0482102D01*
X0278763Y0479099D02*
X0275761Y0479099D01*
X0274159Y0479850D02*
X0272658Y0481351D01*
X0273409Y0481351D02*
X0271157Y0481351D01*
X0271157Y0479850D02*
X0271157Y0484354D01*
X0273409Y0484354D01*
X0274159Y0483603D01*
X0274159Y0482102D01*
X0273409Y0481351D01*
X0269555Y0479850D02*
X0266553Y0479850D01*
X0266553Y0484354D01*
X0269555Y0484354D01*
X0268054Y0482102D02*
X0266553Y0482102D01*
X0264951Y0482102D02*
X0261949Y0482102D01*
X0260347Y0483603D02*
X0259597Y0484354D01*
X0258096Y0484354D01*
X0257345Y0483603D01*
X0257345Y0480601D01*
X0258096Y0479850D01*
X0259597Y0479850D01*
X0260347Y0480601D01*
X0261949Y0479850D02*
X0261949Y0484354D01*
X0264951Y0484354D02*
X0264951Y0479850D01*
X0255744Y0479850D02*
X0255744Y0484354D01*
X0252741Y0484354D02*
X0255744Y0479850D01*
X0252741Y0479850D02*
X0252741Y0484354D01*
X0251140Y0484354D02*
X0251140Y0480601D01*
X0250389Y0479850D01*
X0248888Y0479850D01*
X0248137Y0480601D01*
X0248137Y0484354D01*
X0246536Y0482853D02*
X0246536Y0479850D01*
X0246536Y0482102D02*
X0243533Y0482102D01*
X0243533Y0482853D02*
X0243533Y0479850D01*
X0241932Y0479850D02*
X0238929Y0479850D01*
X0238929Y0484354D01*
X0243533Y0482853D02*
X0245034Y0484354D01*
X0246536Y0482853D01*
X0125000Y0484840D02*
X0123098Y0484840D01*
X0123098Y0485791D01*
X0123415Y0486108D01*
X0124049Y0486108D01*
X0124366Y0485791D01*
X0124366Y0484840D01*
X0124366Y0485474D02*
X0125000Y0486108D01*
X0124049Y0487050D02*
X0124049Y0488318D01*
X0123098Y0488001D02*
X0124049Y0487050D01*
X0125000Y0488001D02*
X0123098Y0488001D01*
X0093500Y0495302D02*
X0088996Y0495302D01*
X0091248Y0493050D01*
X0091248Y0496053D01*
X0369396Y0482802D02*
X0369396Y0481301D01*
X0370147Y0480550D01*
X0371648Y0480550D01*
X0372399Y0481301D01*
X0372399Y0482051D01*
X0371648Y0482802D01*
X0369396Y0482802D01*
X0370897Y0484303D01*
X0372399Y0485054D01*
X0403480Y0485054D02*
X0403480Y0480550D01*
X0406483Y0480550D01*
X0408084Y0480550D02*
X0411087Y0485054D01*
X0412688Y0485054D02*
X0415691Y0485054D01*
X0414189Y0485054D02*
X0414189Y0480550D01*
X0411087Y0480550D02*
X0408084Y0485054D01*
X0406483Y0485054D02*
X0403480Y0485054D01*
X0403480Y0482802D02*
X0404982Y0482802D01*
X0417292Y0482051D02*
X0419544Y0482051D01*
X0420295Y0482802D01*
X0420295Y0484303D01*
X0419544Y0485054D01*
X0417292Y0485054D01*
X0417292Y0480550D01*
X0418793Y0482051D02*
X0420295Y0480550D01*
X0421896Y0480550D02*
X0421896Y0483553D01*
X0423397Y0485054D01*
X0424899Y0483553D01*
X0424899Y0480550D01*
X0424899Y0482802D02*
X0421896Y0482802D01*
X0422399Y0498550D02*
X0419396Y0498550D01*
X0420897Y0498550D02*
X0420897Y0503054D01*
X0419396Y0501553D01*
X0448500Y0458054D02*
X0450752Y0458054D01*
X0451503Y0457303D01*
X0451503Y0454301D01*
X0450752Y0453550D01*
X0448500Y0453550D01*
X0448500Y0458054D01*
X0453104Y0456553D02*
X0454605Y0458054D01*
X0454605Y0453550D01*
X0453104Y0453550D02*
X0456106Y0453550D01*
X0457708Y0454301D02*
X0458458Y0453550D01*
X0459960Y0453550D01*
X0460710Y0454301D01*
X0460710Y0457303D01*
X0459960Y0458054D01*
X0458458Y0458054D01*
X0457708Y0457303D01*
X0457708Y0456553D01*
X0458458Y0455802D01*
X0460710Y0455802D01*
X0494296Y0453960D02*
X0497299Y0453960D01*
X0498800Y0452459D01*
X0497299Y0450958D01*
X0494296Y0450958D01*
X0495047Y0449356D02*
X0496548Y0449356D01*
X0497299Y0448606D01*
X0497299Y0446354D01*
X0498800Y0446354D02*
X0494296Y0446354D01*
X0494296Y0448606D01*
X0495047Y0449356D01*
X0497299Y0447855D02*
X0498800Y0449356D01*
X0498049Y0444753D02*
X0495047Y0444753D01*
X0494296Y0444002D01*
X0494296Y0441750D01*
X0498800Y0441750D01*
X0498800Y0444002D01*
X0498049Y0444753D01*
X0498800Y0455562D02*
X0494296Y0458564D01*
X0495797Y0460166D02*
X0494296Y0461667D01*
X0495797Y0463168D01*
X0498800Y0463168D01*
X0496548Y0463168D02*
X0496548Y0460166D01*
X0495797Y0460166D02*
X0498800Y0460166D01*
X0496548Y0464770D02*
X0496548Y0467772D01*
X0495797Y0469374D02*
X0496548Y0470124D01*
X0496548Y0472376D01*
X0495047Y0472376D02*
X0494296Y0471625D01*
X0494296Y0470124D01*
X0495047Y0469374D01*
X0495797Y0469374D01*
X0498049Y0469374D02*
X0498800Y0470124D01*
X0498800Y0471625D01*
X0498049Y0472376D01*
X0495047Y0472376D01*
X0495047Y0473977D02*
X0495797Y0473977D01*
X0496548Y0474728D01*
X0496548Y0476229D01*
X0497299Y0476980D01*
X0498049Y0476980D01*
X0498800Y0476229D01*
X0498800Y0474728D01*
X0498049Y0473977D01*
X0497299Y0473977D01*
X0496548Y0474728D01*
X0496548Y0476229D02*
X0495797Y0476980D01*
X0495047Y0476980D01*
X0494296Y0476229D01*
X0494296Y0474728D01*
X0495047Y0473977D01*
X0495047Y0478581D02*
X0495797Y0478581D01*
X0496548Y0479332D01*
X0496548Y0480833D01*
X0497299Y0481584D01*
X0498049Y0481584D01*
X0498800Y0480833D01*
X0498800Y0479332D01*
X0498049Y0478581D01*
X0497299Y0478581D01*
X0496548Y0479332D01*
X0496548Y0480833D02*
X0495797Y0481584D01*
X0495047Y0481584D01*
X0494296Y0480833D01*
X0494296Y0479332D01*
X0495047Y0478581D01*
X0494296Y0467022D02*
X0496548Y0464770D01*
X0498800Y0467022D02*
X0494296Y0467022D01*
X0519296Y0466271D02*
X0523800Y0466271D01*
X0523800Y0464770D02*
X0523800Y0467772D01*
X0520797Y0464770D02*
X0519296Y0466271D01*
X0520797Y0463168D02*
X0523800Y0463168D01*
X0521548Y0463168D02*
X0521548Y0460166D01*
X0520797Y0460166D02*
X0519296Y0461667D01*
X0520797Y0463168D01*
X0520797Y0460166D02*
X0523800Y0460166D01*
X0523800Y0455562D02*
X0519296Y0458564D01*
X0519296Y0453960D02*
X0522299Y0453960D01*
X0523800Y0452459D01*
X0522299Y0450958D01*
X0519296Y0450958D01*
X0520047Y0449356D02*
X0521548Y0449356D01*
X0522299Y0448606D01*
X0522299Y0446354D01*
X0523800Y0446354D02*
X0519296Y0446354D01*
X0519296Y0448606D01*
X0520047Y0449356D01*
X0522299Y0447855D02*
X0523800Y0449356D01*
X0523049Y0444753D02*
X0520047Y0444753D01*
X0519296Y0444002D01*
X0519296Y0441750D01*
X0523800Y0441750D01*
X0523800Y0444002D01*
X0523049Y0444753D01*
X0544296Y0444002D02*
X0544296Y0441750D01*
X0548800Y0441750D01*
X0548800Y0444002D01*
X0548049Y0444753D01*
X0545047Y0444753D01*
X0544296Y0444002D01*
X0544296Y0446354D02*
X0544296Y0448606D01*
X0545047Y0449356D01*
X0546548Y0449356D01*
X0547299Y0448606D01*
X0547299Y0446354D01*
X0548800Y0446354D02*
X0544296Y0446354D01*
X0547299Y0447855D02*
X0548800Y0449356D01*
X0547299Y0450958D02*
X0548800Y0452459D01*
X0547299Y0453960D01*
X0544296Y0453960D01*
X0544296Y0450958D02*
X0547299Y0450958D01*
X0548800Y0455562D02*
X0544296Y0458564D01*
X0545797Y0460166D02*
X0544296Y0461667D01*
X0545797Y0463168D01*
X0548800Y0463168D01*
X0548800Y0464770D02*
X0545797Y0467772D01*
X0545047Y0467772D01*
X0544296Y0467022D01*
X0544296Y0465520D01*
X0545047Y0464770D01*
X0546548Y0463168D02*
X0546548Y0460166D01*
X0545797Y0460166D02*
X0548800Y0460166D01*
X0548800Y0464770D02*
X0548800Y0467772D01*
X0569296Y0467022D02*
X0569296Y0465520D01*
X0570047Y0464770D01*
X0570797Y0463168D02*
X0569296Y0461667D01*
X0570797Y0460166D01*
X0573800Y0460166D01*
X0571548Y0460166D02*
X0571548Y0463168D01*
X0570797Y0463168D02*
X0573800Y0463168D01*
X0573049Y0464770D02*
X0573800Y0465520D01*
X0573800Y0467022D01*
X0573049Y0467772D01*
X0572299Y0467772D01*
X0571548Y0467022D01*
X0571548Y0466271D01*
X0571548Y0467022D02*
X0570797Y0467772D01*
X0570047Y0467772D01*
X0569296Y0467022D01*
X0569296Y0458564D02*
X0573800Y0455562D01*
X0572299Y0453960D02*
X0569296Y0453960D01*
X0569296Y0450958D02*
X0572299Y0450958D01*
X0573800Y0452459D01*
X0572299Y0453960D01*
X0571548Y0449356D02*
X0570047Y0449356D01*
X0569296Y0448606D01*
X0569296Y0446354D01*
X0573800Y0446354D01*
X0572299Y0446354D02*
X0572299Y0448606D01*
X0571548Y0449356D01*
X0572299Y0447855D02*
X0573800Y0449356D01*
X0573049Y0444753D02*
X0570047Y0444753D01*
X0569296Y0444002D01*
X0569296Y0441750D01*
X0573800Y0441750D01*
X0573800Y0444002D01*
X0573049Y0444753D01*
X0632498Y0433001D02*
X0632498Y0432367D01*
X0632815Y0432050D01*
X0632815Y0431108D02*
X0633449Y0431108D01*
X0633766Y0430791D01*
X0633766Y0429840D01*
X0633766Y0430474D02*
X0634400Y0431108D01*
X0634400Y0432050D02*
X0633132Y0433318D01*
X0632815Y0433318D01*
X0632498Y0433001D01*
X0632815Y0431108D02*
X0632498Y0430791D01*
X0632498Y0429840D01*
X0634400Y0429840D01*
X0634400Y0432050D02*
X0634400Y0433318D01*
X0648996Y0423510D02*
X0648996Y0422008D01*
X0649747Y0421258D01*
X0649747Y0419656D02*
X0648996Y0418906D01*
X0648996Y0417405D01*
X0649747Y0416654D01*
X0650497Y0416654D01*
X0651248Y0417405D01*
X0651248Y0418906D01*
X0651999Y0419656D01*
X0652749Y0419656D01*
X0653500Y0418906D01*
X0653500Y0417405D01*
X0652749Y0416654D01*
X0651248Y0415053D02*
X0651999Y0414302D01*
X0651999Y0412050D01*
X0653500Y0412050D02*
X0648996Y0412050D01*
X0648996Y0414302D01*
X0649747Y0415053D01*
X0651248Y0415053D01*
X0653500Y0421258D02*
X0650497Y0424260D01*
X0649747Y0424260D01*
X0648996Y0423510D01*
X0653500Y0424260D02*
X0653500Y0421258D01*
X0634400Y0469840D02*
X0632498Y0469840D01*
X0632498Y0470791D01*
X0632815Y0471108D01*
X0633449Y0471108D01*
X0633766Y0470791D01*
X0633766Y0469840D01*
X0633766Y0470474D02*
X0634400Y0471108D01*
X0634400Y0472050D02*
X0634400Y0473318D01*
X0634400Y0472684D02*
X0632498Y0472684D01*
X0633132Y0472050D01*
X0248500Y0095449D02*
X0248500Y0092446D01*
X0248500Y0093947D02*
X0243996Y0093947D01*
X0245497Y0092446D01*
X0252996Y0088947D02*
X0254497Y0087446D01*
X0252996Y0088947D02*
X0257500Y0088947D01*
X0257500Y0087446D02*
X0257500Y0090448D01*
D15*
X0240750Y0111800D03*
X0180750Y0111800D03*
X0120750Y0111800D03*
X0135750Y0186800D03*
X0135750Y0201800D03*
X0135750Y0226800D03*
X0135750Y0241800D03*
X0135750Y0266800D03*
X0135750Y0281800D03*
X0135750Y0306800D03*
X0135750Y0321800D03*
X0236750Y0311800D03*
X0236750Y0291800D03*
X0236750Y0271800D03*
X0236750Y0251800D03*
X0236750Y0231800D03*
X0236750Y0211800D03*
X0396750Y0446800D03*
X0450750Y0446800D03*
D16*
X0444500Y0446800D03*
X0468000Y0446800D03*
X0403000Y0446800D03*
X0379500Y0446800D03*
X0243000Y0311800D03*
X0219500Y0311800D03*
X0219500Y0291800D03*
X0243000Y0291800D03*
X0243000Y0271800D03*
X0219500Y0271800D03*
X0219500Y0251800D03*
X0243000Y0251800D03*
X0243000Y0231800D03*
X0219500Y0231800D03*
X0219500Y0211800D03*
X0243000Y0211800D03*
X0153000Y0201800D03*
X0153000Y0186800D03*
X0129500Y0186800D03*
X0129500Y0201800D03*
X0129500Y0226800D03*
X0129500Y0241800D03*
X0153000Y0241800D03*
X0153000Y0226800D03*
X0153000Y0266800D03*
X0153000Y0281800D03*
X0129500Y0281800D03*
X0129500Y0266800D03*
X0129500Y0306800D03*
X0129500Y0321800D03*
X0153000Y0321800D03*
X0153000Y0306800D03*
X0138000Y0111800D03*
X0114500Y0111800D03*
X0174500Y0111800D03*
X0198000Y0111800D03*
X0234500Y0111800D03*
X0258000Y0111800D03*
D17*
X0516998Y0137233D02*
X0517000Y0137272D01*
X0517006Y0137311D01*
X0517016Y0137349D01*
X0517029Y0137386D01*
X0517046Y0137421D01*
X0517066Y0137455D01*
X0517090Y0137486D01*
X0517117Y0137515D01*
X0517146Y0137541D01*
X0517178Y0137564D01*
X0517212Y0137584D01*
X0517248Y0137600D01*
X0517285Y0137612D01*
X0517324Y0137621D01*
X0517363Y0137626D01*
X0517402Y0137627D01*
X0517441Y0137624D01*
X0517480Y0137617D01*
X0517517Y0137606D01*
X0517554Y0137592D01*
X0517589Y0137574D01*
X0517622Y0137553D01*
X0517653Y0137528D01*
X0517681Y0137501D01*
X0517706Y0137471D01*
X0517728Y0137438D01*
X0517747Y0137404D01*
X0517762Y0137368D01*
X0517774Y0137330D01*
X0517782Y0137292D01*
X0517786Y0137253D01*
X0517786Y0137213D01*
X0517782Y0137174D01*
X0517774Y0137136D01*
X0517762Y0137098D01*
X0517747Y0137062D01*
X0517728Y0137028D01*
X0517706Y0136995D01*
X0517681Y0136965D01*
X0517653Y0136938D01*
X0517622Y0136913D01*
X0517589Y0136892D01*
X0517554Y0136874D01*
X0517517Y0136860D01*
X0517480Y0136849D01*
X0517441Y0136842D01*
X0517402Y0136839D01*
X0517363Y0136840D01*
X0517324Y0136845D01*
X0517285Y0136854D01*
X0517248Y0136866D01*
X0517212Y0136882D01*
X0517178Y0136902D01*
X0517146Y0136925D01*
X0517117Y0136951D01*
X0517090Y0136980D01*
X0517066Y0137011D01*
X0517046Y0137045D01*
X0517029Y0137080D01*
X0517016Y0137117D01*
X0517006Y0137155D01*
X0517000Y0137194D01*
X0516998Y0137233D01*
X0611998Y0137233D02*
X0612000Y0137272D01*
X0612006Y0137311D01*
X0612016Y0137349D01*
X0612029Y0137386D01*
X0612046Y0137421D01*
X0612066Y0137455D01*
X0612090Y0137486D01*
X0612117Y0137515D01*
X0612146Y0137541D01*
X0612178Y0137564D01*
X0612212Y0137584D01*
X0612248Y0137600D01*
X0612285Y0137612D01*
X0612324Y0137621D01*
X0612363Y0137626D01*
X0612402Y0137627D01*
X0612441Y0137624D01*
X0612480Y0137617D01*
X0612517Y0137606D01*
X0612554Y0137592D01*
X0612589Y0137574D01*
X0612622Y0137553D01*
X0612653Y0137528D01*
X0612681Y0137501D01*
X0612706Y0137471D01*
X0612728Y0137438D01*
X0612747Y0137404D01*
X0612762Y0137368D01*
X0612774Y0137330D01*
X0612782Y0137292D01*
X0612786Y0137253D01*
X0612786Y0137213D01*
X0612782Y0137174D01*
X0612774Y0137136D01*
X0612762Y0137098D01*
X0612747Y0137062D01*
X0612728Y0137028D01*
X0612706Y0136995D01*
X0612681Y0136965D01*
X0612653Y0136938D01*
X0612622Y0136913D01*
X0612589Y0136892D01*
X0612554Y0136874D01*
X0612517Y0136860D01*
X0612480Y0136849D01*
X0612441Y0136842D01*
X0612402Y0136839D01*
X0612363Y0136840D01*
X0612324Y0136845D01*
X0612285Y0136854D01*
X0612248Y0136866D01*
X0612212Y0136882D01*
X0612178Y0136902D01*
X0612146Y0136925D01*
X0612117Y0136951D01*
X0612090Y0136980D01*
X0612066Y0137011D01*
X0612046Y0137045D01*
X0612029Y0137080D01*
X0612016Y0137117D01*
X0612006Y0137155D01*
X0612000Y0137194D01*
X0611998Y0137233D01*
X0611998Y0262233D02*
X0612000Y0262272D01*
X0612006Y0262311D01*
X0612016Y0262349D01*
X0612029Y0262386D01*
X0612046Y0262421D01*
X0612066Y0262455D01*
X0612090Y0262486D01*
X0612117Y0262515D01*
X0612146Y0262541D01*
X0612178Y0262564D01*
X0612212Y0262584D01*
X0612248Y0262600D01*
X0612285Y0262612D01*
X0612324Y0262621D01*
X0612363Y0262626D01*
X0612402Y0262627D01*
X0612441Y0262624D01*
X0612480Y0262617D01*
X0612517Y0262606D01*
X0612554Y0262592D01*
X0612589Y0262574D01*
X0612622Y0262553D01*
X0612653Y0262528D01*
X0612681Y0262501D01*
X0612706Y0262471D01*
X0612728Y0262438D01*
X0612747Y0262404D01*
X0612762Y0262368D01*
X0612774Y0262330D01*
X0612782Y0262292D01*
X0612786Y0262253D01*
X0612786Y0262213D01*
X0612782Y0262174D01*
X0612774Y0262136D01*
X0612762Y0262098D01*
X0612747Y0262062D01*
X0612728Y0262028D01*
X0612706Y0261995D01*
X0612681Y0261965D01*
X0612653Y0261938D01*
X0612622Y0261913D01*
X0612589Y0261892D01*
X0612554Y0261874D01*
X0612517Y0261860D01*
X0612480Y0261849D01*
X0612441Y0261842D01*
X0612402Y0261839D01*
X0612363Y0261840D01*
X0612324Y0261845D01*
X0612285Y0261854D01*
X0612248Y0261866D01*
X0612212Y0261882D01*
X0612178Y0261902D01*
X0612146Y0261925D01*
X0612117Y0261951D01*
X0612090Y0261980D01*
X0612066Y0262011D01*
X0612046Y0262045D01*
X0612029Y0262080D01*
X0612016Y0262117D01*
X0612006Y0262155D01*
X0612000Y0262194D01*
X0611998Y0262233D01*
X0516998Y0262233D02*
X0517000Y0262272D01*
X0517006Y0262311D01*
X0517016Y0262349D01*
X0517029Y0262386D01*
X0517046Y0262421D01*
X0517066Y0262455D01*
X0517090Y0262486D01*
X0517117Y0262515D01*
X0517146Y0262541D01*
X0517178Y0262564D01*
X0517212Y0262584D01*
X0517248Y0262600D01*
X0517285Y0262612D01*
X0517324Y0262621D01*
X0517363Y0262626D01*
X0517402Y0262627D01*
X0517441Y0262624D01*
X0517480Y0262617D01*
X0517517Y0262606D01*
X0517554Y0262592D01*
X0517589Y0262574D01*
X0517622Y0262553D01*
X0517653Y0262528D01*
X0517681Y0262501D01*
X0517706Y0262471D01*
X0517728Y0262438D01*
X0517747Y0262404D01*
X0517762Y0262368D01*
X0517774Y0262330D01*
X0517782Y0262292D01*
X0517786Y0262253D01*
X0517786Y0262213D01*
X0517782Y0262174D01*
X0517774Y0262136D01*
X0517762Y0262098D01*
X0517747Y0262062D01*
X0517728Y0262028D01*
X0517706Y0261995D01*
X0517681Y0261965D01*
X0517653Y0261938D01*
X0517622Y0261913D01*
X0517589Y0261892D01*
X0517554Y0261874D01*
X0517517Y0261860D01*
X0517480Y0261849D01*
X0517441Y0261842D01*
X0517402Y0261839D01*
X0517363Y0261840D01*
X0517324Y0261845D01*
X0517285Y0261854D01*
X0517248Y0261866D01*
X0517212Y0261882D01*
X0517178Y0261902D01*
X0517146Y0261925D01*
X0517117Y0261951D01*
X0517090Y0261980D01*
X0517066Y0262011D01*
X0517046Y0262045D01*
X0517029Y0262080D01*
X0517016Y0262117D01*
X0517006Y0262155D01*
X0517000Y0262194D01*
X0516998Y0262233D01*
X0516998Y0382233D02*
X0517000Y0382272D01*
X0517006Y0382311D01*
X0517016Y0382349D01*
X0517029Y0382386D01*
X0517046Y0382421D01*
X0517066Y0382455D01*
X0517090Y0382486D01*
X0517117Y0382515D01*
X0517146Y0382541D01*
X0517178Y0382564D01*
X0517212Y0382584D01*
X0517248Y0382600D01*
X0517285Y0382612D01*
X0517324Y0382621D01*
X0517363Y0382626D01*
X0517402Y0382627D01*
X0517441Y0382624D01*
X0517480Y0382617D01*
X0517517Y0382606D01*
X0517554Y0382592D01*
X0517589Y0382574D01*
X0517622Y0382553D01*
X0517653Y0382528D01*
X0517681Y0382501D01*
X0517706Y0382471D01*
X0517728Y0382438D01*
X0517747Y0382404D01*
X0517762Y0382368D01*
X0517774Y0382330D01*
X0517782Y0382292D01*
X0517786Y0382253D01*
X0517786Y0382213D01*
X0517782Y0382174D01*
X0517774Y0382136D01*
X0517762Y0382098D01*
X0517747Y0382062D01*
X0517728Y0382028D01*
X0517706Y0381995D01*
X0517681Y0381965D01*
X0517653Y0381938D01*
X0517622Y0381913D01*
X0517589Y0381892D01*
X0517554Y0381874D01*
X0517517Y0381860D01*
X0517480Y0381849D01*
X0517441Y0381842D01*
X0517402Y0381839D01*
X0517363Y0381840D01*
X0517324Y0381845D01*
X0517285Y0381854D01*
X0517248Y0381866D01*
X0517212Y0381882D01*
X0517178Y0381902D01*
X0517146Y0381925D01*
X0517117Y0381951D01*
X0517090Y0381980D01*
X0517066Y0382011D01*
X0517046Y0382045D01*
X0517029Y0382080D01*
X0517016Y0382117D01*
X0517006Y0382155D01*
X0517000Y0382194D01*
X0516998Y0382233D01*
X0611998Y0382233D02*
X0612000Y0382272D01*
X0612006Y0382311D01*
X0612016Y0382349D01*
X0612029Y0382386D01*
X0612046Y0382421D01*
X0612066Y0382455D01*
X0612090Y0382486D01*
X0612117Y0382515D01*
X0612146Y0382541D01*
X0612178Y0382564D01*
X0612212Y0382584D01*
X0612248Y0382600D01*
X0612285Y0382612D01*
X0612324Y0382621D01*
X0612363Y0382626D01*
X0612402Y0382627D01*
X0612441Y0382624D01*
X0612480Y0382617D01*
X0612517Y0382606D01*
X0612554Y0382592D01*
X0612589Y0382574D01*
X0612622Y0382553D01*
X0612653Y0382528D01*
X0612681Y0382501D01*
X0612706Y0382471D01*
X0612728Y0382438D01*
X0612747Y0382404D01*
X0612762Y0382368D01*
X0612774Y0382330D01*
X0612782Y0382292D01*
X0612786Y0382253D01*
X0612786Y0382213D01*
X0612782Y0382174D01*
X0612774Y0382136D01*
X0612762Y0382098D01*
X0612747Y0382062D01*
X0612728Y0382028D01*
X0612706Y0381995D01*
X0612681Y0381965D01*
X0612653Y0381938D01*
X0612622Y0381913D01*
X0612589Y0381892D01*
X0612554Y0381874D01*
X0612517Y0381860D01*
X0612480Y0381849D01*
X0612441Y0381842D01*
X0612402Y0381839D01*
X0612363Y0381840D01*
X0612324Y0381845D01*
X0612285Y0381854D01*
X0612248Y0381866D01*
X0612212Y0381882D01*
X0612178Y0381902D01*
X0612146Y0381925D01*
X0612117Y0381951D01*
X0612090Y0381980D01*
X0612066Y0382011D01*
X0612046Y0382045D01*
X0612029Y0382080D01*
X0612016Y0382117D01*
X0612006Y0382155D01*
X0612000Y0382194D01*
X0611998Y0382233D01*
D18*
X0616450Y0392000D02*
X0619519Y0392000D01*
X0621054Y0392000D02*
X0621054Y0395069D01*
X0622589Y0396604D01*
X0624123Y0395069D01*
X0624123Y0392000D01*
X0625658Y0392767D02*
X0625658Y0396604D01*
X0624123Y0394302D02*
X0621054Y0394302D01*
X0625658Y0392767D02*
X0626425Y0392000D01*
X0627960Y0392000D01*
X0628727Y0392767D01*
X0628727Y0396604D01*
X0630262Y0396604D02*
X0633331Y0392000D01*
X0633331Y0396604D01*
X0634866Y0395837D02*
X0634866Y0392767D01*
X0635633Y0392000D01*
X0637168Y0392000D01*
X0637935Y0392767D01*
X0639470Y0392000D02*
X0639470Y0396604D01*
X0637935Y0395837D02*
X0637168Y0396604D01*
X0635633Y0396604D01*
X0634866Y0395837D01*
X0630262Y0396604D02*
X0630262Y0392000D01*
X0639470Y0394302D02*
X0642539Y0394302D01*
X0644074Y0394302D02*
X0645608Y0394302D01*
X0644074Y0396604D02*
X0644074Y0392000D01*
X0647143Y0392000D01*
X0648677Y0392000D02*
X0648677Y0396604D01*
X0650979Y0396604D01*
X0651747Y0395837D01*
X0651747Y0394302D01*
X0650979Y0393535D01*
X0648677Y0393535D01*
X0650212Y0393535D02*
X0651747Y0392000D01*
X0653281Y0391233D02*
X0656351Y0391233D01*
X0657885Y0392000D02*
X0657885Y0396604D01*
X0660187Y0396604D01*
X0660955Y0395837D01*
X0660955Y0394302D01*
X0660187Y0393535D01*
X0657885Y0393535D01*
X0662489Y0392000D02*
X0664024Y0392000D01*
X0663257Y0392000D02*
X0663257Y0396604D01*
X0664024Y0396604D02*
X0662489Y0396604D01*
X0665559Y0396604D02*
X0668628Y0396604D01*
X0667093Y0396604D02*
X0667093Y0392000D01*
X0670162Y0392767D02*
X0670930Y0392000D01*
X0672464Y0392000D01*
X0673232Y0392767D01*
X0674766Y0392000D02*
X0674766Y0396604D01*
X0673232Y0395837D02*
X0672464Y0396604D01*
X0670930Y0396604D01*
X0670162Y0395837D01*
X0670162Y0392767D01*
X0674766Y0394302D02*
X0677836Y0394302D01*
X0679370Y0394302D02*
X0682440Y0394302D01*
X0683974Y0395069D02*
X0685509Y0396604D01*
X0685509Y0392000D01*
X0683974Y0392000D02*
X0687044Y0392000D01*
X0677836Y0392000D02*
X0677836Y0396604D01*
X0647143Y0396604D02*
X0644074Y0396604D01*
X0642539Y0396604D02*
X0642539Y0392000D01*
X0616450Y0392000D02*
X0616450Y0396604D01*
X0598182Y0392000D02*
X0595113Y0392000D01*
X0596647Y0392000D02*
X0596647Y0396604D01*
X0595113Y0395069D01*
X0593578Y0394302D02*
X0590509Y0394302D01*
X0588974Y0392000D02*
X0588974Y0396604D01*
X0585905Y0396604D02*
X0585905Y0392000D01*
X0587440Y0393535D01*
X0588974Y0392000D01*
X0584370Y0392000D02*
X0584370Y0395069D01*
X0582836Y0396604D01*
X0581301Y0395069D01*
X0581301Y0392000D01*
X0581301Y0394302D02*
X0584370Y0394302D01*
X0579766Y0395837D02*
X0579766Y0396604D01*
X0579766Y0395837D02*
X0578232Y0394302D01*
X0578232Y0392000D01*
X0578232Y0394302D02*
X0576697Y0395837D01*
X0576697Y0396604D01*
X0575162Y0391233D02*
X0572093Y0391233D01*
X0570559Y0392000D02*
X0570559Y0395069D01*
X0569024Y0396604D01*
X0567489Y0395069D01*
X0567489Y0392000D01*
X0565955Y0392000D02*
X0564420Y0393535D01*
X0565187Y0393535D02*
X0562885Y0393535D01*
X0562885Y0392000D02*
X0562885Y0396604D01*
X0565187Y0396604D01*
X0565955Y0395837D01*
X0565955Y0394302D01*
X0565187Y0393535D01*
X0567489Y0394302D02*
X0570559Y0394302D01*
X0561351Y0396604D02*
X0558281Y0392000D01*
X0556747Y0392000D02*
X0555212Y0393535D01*
X0555979Y0393535D02*
X0553677Y0393535D01*
X0553677Y0392000D02*
X0553677Y0396604D01*
X0555979Y0396604D01*
X0556747Y0395837D01*
X0556747Y0394302D01*
X0555979Y0393535D01*
X0552143Y0392000D02*
X0549074Y0392000D01*
X0549074Y0396604D01*
X0552143Y0396604D01*
X0550608Y0394302D02*
X0549074Y0394302D01*
X0547539Y0394302D02*
X0544470Y0394302D01*
X0542935Y0395837D02*
X0542168Y0396604D01*
X0540633Y0396604D01*
X0539866Y0395837D01*
X0539866Y0392767D01*
X0540633Y0392000D01*
X0542168Y0392000D01*
X0542935Y0392767D01*
X0544470Y0392000D02*
X0544470Y0396604D01*
X0547539Y0396604D02*
X0547539Y0392000D01*
X0538331Y0392000D02*
X0538331Y0396604D01*
X0535262Y0396604D02*
X0538331Y0392000D01*
X0535262Y0392000D02*
X0535262Y0396604D01*
X0533727Y0396604D02*
X0533727Y0392767D01*
X0532960Y0392000D01*
X0531425Y0392000D01*
X0530658Y0392767D01*
X0530658Y0396604D01*
X0529123Y0395069D02*
X0529123Y0392000D01*
X0529123Y0394302D02*
X0526054Y0394302D01*
X0526054Y0395069D02*
X0527589Y0396604D01*
X0529123Y0395069D01*
X0526054Y0395069D02*
X0526054Y0392000D01*
X0524519Y0392000D02*
X0521450Y0392000D01*
X0521450Y0396604D01*
X0521450Y0276604D02*
X0521450Y0272000D01*
X0524519Y0272000D01*
X0526054Y0272000D02*
X0526054Y0275069D01*
X0527589Y0276604D01*
X0529123Y0275069D01*
X0529123Y0272000D01*
X0530658Y0272767D02*
X0531425Y0272000D01*
X0532960Y0272000D01*
X0533727Y0272767D01*
X0533727Y0276604D01*
X0535262Y0276604D02*
X0538331Y0272000D01*
X0538331Y0276604D01*
X0539866Y0275837D02*
X0539866Y0272767D01*
X0540633Y0272000D01*
X0542168Y0272000D01*
X0542935Y0272767D01*
X0544470Y0272000D02*
X0544470Y0276604D01*
X0542935Y0275837D02*
X0542168Y0276604D01*
X0540633Y0276604D01*
X0539866Y0275837D01*
X0535262Y0276604D02*
X0535262Y0272000D01*
X0530658Y0272767D02*
X0530658Y0276604D01*
X0529123Y0274302D02*
X0526054Y0274302D01*
X0544470Y0274302D02*
X0547539Y0274302D01*
X0549074Y0274302D02*
X0550608Y0274302D01*
X0549074Y0276604D02*
X0549074Y0272000D01*
X0552143Y0272000D01*
X0553677Y0272000D02*
X0553677Y0276604D01*
X0555979Y0276604D01*
X0556747Y0275837D01*
X0556747Y0274302D01*
X0555979Y0273535D01*
X0553677Y0273535D01*
X0555212Y0273535D02*
X0556747Y0272000D01*
X0558281Y0271233D02*
X0561351Y0271233D01*
X0564420Y0272000D02*
X0564420Y0274302D01*
X0565955Y0275837D01*
X0565955Y0276604D01*
X0567489Y0275069D02*
X0569024Y0276604D01*
X0570559Y0275069D01*
X0570559Y0272000D01*
X0572093Y0272000D02*
X0572093Y0276604D01*
X0570559Y0274302D02*
X0567489Y0274302D01*
X0567489Y0275069D02*
X0567489Y0272000D01*
X0564420Y0274302D02*
X0562885Y0275837D01*
X0562885Y0276604D01*
X0572093Y0272000D02*
X0573628Y0273535D01*
X0575162Y0272000D01*
X0575162Y0276604D01*
X0576697Y0274302D02*
X0579766Y0274302D01*
X0581301Y0275837D02*
X0582068Y0276604D01*
X0583603Y0276604D01*
X0584370Y0275837D01*
X0584370Y0275069D01*
X0581301Y0272000D01*
X0584370Y0272000D01*
X0616450Y0272000D02*
X0619519Y0272000D01*
X0621054Y0272000D02*
X0621054Y0275069D01*
X0622589Y0276604D01*
X0624123Y0275069D01*
X0624123Y0272000D01*
X0625658Y0272767D02*
X0625658Y0276604D01*
X0624123Y0274302D02*
X0621054Y0274302D01*
X0625658Y0272767D02*
X0626425Y0272000D01*
X0627960Y0272000D01*
X0628727Y0272767D01*
X0628727Y0276604D01*
X0630262Y0276604D02*
X0633331Y0272000D01*
X0633331Y0276604D01*
X0634866Y0275837D02*
X0634866Y0272767D01*
X0635633Y0272000D01*
X0637168Y0272000D01*
X0637935Y0272767D01*
X0639470Y0272000D02*
X0639470Y0276604D01*
X0637935Y0275837D02*
X0637168Y0276604D01*
X0635633Y0276604D01*
X0634866Y0275837D01*
X0630262Y0276604D02*
X0630262Y0272000D01*
X0639470Y0274302D02*
X0642539Y0274302D01*
X0644074Y0274302D02*
X0645608Y0274302D01*
X0644074Y0276604D02*
X0644074Y0272000D01*
X0647143Y0272000D01*
X0648677Y0272000D02*
X0648677Y0276604D01*
X0650979Y0276604D01*
X0651747Y0275837D01*
X0651747Y0274302D01*
X0650979Y0273535D01*
X0648677Y0273535D01*
X0650212Y0273535D02*
X0651747Y0272000D01*
X0653281Y0271233D02*
X0656351Y0271233D01*
X0657885Y0272000D02*
X0657885Y0276604D01*
X0660187Y0276604D01*
X0660955Y0275837D01*
X0660955Y0274302D01*
X0660187Y0273535D01*
X0657885Y0273535D01*
X0662489Y0272000D02*
X0664024Y0272000D01*
X0663257Y0272000D02*
X0663257Y0276604D01*
X0664024Y0276604D02*
X0662489Y0276604D01*
X0665559Y0276604D02*
X0668628Y0276604D01*
X0667093Y0276604D02*
X0667093Y0272000D01*
X0670162Y0272767D02*
X0670930Y0272000D01*
X0672464Y0272000D01*
X0673232Y0272767D01*
X0674766Y0272000D02*
X0674766Y0276604D01*
X0673232Y0275837D02*
X0672464Y0276604D01*
X0670930Y0276604D01*
X0670162Y0275837D01*
X0670162Y0272767D01*
X0674766Y0274302D02*
X0677836Y0274302D01*
X0679370Y0274302D02*
X0682440Y0274302D01*
X0683974Y0275837D02*
X0684742Y0276604D01*
X0686276Y0276604D01*
X0687044Y0275837D01*
X0687044Y0275069D01*
X0683974Y0272000D01*
X0687044Y0272000D01*
X0677836Y0272000D02*
X0677836Y0276604D01*
X0647143Y0276604D02*
X0644074Y0276604D01*
X0642539Y0276604D02*
X0642539Y0272000D01*
X0616450Y0272000D02*
X0616450Y0276604D01*
X0552143Y0276604D02*
X0549074Y0276604D01*
X0547539Y0276604D02*
X0547539Y0272000D01*
X0547539Y0151604D02*
X0547539Y0147000D01*
X0549074Y0147000D02*
X0552143Y0147000D01*
X0553677Y0147000D02*
X0553677Y0151604D01*
X0555979Y0151604D01*
X0556747Y0150837D01*
X0556747Y0149302D01*
X0555979Y0148535D01*
X0553677Y0148535D01*
X0555212Y0148535D02*
X0556747Y0147000D01*
X0558281Y0146233D02*
X0561351Y0146233D01*
X0564420Y0147000D02*
X0564420Y0149302D01*
X0565955Y0150837D01*
X0565955Y0151604D01*
X0567489Y0150069D02*
X0569024Y0151604D01*
X0570559Y0150069D01*
X0570559Y0147000D01*
X0572093Y0147000D02*
X0572093Y0151604D01*
X0570559Y0149302D02*
X0567489Y0149302D01*
X0567489Y0150069D02*
X0567489Y0147000D01*
X0564420Y0149302D02*
X0562885Y0150837D01*
X0562885Y0151604D01*
X0572093Y0147000D02*
X0573628Y0148535D01*
X0575162Y0147000D01*
X0575162Y0151604D01*
X0576697Y0149302D02*
X0579766Y0149302D01*
X0581301Y0150837D02*
X0582068Y0151604D01*
X0583603Y0151604D01*
X0584370Y0150837D01*
X0584370Y0150069D01*
X0583603Y0149302D01*
X0584370Y0148535D01*
X0584370Y0147767D01*
X0583603Y0147000D01*
X0582068Y0147000D01*
X0581301Y0147767D01*
X0582836Y0149302D02*
X0583603Y0149302D01*
X0552143Y0151604D02*
X0549074Y0151604D01*
X0549074Y0147000D01*
X0549074Y0149302D02*
X0550608Y0149302D01*
X0547539Y0149302D02*
X0544470Y0149302D01*
X0542935Y0150837D02*
X0542168Y0151604D01*
X0540633Y0151604D01*
X0539866Y0150837D01*
X0539866Y0147767D01*
X0540633Y0147000D01*
X0542168Y0147000D01*
X0542935Y0147767D01*
X0544470Y0147000D02*
X0544470Y0151604D01*
X0538331Y0151604D02*
X0538331Y0147000D01*
X0535262Y0151604D01*
X0535262Y0147000D01*
X0533727Y0147767D02*
X0533727Y0151604D01*
X0530658Y0151604D02*
X0530658Y0147767D01*
X0531425Y0147000D01*
X0532960Y0147000D01*
X0533727Y0147767D01*
X0529123Y0147000D02*
X0529123Y0150069D01*
X0527589Y0151604D01*
X0526054Y0150069D01*
X0526054Y0147000D01*
X0524519Y0147000D02*
X0521450Y0147000D01*
X0521450Y0151604D01*
X0526054Y0149302D02*
X0529123Y0149302D01*
X0616450Y0147000D02*
X0619519Y0147000D01*
X0621054Y0147000D02*
X0621054Y0150069D01*
X0622589Y0151604D01*
X0624123Y0150069D01*
X0624123Y0147000D01*
X0625658Y0147767D02*
X0625658Y0151604D01*
X0624123Y0149302D02*
X0621054Y0149302D01*
X0625658Y0147767D02*
X0626425Y0147000D01*
X0627960Y0147000D01*
X0628727Y0147767D01*
X0628727Y0151604D01*
X0630262Y0151604D02*
X0633331Y0147000D01*
X0633331Y0151604D01*
X0634866Y0150837D02*
X0634866Y0147767D01*
X0635633Y0147000D01*
X0637168Y0147000D01*
X0637935Y0147767D01*
X0639470Y0147000D02*
X0639470Y0151604D01*
X0637935Y0150837D02*
X0637168Y0151604D01*
X0635633Y0151604D01*
X0634866Y0150837D01*
X0630262Y0151604D02*
X0630262Y0147000D01*
X0639470Y0149302D02*
X0642539Y0149302D01*
X0644074Y0149302D02*
X0645608Y0149302D01*
X0644074Y0151604D02*
X0644074Y0147000D01*
X0647143Y0147000D01*
X0648677Y0147000D02*
X0648677Y0151604D01*
X0650979Y0151604D01*
X0651747Y0150837D01*
X0651747Y0149302D01*
X0650979Y0148535D01*
X0648677Y0148535D01*
X0650212Y0148535D02*
X0651747Y0147000D01*
X0653281Y0146233D02*
X0656351Y0146233D01*
X0657885Y0147000D02*
X0657885Y0151604D01*
X0660187Y0151604D01*
X0660955Y0150837D01*
X0660955Y0149302D01*
X0660187Y0148535D01*
X0657885Y0148535D01*
X0662489Y0147000D02*
X0664024Y0147000D01*
X0663257Y0147000D02*
X0663257Y0151604D01*
X0664024Y0151604D02*
X0662489Y0151604D01*
X0665559Y0151604D02*
X0668628Y0151604D01*
X0667093Y0151604D02*
X0667093Y0147000D01*
X0670162Y0147767D02*
X0670930Y0147000D01*
X0672464Y0147000D01*
X0673232Y0147767D01*
X0674766Y0147000D02*
X0674766Y0151604D01*
X0673232Y0150837D02*
X0672464Y0151604D01*
X0670930Y0151604D01*
X0670162Y0150837D01*
X0670162Y0147767D01*
X0674766Y0149302D02*
X0677836Y0149302D01*
X0679370Y0149302D02*
X0682440Y0149302D01*
X0683974Y0150837D02*
X0684742Y0151604D01*
X0686276Y0151604D01*
X0687044Y0150837D01*
X0687044Y0150069D01*
X0686276Y0149302D01*
X0687044Y0148535D01*
X0687044Y0147767D01*
X0686276Y0147000D01*
X0684742Y0147000D01*
X0683974Y0147767D01*
X0685509Y0149302D02*
X0686276Y0149302D01*
X0677836Y0151604D02*
X0677836Y0147000D01*
X0647143Y0151604D02*
X0644074Y0151604D01*
X0642539Y0151604D02*
X0642539Y0147000D01*
X0616450Y0147000D02*
X0616450Y0151604D01*
X0221050Y0398559D02*
X0220283Y0397792D01*
X0217213Y0397792D01*
X0216446Y0398559D01*
X0216446Y0400094D01*
X0217213Y0400861D01*
X0220283Y0400861D01*
X0221050Y0400094D01*
X0221050Y0398559D01*
X0219515Y0399327D02*
X0221050Y0400861D01*
X0220283Y0402396D02*
X0221050Y0403163D01*
X0221050Y0404698D01*
X0220283Y0405465D01*
X0219515Y0405465D01*
X0218748Y0404698D01*
X0218748Y0403931D01*
X0218748Y0404698D02*
X0217981Y0405465D01*
X0217213Y0405465D01*
X0216446Y0404698D01*
X0216446Y0403163D01*
X0217213Y0402396D01*
X0217213Y0442792D02*
X0216446Y0443559D01*
X0216446Y0445094D01*
X0217213Y0445861D01*
X0220283Y0445861D01*
X0221050Y0445094D01*
X0221050Y0443559D01*
X0220283Y0442792D01*
X0217213Y0442792D01*
X0219515Y0444327D02*
X0221050Y0445861D01*
X0221050Y0447396D02*
X0217981Y0450465D01*
X0217213Y0450465D01*
X0216446Y0449698D01*
X0216446Y0448163D01*
X0217213Y0447396D01*
X0221050Y0447396D02*
X0221050Y0450465D01*
X0220283Y0487792D02*
X0217213Y0487792D01*
X0216446Y0488559D01*
X0216446Y0490094D01*
X0217213Y0490861D01*
X0220283Y0490861D01*
X0221050Y0490094D01*
X0221050Y0488559D01*
X0220283Y0487792D01*
X0219515Y0489327D02*
X0221050Y0490861D01*
X0221050Y0492396D02*
X0221050Y0495465D01*
X0221050Y0493931D02*
X0216446Y0493931D01*
X0217981Y0492396D01*
D19*
X0192250Y0495800D02*
X0189250Y0495800D01*
X0189250Y0486800D02*
X0192250Y0486800D01*
X0192250Y0477800D02*
X0189250Y0477800D01*
X0189250Y0450800D02*
X0192250Y0450800D01*
X0192250Y0441800D02*
X0189250Y0441800D01*
X0189250Y0432800D02*
X0192250Y0432800D01*
X0192250Y0405800D02*
X0189250Y0405800D01*
X0189250Y0396800D02*
X0192250Y0396800D01*
X0192250Y0387800D02*
X0189250Y0387800D01*
D20*
X0193750Y0387800D03*
X0193750Y0396800D03*
X0193750Y0405800D03*
X0193750Y0432800D03*
X0193750Y0441800D03*
X0193750Y0450800D03*
X0193750Y0477800D03*
X0193750Y0486800D03*
X0193750Y0495800D03*
D21*
X0198250Y0495800D03*
X0198250Y0486800D03*
X0198250Y0477800D03*
X0198250Y0450800D03*
X0198250Y0441800D03*
X0198250Y0432800D03*
X0198250Y0405800D03*
X0198250Y0396800D03*
X0198250Y0387800D03*
M02*
