%
M48
M72
T01C0.02362
T02C0.02400
T03C0.03500
T04C0.04000
T05C0.04331
T06C0.04400
%
T01
X233250Y295800
X274250Y316800
X296250Y371800
X287250Y373800
X361250Y426800
X353250Y474800
X545250Y69800
X545250Y52800
X546250Y31800
T02
X611650Y57200
X611650Y79600
X611650Y118800
X611650Y141200
X603950Y142600
X579450Y182500
X629150Y186700
X512250Y130700
X493350Y169900
X463950Y187400
X450650Y193700
X453450Y161500
X413550Y160800
X398850Y169900
X393250Y169900
X382750Y154500
X368050Y140500
X363850Y130700
X364550Y113200
X393950Y136300
X310650Y136300
X293150Y153100
X312050Y172000
X323250Y203500
X310650Y207700
X314850Y220300
X319050Y224500
X310650Y231500
X314850Y258100
X310650Y270700
X366650Y242000
X375750Y246200
X428250Y237800
X432450Y242000
X428250Y228000
X432450Y270000
X419850Y293100
X429650Y301500
X463250Y326000
X432450Y342800
X424750Y342100
X412150Y351200
X442250Y356800
X441550Y361700
X450650Y351200
X472350Y372900
X454850Y379200
X456250Y394600
X515050Y415600
X519950Y414900
X541650Y382700
X545850Y372200
X559150Y337200
X597650Y298700
X513650Y274900
X493350Y209100
X383450Y299400
X382750Y304300
X378550Y308500
X378550Y355400
X310650Y341400
X204950Y314800
X200750Y312000
X403050Y452000
X573850Y400900
T03
X180250Y396800
X180250Y387800
X180250Y405800
X180250Y432800
X180250Y441800
X180250Y450800
X180250Y477800
X180250Y486800
X180250Y495800
T04
X126250Y66800
X126250Y76800
X126250Y86800
X186250Y86800
X186250Y76800
X186250Y66800
X246250Y66800
X246250Y76800
X246250Y86800
X286250Y91800
X286250Y111800
X296250Y111800
X316250Y91800
X326250Y86800
X336250Y86800
X326250Y66800
X326250Y46800
X316250Y41800
X326250Y26800
X336250Y46800
X356250Y66800
X381250Y66800
X381250Y46800
X391250Y46800
X411250Y66800
X391250Y86800
X381250Y86800
X381250Y106800
X356250Y106800
X336250Y126800
X326250Y126800
X326250Y106800
X381250Y126800
X391250Y126800
X411250Y106800
X441250Y106800
X441250Y86800
X451250Y86800
X441250Y66800
X441250Y46800
X451250Y46800
X471250Y66800
X496250Y86800
X506250Y86800
X471250Y106800
X451250Y126800
X441250Y126800
X496250Y126800
X506250Y126800
X551250Y116800
X551250Y106800
X551250Y96800
X551250Y86800
X576250Y26800
X586250Y26800
X596250Y26800
X651250Y26800
X661250Y26800
X671250Y26800
X646250Y86800
X646250Y96800
X646250Y106800
X646250Y116800
X521250Y26800
X511250Y26800
X471250Y26800
X461250Y26800
X411250Y26800
X381250Y26800
X356250Y26800
X296250Y66800
X286250Y66800
X286250Y41800
X171250Y136800
X141250Y136800
X136250Y166800
X146250Y166800
X156250Y166800
X166250Y166800
X176250Y166800
X186250Y166800
X196250Y166800
X206250Y166800
X226250Y166800
X236250Y166800
X246250Y166800
X256250Y166800
X266250Y166800
X276250Y166800
X286250Y166800
X296250Y166800
X316250Y166800
X326250Y166800
X336250Y166800
X346250Y166800
X356250Y166800
X366250Y166800
X376250Y166800
X386250Y166800
X396250Y186800
X396250Y196800
X406250Y196800
X406250Y186800
X406250Y206800
X396250Y206800
X396250Y216800
X406250Y216800
X406250Y226800
X396250Y226800
X396250Y236800
X406250Y236800
X406250Y246800
X396250Y246800
X396250Y256800
X406250Y256800
X406250Y266800
X396250Y266800
X396250Y276800
X406250Y276800
X406250Y286800
X396250Y286800
X396250Y296800
X406250Y296800
X406250Y306800
X396250Y306800
X396250Y316800
X406250Y316800
X406250Y326800
X406250Y336800
X396250Y336800
X396250Y326800
X396250Y346800
X406250Y346800
X406250Y356800
X396250Y356800
X366250Y356800
X356250Y356800
X346250Y356800
X336250Y356800
X326250Y356800
X316250Y356800
X306250Y356800
X296250Y356800
X276250Y356800
X266250Y356800
X256250Y356800
X246250Y356800
X236250Y356800
X226250Y356800
X216250Y356800
X206250Y356800
X191250Y356800
X181250Y356800
X171250Y356800
X161250Y356800
X151250Y356800
X141250Y356800
X131250Y356800
X121250Y356800
X111250Y356800
X101250Y356800
X131250Y381800
X91250Y396800
X91250Y406800
X91250Y416800
X91250Y426800
X131250Y426800
X131250Y411800
X131250Y456800
X131250Y471800
X91250Y466800
X91250Y476800
X91250Y486800
X91250Y456800
X131250Y501800
X276250Y491800
X286250Y491800
X296250Y491800
X306250Y491800
X316250Y491800
X371250Y491800
X381250Y491800
X391250Y491800
X401250Y491800
X411250Y491800
X421250Y491800
X506250Y466800
X506250Y456800
X506250Y446800
X531250Y446800
X531250Y456800
X531250Y466800
X556250Y466800
X556250Y456800
X556250Y446800
X581250Y446800
X581250Y456800
X581250Y466800
X626250Y456800
X626250Y446800
X661250Y446800
X671250Y446800
X671250Y436800
X661250Y436800
X661250Y426800
X671250Y426800
X671250Y416800
X661250Y416800
X626250Y416800
X661250Y456800
X671250Y456800
X671250Y466800
X671250Y476800
X661250Y476800
X661250Y466800
X661250Y486800
X671250Y486800
X626250Y486800
X471250Y406800
X461250Y406800
X451250Y406800
X441250Y406800
X401250Y406800
X391250Y406800
X381250Y406800
X316250Y391800
X306250Y391800
X296250Y391800
X286250Y391800
X276250Y391800
X276250Y441800
X286250Y441800
X296250Y441800
X306250Y441800
X316250Y441800
X296250Y301800
X286250Y301800
X276250Y301800
X276250Y266800
X286250Y266800
X296250Y266800
X296250Y221800
X286250Y221800
X276250Y221800
X101250Y201800
X91250Y201800
X81250Y201800
X81250Y241800
X91250Y241800
X101250Y241800
X101250Y281800
X91250Y281800
X81250Y281800
X81250Y321800
X91250Y321800
X101250Y321800
X551250Y331800
X551250Y341800
X551250Y351800
X551250Y361800
X646250Y361800
X646250Y351800
X646250Y341800
X646250Y331800
X646250Y241800
X646250Y231800
X646250Y221800
X646250Y211800
X551250Y211800
X551250Y221800
X551250Y231800
X551250Y241800
T05
X526250Y241800
X526250Y231800
X526250Y221800
X526250Y211800
X526250Y201800
X526250Y191800
X576250Y191800
X576250Y201800
X576250Y211800
X576250Y221800
X576250Y231800
X576250Y241800
X576250Y251800
X576250Y261800
X621250Y261800
X621250Y251800
X621250Y241800
X621250Y231800
X621250Y221800
X621250Y211800
X621250Y201800
X621250Y191800
X671250Y191800
X671250Y201800
X671250Y211800
X671250Y221800
X671250Y231800
X671250Y241800
X671250Y251800
X671250Y261800
X671250Y311800
X671250Y321800
X671250Y331800
X671250Y341800
X671250Y351800
X671250Y361800
X671250Y371800
X671250Y381800
X621250Y381800
X621250Y371800
X621250Y361800
X621250Y351800
X621250Y341800
X621250Y331800
X621250Y321800
X621250Y311800
X576250Y311800
X576250Y321800
X576250Y331800
X576250Y341800
X576250Y351800
X576250Y361800
X576250Y371800
X576250Y381800
X526250Y381800
X526250Y371800
X526250Y361800
X526250Y351800
X526250Y341800
X526250Y331800
X526250Y321800
X526250Y311800
X526250Y261800
X526250Y251800
X526250Y136800
X526250Y126800
X526250Y116800
X526250Y106800
X526250Y96800
X526250Y86800
X526250Y76800
X526250Y66800
X576250Y66800
X576250Y76800
X576250Y86800
X576250Y96800
X576250Y106800
X576250Y116800
X576250Y126800
X576250Y136800
X621250Y136800
X621250Y126800
X621250Y116800
X621250Y106800
X621250Y96800
X621250Y86800
X621250Y76800
X621250Y66800
X671250Y66800
X671250Y76800
X671250Y86800
X671250Y96800
X671250Y106800
X671250Y116800
X671250Y126800
X671250Y136800
T06
X266250Y111800
X226250Y111800
X206250Y111800
X166250Y111800
X146250Y111800
X106250Y111800
X121250Y186800
X121250Y201800
X121250Y226800
X121250Y241800
X121250Y266800
X121250Y281800
X121250Y306800
X121250Y321800
X161250Y321800
X161250Y306800
X161250Y281800
X161250Y266800
X161250Y241800
X161250Y226800
X161250Y201800
X161250Y186800
X211250Y211800
X211250Y231800
X211250Y251800
X211250Y271800
X211250Y291800
X211250Y311800
X251250Y311800
X251250Y291800
X251250Y271800
X251250Y251800
X251250Y231800
X251250Y211800
X371250Y446800
X411250Y446800
X436250Y446800
X476250Y446800
M30
